<svg width="492" height="423" viewBox="0 0 492 423" fill="none" xmlns="http://www.w3.org/2000/svg">
<path d="M370.527 63.5625C477.369 158.464 493.849 239.062 488.704 267.509C465.873 394.634 365.865 417.857 335.959 419.545C296.406 421.714 232.896 418.821 191.092 419.946C76.6941 426.455 30.3078 362.25 21.4647 329.384C-33.202 194.866 43.4118 91.2857 88.5922 56.3303C204.598 -44.3572 324.945 19.2053 370.527 63.5625Z" fill="#F7BC28"/>
<path d="M186.429 165.777C192.057 153.482 199.051 141.911 205.965 130.339L263.847 34.3124C269.073 25.7142 277.112 15.8303 286.437 16.6339C287.724 16.7946 288.769 17.9196 288.608 19.2856C288.608 19.4464 288.527 19.6071 288.527 19.8481C283.865 33.5089 276.067 45.9642 265.857 56.1696C263.445 58.4999 260.631 60.1071 260.229 61.3124C259.988 62.116 256.853 70.7946 255.727 74.4106C242.543 115.232 230.082 148.5 224.133 162.723" fill="#FFC9A0"/>
<path d="M229.68 156.214C223.169 175.902 221.078 186.268 210.949 191.893L157.327 212.062C166.01 195.509 176.863 172.527 186.912 156.777L229.68 156.214Z" fill="#307549"/>
<path d="M177.827 166.902C195.112 166.259 212.396 166.5 229.6 167.705C230.886 167.705 232.012 166.58 232.012 165.295C231.931 164.009 230.886 162.964 229.6 162.884C212.396 161.678 195.112 161.437 177.827 162.08C174.692 162.161 174.692 167.062 177.827 166.902Z" fill="#153A23"/>
<path d="M183.455 203.062C180.963 192.054 181.284 177.75 188.922 165.696C190.61 163.045 187.957 161.277 186.51 164.009C179.918 176.464 176.139 178.795 175.978 204.509C175.978 207.643 179.274 207.482 179.194 204.348L183.455 203.062Z" fill="#153A23"/>
<path d="M193.665 197.036C197.684 186.509 201.543 175.259 206.206 164.973C206.769 163.768 207.01 163.286 205.723 162.482C204.518 161.839 203.071 162.241 202.347 163.366C195.835 175.098 194.469 191.33 188.922 195.75C187.876 196.554 189.404 198.402 190.61 198.804C191.896 199.045 193.263 198.321 193.665 197.036Z" fill="#153A23"/>
<path d="M201.945 198.08C203.553 195.75 206.125 194.304 208.216 192.536C210.547 190.607 209.422 187.634 211.431 185.384C214.969 181.527 218.265 176.946 221.239 167.062C222.123 164.009 216.094 162.643 215.531 165.777C213.843 175.018 212.155 177.83 209.261 183.295C207.974 185.786 206.125 187.955 203.955 189.643C201.623 191.491 199.372 193.098 197.684 195.589C197.041 196.795 197.443 198.241 198.569 198.964C199.774 199.607 201.302 199.205 201.945 198.08Z" fill="#153A23"/>
<path d="M160.302 246.937C134.255 247.5 87.3863 238.098 61.3392 237.938C44.9392 237.777 33.6039 241.714 12.5412 228.857C10.2902 227.571 8.2804 225.964 6.67256 223.955C5.70785 222.67 6.91373 220.741 8.36079 221.304C22.9922 227.571 40.598 217.607 55.551 223.634C66.4843 228.054 127.663 222.911 162.875 215.116" fill="#FFC9A0"/>
<path d="M422.139 119.17C407.99 147.054 392.796 174.455 376.637 201.295C366.347 190.446 363.212 188.036 350.429 176.063L351.475 236.089L373.422 248.545C377.682 250.955 382.184 253.446 387.088 253.286C397.459 252.964 403.569 241.714 407.186 231.991C419.486 198.884 428.812 159.83 434.922 125.036L422.139 119.17Z" fill="#FFC9A0"/>
<path d="M277.755 273.536C281.533 318.857 283.302 350.598 285.874 406.446C290.135 406.205 298.335 406.607 302.435 407.652C307.42 370.205 313.931 311.866 318.755 272.652L277.755 273.536Z" fill="#FFC9A0"/>
<path d="M162.473 206.036C201.302 187.554 242.945 170.839 284.347 159.107C284.106 189.804 283.141 207.723 283.302 247.018C245.276 247.259 207.331 245.411 169.547 241.554L162.473 206.036Z" fill="#39B55D"/>
<path d="M351.475 236.089C344.159 231.911 333.869 224.92 324.784 219.536C321.649 241.554 321.81 250.795 318.755 272.732C306.133 272.732 290.377 273.455 277.755 273.536L277.514 161.116C300.747 151.714 328.402 153.964 350.51 176.062L351.475 236.089Z" fill="#153A23"/>
<path d="M168.582 239.625C182.973 239.705 190.529 239.143 204.92 239.866C215.371 240.428 227.269 240.268 254.522 241.795C264.41 242.357 276.308 242.036 286.196 242.036C289.331 242.036 289.331 234.241 286.196 234.241C269.474 234.241 252.753 236.893 236.031 236.411C221.802 236.009 207.492 235.446 193.263 235.125C184.982 234.884 176.782 234.803 168.502 234.723C165.447 234.723 165.367 239.625 168.582 239.625Z" fill="#153A23"/>
<path d="M153.469 226.045C172.602 226.687 191.655 225.402 210.788 224.759C228.957 224.196 248.171 225.241 266.259 224.277C274.218 223.875 285.231 219.536 289.251 222.107C291.904 223.795 292.386 219.295 289.251 219.214C275.986 218.571 257.174 219.857 241.578 220.58C222.445 221.464 204.276 221.303 185.063 221.464C174.531 221.545 164 221.545 153.469 221.223C150.333 221.062 150.333 225.964 153.469 226.045Z" fill="#153A23"/>
<path d="M150.414 211.259C168.422 211.339 180.561 216.08 198.327 213.187C215.853 210.295 234.504 209.25 260.149 209.089C270.278 209.009 278.398 206.598 288.527 205.795C289.814 205.714 290.939 204.67 290.939 203.303C290.939 202.098 289.814 200.491 288.527 200.893C283.543 202.178 262.32 205.875 234.584 204.428C216.657 203.545 191.333 208.125 173.406 208.446C163.276 208.607 160.543 206.437 150.414 206.357C147.278 206.437 147.278 211.259 150.414 211.259Z" fill="#153A23"/>
<path d="M170.029 195.027C200.82 193.902 228.957 195.107 259.747 193.339C268.51 192.857 279.845 190.045 288.608 189.402C289.974 189.402 291.02 188.277 291.02 186.911C291.02 185.545 289.894 184.5 288.608 184.5C257.898 186.589 230.565 190.446 196.237 189.08C187.475 188.759 178.712 189.723 169.949 190.045C166.894 190.286 166.814 195.188 170.029 195.027Z" fill="#153A23"/>
<path d="M218.345 175.821C239.327 175.902 260.39 175.339 281.373 174.134C287.241 173.812 293.19 173.411 299.059 172.929C300.425 172.929 301.471 171.804 301.471 170.518C301.471 169.152 300.345 168.107 299.059 168.027C278.076 169.634 257.094 170.598 236.112 170.839C230.163 170.92 224.294 170.92 218.345 170.92C215.129 171 215.129 175.821 218.345 175.821Z" fill="#153A23"/>
<path d="M46.5471 150.268C44.2961 151.071 42.3667 152.437 41 154.366C37.8647 158.545 37.9451 167.384 43.6529 170.036C47.1902 171.723 53.702 172.366 56.6765 169.795C59.1686 167.786 61.098 165.134 62.2235 162.08" fill="#32142A"/>
<path d="M71.3079 184.5L81.7588 191.009C82.0804 191.17 82.402 191.411 82.6432 191.732C82.8843 192.134 82.9647 192.616 82.9647 193.098L83.3667 206.839C83.4471 207.321 83.3667 207.884 83.0451 208.286C82.8039 208.527 82.402 208.768 82.0804 208.848C78.1412 210.134 74.202 211.339 70.1824 212.384L71.3079 184.5Z" fill="#E48929"/>
<path d="M72.3529 173.25C72.8353 188.277 72.5941 203.384 71.549 218.411C71.4686 219.455 71.3078 220.661 70.5039 221.464C69.7 222.268 68.4137 222.268 67.2078 222.268C47.2706 222.348 27.3333 222.429 7.39609 222.348C6.83334 222.429 6.1902 222.268 5.70785 221.946C5.38628 221.545 5.14511 221.063 5.14511 220.5C2.81373 205.152 2.57256 189.482 4.42158 174.054L72.3529 173.25Z" fill="#32142A"/>
<path d="M87.2255 185.786C87.3059 194.625 87.2255 203.464 87.1451 212.223C87.1451 212.786 87.1451 213.429 87.0647 213.991C86.9843 214.473 86.9039 214.473 86.7431 214.473C84.8941 214.554 82.9647 214.554 81.1157 214.554C81.0353 214.554 81.0353 214.554 80.9549 214.312C80.9549 214.071 80.8745 213.75 80.8745 213.509C80.6333 204.509 80.6333 194.786 80.7941 185.705L87.2255 185.786Z" fill="#32142A"/>
<path d="M45.5824 168.83C49.0393 169.152 52.5765 169.554 55.7118 168.268C58.8471 166.982 61.6608 164.411 62.3843 161.116C63.2687 157.339 61.3392 153.241 58.0432 151.071C54.5863 148.982 50.4059 148.58 46.6275 150.027C45.5824 150.348 44.6177 150.911 43.8138 151.554C42.1255 153 41.402 155.25 41 157.42C40.5177 159.509 40.5981 161.679 41.0804 163.768C41.7236 165.937 43.251 167.625 45.3412 168.429" fill="#E48929"/>
<path d="M46.0647 175.178C48.8785 170.518 51.2902 165.616 53.3804 160.554L49.9235 160.473C49.5216 160.473 49.2 160.473 48.8785 160.634C48.6373 160.795 48.3961 161.036 48.2353 161.277C45.0196 165.857 43.3314 171.241 40.2765 175.902" fill="#32142A"/>
<path d="M15.2745 141.589C12.2196 142.714 9.56666 144.804 7.71764 147.455C3.53725 153.402 3.93921 165.616 11.9784 169.152C16.9627 171.321 25.9667 171.964 30.0667 168.348C33.5235 165.455 36.0961 161.679 37.4627 157.42" fill="#32142A"/>
<path d="M7.79807 161.277C6.4314 158.545 6.91376 155.33 7.39611 152.357C7.87846 149.384 8.84317 146.17 11.1745 144C12.3 143.036 13.6667 142.232 15.0334 141.67C20.1785 139.661 26.449 139.821 31.1118 142.714C35.7745 145.607 38.6687 151.313 37.5432 156.616C36.5785 161.196 32.8 164.893 28.3785 166.902C28.4589 166.902 12.702 171.241 7.79807 161.277Z" fill="#E48929"/>
<path d="M27.8157 147.857C27.6549 147.536 27.6549 147.134 27.7353 146.732C27.7353 146.33 27.8961 146.009 28.2177 145.768C28.3784 145.687 28.5392 145.527 28.7 145.446C29.3431 145.205 30.0667 145.205 30.6294 145.607C31.1922 145.929 31.5137 146.652 31.4333 147.295C31.2726 147.857 30.8706 148.339 30.3079 148.5C30.3079 148.5 28.3784 149.062 27.8157 147.857Z" fill="#32142A"/>
<path d="M30.951 155.813C30.8706 155.491 30.8706 155.089 30.951 154.688C30.951 154.286 31.1118 153.964 31.4333 153.723C31.5941 153.563 31.7549 153.482 31.9157 153.402C32.5588 153.161 33.2824 153.161 33.8451 153.563C34.4078 153.884 34.7294 154.607 34.649 155.25C34.4882 155.813 34.0863 156.295 33.5235 156.455C33.5235 156.536 31.5941 157.018 30.951 155.813Z" fill="#32142A"/>
<path d="M18.9726 145.446C18.8118 145.125 18.8118 144.723 18.8922 144.321C18.8922 143.92 19.0529 143.598 19.3745 143.357C19.5353 143.277 19.6961 143.116 19.8569 143.036C20.5 142.795 21.2235 142.795 21.7863 143.196C22.349 143.518 22.6706 144.241 22.5902 144.884C22.4294 145.446 22.0275 145.929 21.4647 146.089C21.4647 146.089 19.5353 146.652 18.9726 145.446Z" fill="#32142A"/>
<path d="M10.6922 149.705C10.5314 149.384 10.5314 148.982 10.6118 148.58C10.6118 148.179 10.7726 147.857 11.0941 147.616C11.2549 147.536 11.4157 147.375 11.5765 147.295C12.2196 147.054 12.9431 147.054 13.5059 147.455C14.0686 147.777 14.3902 148.5 14.3098 149.143C14.149 149.705 13.7471 150.188 13.1843 150.348C13.2647 150.348 11.3353 150.911 10.6922 149.705Z" fill="#32142A"/>
<path d="M9.4059 158.464C9.24512 158.143 9.24512 157.741 9.32551 157.339C9.32551 156.937 9.48629 156.616 9.80786 156.375C9.96865 156.295 10.1294 156.134 10.2902 156.054C10.9334 155.812 11.6569 155.812 12.2196 156.214C12.7824 156.536 13.1039 157.259 13.0235 157.902C12.8628 158.464 12.4608 158.946 11.8981 159.107C11.9785 159.107 10.049 159.67 9.4059 158.464Z" fill="#32142A"/>
<path d="M16.4 164.411C16.2392 164.089 16.2392 163.687 16.3196 163.286C16.3196 162.884 16.4804 162.562 16.8019 162.321C16.9627 162.241 17.1235 162.08 17.2843 162C17.9274 161.759 18.651 161.759 19.2137 162.161C19.7765 162.482 20.098 163.205 20.0176 163.848C19.8568 164.411 19.4549 164.893 18.8921 165.054C18.8921 165.134 16.9627 165.616 16.4 164.411Z" fill="#32142A"/>
<path d="M25.8863 162.563C25.7255 162.241 25.7255 161.839 25.8059 161.438C25.8059 161.036 25.9666 160.714 26.2882 160.473C26.449 160.393 26.6098 160.232 26.7706 160.152C27.4137 159.911 28.1372 159.911 28.7 160.313C29.2627 160.634 29.5843 161.357 29.5039 162C29.3431 162.563 28.9412 163.045 28.3784 163.205C28.4588 163.286 26.5294 163.768 25.8863 162.563Z" fill="#32142A"/>
<path d="M55.9529 154.929C55.8725 154.687 55.8725 154.446 55.9529 154.205C55.9529 153.804 56.1941 153.482 56.5961 153.321C57.0784 153.161 57.5608 153.241 57.9627 153.482C58.3647 153.723 58.5255 154.205 58.4451 154.687C58.2843 155.089 58.0431 155.33 57.6412 155.491C57.6412 155.411 56.2745 155.732 55.9529 154.929Z" fill="#32142A"/>
<path d="M57.9628 160.473C57.8824 160.232 57.8824 159.991 57.9628 159.75C57.9628 159.509 58.1235 159.268 58.2843 159.027C58.3647 158.946 58.5255 158.866 58.6059 158.866C59.0883 158.705 59.5706 158.705 59.9726 158.946C60.3745 159.187 60.6157 159.67 60.4549 160.152C60.2941 160.554 60.053 160.795 59.651 160.955C59.7314 160.955 58.3647 161.357 57.9628 160.473Z" fill="#32142A"/>
<path d="M49.7627 153C49.6824 152.759 49.6824 152.518 49.7627 152.277C49.7627 152.036 49.9235 151.795 50.0843 151.553C50.1647 151.473 50.3255 151.393 50.4059 151.393C50.8882 151.232 51.3706 151.232 51.7726 151.473C52.1745 151.714 52.3353 152.196 52.2549 152.678C52.0941 153.08 51.8529 153.321 51.451 153.482C51.5314 153.562 50.1647 153.884 49.7627 153Z" fill="#32142A"/>
<path d="M43.9745 155.893C43.8941 155.652 43.8941 155.411 43.9745 155.17C43.9745 154.929 44.1353 154.687 44.2961 154.446C44.3765 154.366 44.5373 154.286 44.6177 154.286C45.1 154.125 45.5824 154.125 45.9843 154.366C46.3863 154.607 46.5471 155.089 46.4667 155.571C46.3059 155.973 46.0647 156.214 45.6628 156.375C45.7432 156.375 44.3765 156.696 43.9745 155.893Z" fill="#32142A"/>
<path d="M42.9294 161.92C42.7686 161.437 42.9294 160.875 43.251 160.473C43.3314 160.393 43.4922 160.312 43.5725 160.312C44.0549 160.152 44.5373 160.152 44.9392 160.393C45.3412 160.634 45.5824 161.116 45.4216 161.598C45.3412 162 45.0196 162.321 44.6176 162.482C44.698 162.482 43.3314 162.804 42.9294 161.92Z" fill="#32142A"/>
<path d="M47.6725 166.179C47.5921 165.937 47.5921 165.696 47.6725 165.455C47.6725 165.214 47.8333 164.973 47.9941 164.732C48.0745 164.652 48.2353 164.571 48.3157 164.571C48.798 164.411 49.2804 164.491 49.6823 164.652C50.0843 164.893 50.2451 165.375 50.1647 165.857C50.0039 166.259 49.7627 166.5 49.3608 166.661C49.4412 166.661 48.0745 167.062 47.6725 166.179Z" fill="#32142A"/>
<path d="M54.3451 165.054C54.2647 164.812 54.2647 164.571 54.3451 164.33C54.3451 164.089 54.5059 163.848 54.6667 163.607C54.747 163.527 54.9078 163.446 54.9882 163.446C55.4706 163.286 55.9529 163.286 56.3549 163.527C56.7569 163.768 56.9176 164.25 56.8372 164.732C56.6765 165.134 56.4353 165.375 56.0333 165.536C56.0333 165.616 54.747 165.937 54.3451 165.054Z" fill="#32142A"/>
<path d="M36.0961 175.179L23.0725 154.045C22.9118 153.643 22.5902 153.321 22.1882 153.161C21.7863 153 21.3039 153 20.9019 153.161L17.847 153.723C22.6706 160.875 26.9314 168.429 30.3882 176.304" fill="#32142A"/>
<path d="M210.869 244.929C213.924 240.107 215.451 234.402 215.21 228.696C215.21 228.696 212.476 237.696 195.996 244.125L210.869 244.929Z" fill="#307549"/>
<path d="M324.784 219.536L301.31 204.991L322.694 236.17L324.784 219.536Z" fill="#122D1C"/>
<path d="M131.361 155.33C132.406 175.018 126.618 194.464 126.376 214.152C126.296 215.196 126.457 216.321 126.778 217.286C127.663 219.375 130.235 220.259 132.567 220.58C139.561 221.545 146.635 219.455 153.308 216.964C156.363 215.839 159.578 214.473 161.508 211.902C163.437 209.33 163.839 205.714 164.08 202.42C165.286 186.429 166.573 159.75 165.849 143.679L131.361 155.33Z" fill="#FFC9A0"/>
<path d="M170.753 181.607C178.712 166.741 186.188 149.946 182.49 136.286C181.847 133.393 180.4 130.821 178.229 128.732C173.084 124.071 165.045 125.357 158.212 126.723C149.208 128.571 138.435 129.616 132.245 122.866C130.878 121.42 129.833 119.652 128.306 118.527C126.778 117.402 124.286 116.92 122.839 118.286C121.874 119.17 121.633 120.616 121.553 121.902C120.427 132.429 121.874 143.518 127.663 152.357C133.451 161.196 144.063 167.304 154.514 165.777C155.639 165.616 156.925 165.455 157.649 166.259C157.971 166.661 158.131 167.063 158.292 167.545L162.553 181.607H170.753Z" fill="#32142A"/>
<path d="M160.543 176.143C164.402 173.33 169.869 174.134 172.763 178.071C174.853 180.884 175.014 184.661 173.245 187.634C170.673 191.973 164.884 193.259 159.82 193.179L160.543 176.143Z" fill="#FFC9A0"/>
<path d="M177.425 167.946C157.327 168.589 131.441 154.607 131.441 154.607C131.522 157.58 131.361 162.161 131.361 165.054C144.947 166.661 161.347 174.054 175.014 173.25C175.014 173.25 176.3 170.759 177.425 167.946Z" fill="#39B55D"/>
<path d="M126.376 149.786C128.788 155.571 133.933 159.991 139.722 162.482C145.51 164.973 151.861 165.777 158.212 166.018C159.659 166.098 161.106 166.018 162.553 165.857C164.482 165.375 166.412 164.652 168.18 163.687L126.376 149.786Z" fill="#32142A"/>
<path d="M351.475 236.089L354.931 238.098L351.475 177.107L350.429 176.062L351.475 236.089Z" fill="#EFB086"/>
<path d="M277.755 273.536L277.996 276.268L318.353 275.705L318.674 272.732L277.755 273.536Z" fill="#EFB086"/>
<path d="M154.031 202.821C162.071 204.107 175.094 205.312 183.133 206.598C189.404 207.562 195.835 208.607 201.543 211.259C207.251 213.911 212.557 218.491 214.486 224.518C215.129 226.366 215.29 228.375 215.049 230.304C214.084 236.25 208.055 239.786 202.508 242.116C186.992 248.705 170.512 252.482 153.71 253.366L154.031 202.821Z" fill="#39B55D"/>
<path d="M165.206 253.366C164.482 236.089 164.884 218.812 166.492 201.536C166.492 200.25 165.367 199.125 164.08 199.125C162.714 199.125 161.669 200.25 161.588 201.536C159.98 218.732 159.578 236.089 160.302 253.366C160.463 256.5 165.367 256.5 165.206 253.366Z" fill="#153A23"/>
<path d="M164.161 215.116C170.592 214.714 177.104 214.714 183.535 215.116C190.449 215.679 199.131 218.411 205.804 220.339C208.778 221.062 211.592 222.268 214.165 223.714C216.898 225.321 219.31 221.143 216.657 219.455C211.271 216.241 204.759 214.714 198.649 213.67C191.173 212.384 183.696 211.741 176.139 211.58C172.361 211.5 168.582 211.5 164.804 211.741C161.669 211.902 161.669 216.804 164.804 216.643L164.161 215.116Z" fill="#153A23"/>
<path d="M163.759 231.107C200.337 229.58 215.21 228.696 219.631 230.062C220.918 230.464 222.043 229.018 222.043 227.652C222.043 226.366 220.918 225 219.631 225.241C200.337 228.134 182.41 226.929 163.759 226.286C160.624 226.205 160.624 231.107 163.759 231.107Z" fill="#153A23"/>
<path d="M163.678 244.527C177.988 245.17 192.78 245.491 206.849 242.357C210.467 241.554 214.004 240.429 217.461 238.902C218.586 238.179 218.988 236.732 218.345 235.527C217.622 234.402 216.175 234 214.969 234.643C209.261 237.214 202.829 238.339 196.639 239.063C189.484 239.866 183.535 241.634 176.3 241.554C172.522 241.473 166.733 241.152 162.955 240.991C159.9 240.911 160.543 244.366 163.678 244.527Z" fill="#153A23"/>
<path d="M128.869 219.455L154.031 211.982V216.884L128.869 219.455Z" fill="#EFB086"/>
<path d="M164.724 192.777C164.724 192.777 161.829 192.857 160.624 192.375L164.563 194.786L164.724 192.777Z" fill="#EFB086"/>
<path d="M162.231 190.045C164.241 190.286 166.251 189.804 167.939 188.759C169.386 187.875 170.271 186.348 170.512 184.661C170.753 183.054 170.592 181.366 169.869 179.839C169.225 178.473 168.02 177.589 166.573 177.268C164.884 176.946 163.035 177.188 161.508 177.991C161.106 178.232 160.945 178.795 161.186 179.196C161.427 179.598 161.91 179.759 162.312 179.518C164.08 178.714 167.055 178.393 168.18 180.402C168.743 181.527 168.984 182.813 168.824 184.018C168.824 185.223 168.261 186.348 167.376 187.152C165.849 188.196 164 188.679 162.231 188.438C161.749 188.438 161.347 188.839 161.347 189.321C161.347 189.643 161.749 189.964 162.231 190.045Z" fill="#32142A"/>
<path d="M162.633 186.429C163.276 186.429 164 186.348 164.563 186.027C165.206 185.705 165.608 185.223 165.849 184.5C166.171 183.777 166.171 183.054 165.849 182.33C165.608 181.848 165.125 181.366 164.643 181.205C163.92 180.884 163.196 180.804 162.473 180.804C161.99 180.804 161.588 181.205 161.588 181.688C161.588 182.17 161.99 182.571 162.473 182.571H162.955H163.196C163.276 182.571 163.357 182.571 163.276 182.571C163.437 182.571 163.598 182.652 163.759 182.652L163.92 182.732H163.839H163.92C164 182.732 164.08 182.813 164.08 182.813H164.161H164.08L164.322 183.054C164.241 182.973 164.241 182.973 164.322 182.973L164.402 183.054V183.134C164.482 183.214 164.402 183.214 164.402 183.054C164.402 183.134 164.402 183.134 164.482 183.214C164.482 183.295 164.482 183.295 164.482 183.214V183.295C164.482 183.375 164.482 183.616 164.482 183.375C164.482 183.455 164.482 183.536 164.402 183.616C164.322 183.777 164.322 183.938 164.241 184.018V183.938L164.161 184.018C164.161 184.098 164.08 184.179 164.08 184.179C164.161 184.098 164.161 184.098 164.161 184.098L164.08 184.179L164 184.259C164.08 184.179 164.08 184.179 164.08 184.259L163.92 184.339H163.839C163.759 184.42 163.518 184.42 163.437 184.42C163.357 184.42 163.116 184.5 163.357 184.42C163.276 184.42 163.196 184.42 163.116 184.42H162.633C162.151 184.5 161.829 184.902 161.829 185.384C161.91 186.027 162.231 186.348 162.633 186.429Z" fill="#32142A"/>
<path d="M130.155 178.875C128.949 179.759 125.171 188.598 124.527 195.027C124.447 196.152 125.251 197.196 126.457 197.277C128.386 197.437 130.235 197.437 132.165 197.277C132.406 197.277 132.647 197.196 132.888 197.116C133.129 196.795 133.29 196.473 133.21 196.071L130.155 178.875Z" fill="#E48929"/>
<path d="M260.551 60.4286L252.673 66.9375H258.3L260.551 60.4286Z" fill="#EFB086"/>
<path d="M395.931 168.027L423.104 180.482C423.104 180.482 431.223 150.911 435.002 125.036L421.094 121.339L395.931 168.027Z" fill="#39B55D"/>
<path d="M417.476 129.295C421.014 123.027 430.741 128.973 432.751 131.705C434.841 134.518 437.896 129.616 440.308 127.125C443.122 124.152 453.492 121.339 460.727 119.652C465.229 118.607 469.731 117.402 474.314 116.518C477.449 115.875 483.72 115.554 485.327 113.705C490.553 107.839 478.735 106.955 475.52 106.875C464.908 106.473 454.296 106.714 443.684 106.473C435.404 106.313 421.175 106.152 418.682 108.241C414.1 112.179 412.974 121.902 412.09 127.446C411.125 133.554 414.341 134.839 417.476 129.295Z" fill="#153A23"/>
<path d="M400.835 169.554C401.639 167.062 402.684 164.732 403.971 162.402C404.292 161.839 404.131 161.036 403.569 160.714C403.006 160.393 402.202 160.554 401.88 161.116C400.594 163.607 399.469 166.179 398.584 168.83C398.423 169.473 398.825 170.116 399.469 170.357C399.951 170.598 400.594 170.196 400.835 169.554Z" fill="#227B3D"/>
<path d="M405.739 172.125C406.382 169.473 407.508 166.902 409.035 164.652C409.357 164.089 409.196 163.286 408.553 162.964C407.99 162.643 407.186 162.804 406.865 163.446C405.176 165.857 403.971 168.589 403.327 171.482C403.167 172.125 403.569 172.768 404.212 173.009C404.855 173.17 405.578 172.768 405.739 172.125Z" fill="#227B3D"/>
<path d="M411.206 174.134C411.206 173.973 411.206 173.973 411.206 174.134C411.206 173.973 411.206 173.893 411.206 173.812C411.206 173.732 411.286 173.491 411.286 173.33C411.367 173.009 411.367 172.768 411.447 172.446C411.608 171.804 411.769 171.241 412.01 170.598C412.171 170.036 412.412 169.473 412.733 168.991C413.055 168.429 413.376 167.866 413.698 167.304C414.02 166.741 413.859 165.937 413.296 165.616C412.733 165.295 412.01 165.455 411.608 166.098C410 168.509 409.035 171.241 408.714 174.134C408.714 174.777 409.276 175.339 409.92 175.339C410.563 175.339 411.126 174.777 411.206 174.134Z" fill="#227B3D"/>
<path d="M416.11 177.268C416.351 174.857 416.914 172.446 417.798 170.116C417.959 169.473 417.557 168.83 416.914 168.589C416.271 168.429 415.627 168.83 415.386 169.473C414.422 171.964 413.778 174.616 413.618 177.268C413.618 177.911 414.18 178.473 414.824 178.473C415.547 178.473 416.11 177.991 416.11 177.268Z" fill="#227B3D"/>
<path d="M420.049 179.598L423.024 172.205C423.184 171.562 422.782 170.92 422.139 170.679C421.496 170.518 420.853 170.92 420.612 171.562L417.637 178.955C417.476 179.598 417.878 180.241 418.522 180.482C419.165 180.562 419.888 180.241 420.049 179.598Z" fill="#227B3D"/>
<path d="M308.786 356.705C306.535 375.509 305.088 388.768 302.837 404.92L285.875 406.527C284.91 385.312 284.026 371.973 283.463 356.303L308.786 356.705Z" fill="#39B55D"/>
<path d="M303.32 400.58C302.676 405.241 302.435 409.902 301.792 414.563C301.229 418.821 296.325 418.5 293.11 418.661C284.508 419.143 278.88 419.304 272.047 419.304C267.625 419.464 263.204 419.545 258.782 419.625C256.531 419.625 254.361 419.625 252.11 419.625C250.663 419.625 247.447 419.786 246.402 419.304C243.749 418.018 243.829 412.473 246.804 411.429C251.949 409.661 257.978 409.902 263.365 409.098C269.073 408.375 274.62 406.929 280.006 404.92C282.9 403.795 285.874 402.348 288.929 402.67C290.939 402.911 292.788 403.875 294.718 404.116C296.406 404.357 298.416 403.795 299.3 402.429C299.702 401.705 300.184 401.143 300.747 400.58C302.033 399.455 303.641 398.33 303.32 400.58Z" fill="#153A23"/>
<path d="M286.598 364.42C286.357 361.687 286.357 359.036 286.598 356.304C286.598 355.661 286.035 355.098 285.392 355.098C284.749 355.098 284.186 355.661 284.186 356.304C283.945 359.036 284.025 361.687 284.186 364.42C284.106 365.062 284.508 365.705 285.231 365.786C285.875 365.866 286.518 365.464 286.598 364.741C286.598 364.741 286.598 364.58 286.598 364.42Z" fill="#227B3D"/>
<path d="M292.145 364.5C291.663 361.929 291.663 359.277 292.145 356.625C292.306 355.982 291.904 355.339 291.261 355.098C290.618 354.937 289.975 355.339 289.733 355.982C289.171 359.036 289.171 362.089 289.733 365.143C289.894 365.786 290.618 366.187 291.261 366.027C291.904 365.866 292.306 365.223 292.145 364.5Z" fill="#227B3D"/>
<path d="M297.933 364.5C297.21 362.17 297.049 359.679 297.451 357.268C297.612 356.625 297.21 355.982 296.567 355.741C295.924 355.58 295.28 355.982 295.039 356.625C294.557 359.437 294.718 362.411 295.522 365.143C295.682 365.786 296.406 366.187 297.049 366.027C297.692 365.866 298.175 365.143 297.933 364.5Z" fill="#227B3D"/>
<path d="M303.802 365.384C302.998 363.054 302.516 360.643 302.435 358.152C302.516 357.509 302.114 356.866 301.39 356.786C300.747 356.705 300.104 357.107 300.024 357.83C300.024 357.991 300.024 358.071 300.024 358.232C300.104 360.884 300.586 363.536 301.471 366.107C301.631 366.75 302.355 367.152 302.998 366.991C303.641 366.83 303.963 366.027 303.802 365.384Z" fill="#227B3D"/>
<path d="M308.223 365.946L307.982 357.991C308.063 357.348 307.661 356.705 306.937 356.625C306.294 356.545 305.651 356.946 305.571 357.67C305.571 357.83 305.571 357.911 305.571 358.071L305.812 366.027C305.731 366.67 306.133 367.313 306.857 367.393C307.5 367.473 308.143 367.071 308.223 366.348C308.223 366.188 308.223 366.027 308.223 365.946Z" fill="#227B3D"/>
<path d="M275.504 174.777C284.186 172.205 292.708 170.196 301.551 169.955C312.565 169.634 323.418 172.446 332.824 178.071C339.737 182.411 346.008 187.795 351.233 194.063C352.198 195.027 353.726 195.027 354.69 194.063C355.655 193.098 355.655 191.571 354.69 190.607C345.526 180 334.029 171.321 320.524 167.384C310.073 164.411 299.22 164.491 288.608 166.42C283.784 167.384 278.961 168.589 274.218 170.036C271.243 171 272.529 175.741 275.504 174.777Z" fill="#307549"/>
<path d="M461.049 103.741C448.267 108.482 432.751 106.473 421.496 93.6965C414.743 85.9822 412.975 75.7768 414.904 65.8929C420.773 35.9197 464.747 28.3661 479.861 55.6072C491.759 77.2232 479.057 97.0715 461.049 103.741Z" fill="#BBD1CE"/>
<path d="M142.375 175.018H143.098L143.5 175.098C143.822 175.098 143.42 175.098 143.339 175.098C143.822 175.259 144.304 175.259 144.786 175.42C145.269 175.58 145.671 175.741 146.073 175.902C146.394 175.982 145.59 175.661 145.992 175.821L146.314 175.982C146.555 176.063 146.796 176.223 147.037 176.304C147.439 176.545 147.841 176.786 148.243 177.027L148.484 177.188C148.886 177.509 148.163 176.946 148.404 177.107C148.645 177.268 148.726 177.429 148.967 177.589C149.369 177.911 149.69 178.232 150.012 178.634L150.173 178.875C150.414 179.196 150.253 178.955 150.092 178.795C150.253 179.036 150.414 179.196 150.575 179.438C151.218 180.563 152.745 180.964 153.951 180.321C155.157 179.679 155.478 178.152 154.835 176.946C152.102 172.848 147.52 170.277 142.535 170.116C141.169 170.116 140.124 171.241 140.043 172.607C140.043 173.893 141.088 174.938 142.375 175.018Z" fill="#32142A"/>
<path d="M142.053 180.964C141.973 181.045 141.973 181.125 141.892 181.205C141.41 182.25 140.365 184.902 141.169 185.946C141.973 186.991 143.5 186.67 144.384 185.786C145.671 184.339 145.671 182.17 144.384 180.723C143.982 180.241 143.339 180 142.696 180.241C142.455 180.482 142.214 180.723 142.053 180.964Z" fill="#32142A"/>
<path d="M145.269 192.134C147.278 190.848 148.886 188.92 149.771 186.67C149.931 186.188 149.61 185.786 149.208 185.625C148.726 185.545 148.324 185.786 148.163 186.188L148.082 186.268L148.002 186.348L147.841 186.67C147.761 186.911 147.6 187.152 147.439 187.393C147.278 187.634 147.198 187.875 147.037 188.036L146.796 188.357C146.877 188.196 146.716 188.438 146.716 188.438L146.635 188.598C146.314 189 145.912 189.402 145.51 189.723L145.188 189.964L145.027 190.125C145.108 190.045 145.028 190.125 144.947 190.125C144.706 190.286 144.545 190.446 144.304 190.607C143.902 190.848 143.661 191.33 143.902 191.732C144.143 192.134 144.626 192.375 145.027 192.134C145.188 192.134 145.188 192.054 145.269 192.134Z" fill="#32142A"/>
<path d="M148.565 193.741C149.61 193.098 150.575 192.295 151.298 191.33C151.459 191.17 151.459 190.929 151.378 190.687C151.298 190.446 151.137 190.286 150.977 190.205C150.816 190.125 150.575 190.045 150.333 190.125C150.092 190.205 149.931 190.366 149.851 190.527L149.771 190.687L149.931 190.527C149.529 191.009 149.047 191.491 148.565 191.893L148.726 191.732C148.404 191.973 148.082 192.214 147.761 192.375C147.359 192.616 147.198 193.179 147.439 193.58C147.6 193.902 148.163 194.062 148.565 193.741Z" fill="#32142A"/>
<path d="M462.657 81.3214C457.431 83.4107 452.849 85.9821 447.704 88.0714C443.523 83.9732 438.459 81.5625 434.278 77.3839C434.52 78.1875 434.037 76.5803 434.278 77.3839C435.404 72.0803 436.69 66.6161 437.816 61.2321C442.8 60.0268 446.82 58.5 451.804 57.4553L451.161 57.375C455.743 60.75 460.004 62.5982 464.506 65.9732C464.104 65.0893 464.908 66.9375 464.506 65.9732C463.702 70.9553 463.461 76.3393 462.657 81.3214C462.416 82.6071 460.727 83.7321 462.094 84.0536C463.3 84.375 464.908 83.6518 465.149 82.3661L467.48 67.5803C467.722 66.5357 467.239 65.4107 466.355 64.8482L458.878 59.3036L454.135 55.7678C453.733 55.4464 453.331 55.125 452.929 54.8839C451.724 54.0803 450.196 54.6428 448.91 54.9643C444.649 56.0089 440.469 57.6161 436.208 58.6607C435.404 58.9018 434.68 59.5446 434.52 60.3482L432.51 70.2321L431.384 75.5357C431.223 76.0178 431.143 76.5 431.143 76.9821C431.143 78.9107 433.876 80.5982 435.243 81.6428C438.62 84.2946 442.318 86.7053 445.453 89.7589C446.096 90.4018 446.98 90.6428 447.865 90.4018L463.541 84.1339C464.827 83.7321 465.551 82.4464 465.229 81.0803C464.827 79.875 463.863 80.8393 462.657 81.3214Z" fill="#153A23"/>
<path d="M462.094 83.0893C462.335 83.1696 462.978 83.491 462.094 83.0893L462.657 83.3303C465.39 84.6964 467.963 86.5446 470.696 87.991C471.822 88.6339 473.028 89.1964 474.233 89.5982C474.877 89.8393 479.7 90.4018 478.012 89.1964C476.484 88.1518 473.188 86.3035 471.259 85.0178C468.686 83.3303 466.194 81.4018 463.863 79.3928C466.837 81.9643 463.461 81.9642 461.773 82.9285C461.933 83.0089 462.014 83.0893 462.094 83.0893Z" fill="#153A23"/>
<path d="M443.122 102.214C444.649 97.5535 446.82 93.2946 448.508 88.7143C448.99 87.5089 447.945 89.2768 446.739 89.0357C445.373 88.7143 445.212 87.1071 444.729 88.3928C443.041 92.9732 442.398 96.8303 440.871 101.491C440.469 102.696 440.067 103.902 441.273 104.223C442.478 104.545 442.318 104.062 442.72 102.777L443.122 102.214Z" fill="#153A23"/>
<path d="M432.831 75.2142C431.947 75.3749 431.143 75.616 430.259 76.0178C428.49 76.5803 426.722 76.9017 424.873 76.9821C423.586 77.1428 422.3 77.3035 421.014 77.4642C420.129 77.5446 418.602 77.9464 417.718 78.1071C416.833 78.2678 415.949 78.5892 417.316 79.3928C417.718 79.5535 418.12 79.6339 418.522 79.5535C421.255 79.5535 423.988 79.5535 426.722 79.7946C429.375 80.116 432.108 80.116 434.841 79.7946C436.128 79.6339 432.912 78.1071 432.59 77.2232C432.269 76.3392 434.198 74.9732 432.831 75.2142Z" fill="#153A23"/>
<path d="M437.414 58.5804C437.253 58.5 437.092 59.0625 436.931 58.9822C436.931 58.9822 437.494 58.6608 437.253 58.5C437.173 58.5 437.092 59.0625 436.931 58.9822C436.529 58.8215 436.208 58.6608 435.806 58.4197C434.118 57.5358 432.51 56.4911 430.822 55.6072C429.133 54.7233 427.606 53.9197 425.998 53.1161C425.355 52.7947 422.943 51.509 422.782 52.3125C422.782 52.9554 423.023 53.5983 423.506 54C424.792 55.2054 426.239 56.4108 427.686 57.4554C429.053 58.6608 430.58 59.7054 432.108 60.75C433.796 61.7947 434.198 62.6786 436.047 63.3215C437.253 63.7233 434.922 62.5179 435.243 61.3125C435.645 59.9465 438.7 59.0625 437.414 58.5804Z" fill="#153A23"/>
<path d="M453.171 57.1339C453.814 56.0089 454.376 55.6071 454.618 54.4018C455.261 51.9107 456.225 49.5803 457.351 47.25C458.155 45.7232 458.878 44.1161 459.602 42.4286C459.763 41.8661 460.084 40.9018 459.602 40.4196C459.28 40.0982 458.637 40.2589 458.316 40.5C457.672 40.9821 457.19 41.625 456.869 42.3482C455.582 44.5982 454.216 46.8482 453.01 49.1786C452.447 50.3036 451.965 51.4286 451.322 52.4732C450.678 53.5178 450.035 54.5625 449.392 55.6071C448.749 56.6518 450.518 55.2053 451.723 55.8482C452.929 56.4911 452.447 58.2589 453.171 57.1339Z" fill="#153A23"/>
<path d="M466.355 69.0268C469.49 67.4197 472.706 65.8929 475.922 64.4465L475.6 64.6072C476.967 64.2054 481.871 61.5536 481.227 60.3482C480.906 59.7054 477.047 60.8304 476.002 61.3125C474.957 61.7947 471.661 62.759 470.455 63.1607C468.284 63.8036 465.953 63.8036 463.943 64.8482C462.818 65.4107 464.747 65.5715 465.39 66.6965C466.033 67.8215 465.149 69.6697 466.355 69.0268Z" fill="#153A23"/>
<path d="M427.043 109.446L427.124 106.071L425.355 108.402C427.525 108.08 429.776 107.679 431.947 107.277L431.304 107.357C431.465 107.357 431.545 107.357 431.706 107.357L431.063 107.277C431.465 107.357 431.224 107.196 430.42 106.875C430.259 106.714 430.178 106.554 430.098 106.393C429.937 105.991 430.098 106.393 430.098 106.473C430.178 106.795 430.259 107.116 430.339 107.438L430.741 109.527C431.143 110.813 432.429 111.616 433.716 111.214C435.002 110.813 435.725 109.527 435.404 108.161C435.163 107.116 435.002 106.071 434.761 105.027C434.6 104.223 434.118 103.58 433.555 103.098C432.671 102.455 431.625 102.295 430.58 102.536C428.41 102.857 426.239 103.259 424.069 103.58C423.586 103.741 423.104 103.982 422.782 104.464C422.461 104.866 422.3 105.429 422.22 105.991L422.139 109.366C422.139 110.652 423.265 111.777 424.551 111.777C425.918 111.777 426.963 110.732 427.043 109.446Z" fill="#153A23"/>
<path d="M466.274 105.75C466.194 105.75 466.194 105.67 466.114 105.67L466.516 106.152C466.516 106.071 466.435 106.071 466.435 105.991L466.676 106.554C466.676 106.473 466.676 106.473 466.596 106.393L466.676 107.036C466.676 106.955 466.676 106.875 466.676 106.795L466.596 107.437C466.596 107.357 466.676 107.277 466.676 107.196L466.435 107.759C466.435 107.679 466.516 107.679 466.516 107.598L466.114 108.08C466.194 108 466.274 107.92 466.274 107.92L465.792 108.321C465.873 108.241 466.033 108.161 466.114 108.161L465.551 108.402C465.712 108.321 465.873 108.321 466.033 108.321L465.39 108.402C466.194 108.321 466.998 108.321 467.882 108.321C468.686 108.321 469.41 108.321 470.214 108.402L469.571 108.321C469.812 108.402 470.133 108.402 470.374 108.562L469.812 108.321C469.973 108.402 470.133 108.482 470.294 108.643L469.812 108.241C469.973 108.321 470.053 108.482 470.133 108.562L469.731 108.08C469.812 108.241 469.892 108.402 469.973 108.562L469.731 108C469.812 108.161 469.812 108.241 469.812 108.402L469.731 107.759C469.731 107.92 469.731 108 469.731 108.161L469.812 107.518C469.812 107.598 469.812 107.679 469.731 107.759L469.973 107.196C469.973 107.277 469.892 107.357 469.812 107.437C469.169 108.643 469.49 110.089 470.696 110.812C471.902 111.455 473.349 111.054 474.073 109.929C475.037 108.321 474.716 106.232 473.269 104.946C471.982 103.741 470.294 103.58 468.606 103.58H466.516C465.712 103.58 464.988 103.661 464.184 103.821C463.059 104.143 462.094 105.107 461.773 106.232C461.451 107.357 461.772 108.643 462.657 109.446C463.139 109.848 463.702 110.17 464.425 110.17C465.712 110.17 466.837 109.045 466.837 107.759C466.837 107.116 466.596 106.473 466.114 106.071L466.274 105.75Z" fill="#153A23"/>
<path d="M253.718 416.571C251.949 418.018 252.592 421.071 254.522 422.116C256.129 423.08 257.978 422.679 259.667 422.518L261.998 422.277C262.882 422.277 263.767 422.116 264.651 421.955C266.098 421.554 267.063 420.348 267.063 418.902C267.063 418.179 267.063 417.375 267.063 416.652C267.063 415.286 265.937 414.241 264.651 414.241C263.284 414.241 262.239 415.366 262.239 416.652V418.259C262.239 418.42 262.239 418.58 262.239 418.661C262.239 418.982 262.239 418.58 262.32 418.42L263.124 417.375C263.526 417.214 263.606 417.214 263.445 417.214C263.284 417.214 264.088 417.134 263.686 417.214C262.561 417.295 261.355 417.455 260.229 417.536C259.184 417.696 258.059 417.777 257.014 417.857C256.933 417.857 256.853 417.857 256.692 417.857C257.094 417.938 257.175 417.938 257.014 417.857H256.853C256.612 417.857 257.255 418.179 256.933 417.937C256.933 417.937 257.416 418.339 257.175 418.098C257.416 418.42 257.496 418.5 257.416 418.339C257.335 418.259 257.416 418.259 257.496 418.5C257.576 418.741 257.576 418.741 257.576 418.661C257.576 418.58 257.576 418.58 257.576 419.063C257.576 418.741 257.496 419.384 257.496 419.384C257.416 419.625 257.335 419.786 257.175 419.946C257.014 420.107 257.014 420.188 257.094 420.027C258.059 419.063 258.059 417.536 257.094 416.571C256.21 415.688 254.682 415.688 253.718 416.571Z" fill="#153A23"/>
<path d="M288.688 421.473H293.351C293.833 421.473 294.396 421.473 294.878 421.312C295.763 421.071 296.486 420.429 296.808 419.625C297.049 418.661 297.129 417.616 297.049 416.571C297.049 415.928 296.808 415.286 296.326 414.803C295.441 413.839 293.914 413.759 292.949 414.723C292.467 415.205 292.145 415.848 292.226 416.571C292.226 417.214 292.226 417.857 292.226 418.5L292.306 417.857C292.306 417.937 292.306 417.937 292.306 418.018L292.547 417.455V417.536L292.949 417.053C292.949 417.134 292.869 417.134 292.869 417.134L293.351 416.732C293.351 416.732 293.271 416.812 293.19 416.812L293.753 416.571C293.673 416.571 293.592 416.571 293.512 416.652L294.155 416.571C293.271 416.652 292.386 416.571 291.502 416.571H288.769C288.126 416.571 287.482 416.812 287.08 417.295C286.598 417.777 286.357 418.339 286.357 419.062C286.357 420.268 287.402 421.393 288.688 421.473Z" fill="#153A23"/>
<path d="M287 408.536C289.412 410.304 291.824 412.393 294.155 414.402C294.637 414.884 295.441 414.884 295.924 414.402C296.406 413.92 296.406 413.116 295.924 412.634C293.431 410.464 290.859 408.375 288.286 406.366C287.724 406.045 286.92 406.205 286.598 406.768C286.276 407.411 286.437 408.134 287 408.536Z" fill="#227B3D"/>
<path d="M281.855 411.107C283.784 412.875 285.875 414.482 288.045 416.009C288.608 416.33 289.412 416.17 289.733 415.607C290.055 415.045 289.894 414.321 289.331 413.92C288.849 413.598 288.286 413.196 287.804 412.875C287.563 412.714 287.322 412.473 287.08 412.312L287 412.232L286.92 412.152L286.518 411.83C285.553 411.027 284.588 410.223 283.704 409.42C283.222 408.937 282.418 408.937 282.016 409.42C281.614 409.902 281.373 410.625 281.855 411.107Z" fill="#227B3D"/>
<path d="M425.274 113.705L430.822 125.116C431.143 125.679 431.947 125.92 432.51 125.598C433.073 125.277 433.314 124.473 432.912 123.911L427.365 112.58C427.043 112.018 426.239 111.777 425.676 112.179C425.114 112.42 424.953 113.143 425.274 113.705Z" fill="#227B3D"/>
<path d="M431.384 111.696C432.027 113.384 432.831 114.991 433.716 116.518C434.68 118.286 435.645 119.973 436.449 121.821C436.771 122.384 437.574 122.625 438.137 122.223C438.7 121.902 438.941 121.098 438.539 120.536C437.735 118.768 436.771 117.08 435.886 115.393C435.484 114.589 435.002 113.786 434.6 112.902C434.439 112.5 434.198 112.098 434.037 111.777L433.957 111.536C433.796 111.214 434.037 111.616 433.957 111.455C433.876 111.295 433.796 111.134 433.796 110.973C433.635 110.33 432.912 109.929 432.269 110.089C431.625 110.33 431.223 111.054 431.384 111.696Z" fill="#227B3D"/>
<path d="M268.027 38.8125C274.459 31.2589 281.533 24.1875 289.01 17.6786C290.216 16.6339 288.447 14.9464 287.322 15.9911C279.765 22.5 272.771 29.6518 266.339 37.2053C265.294 38.3303 266.982 40.0982 268.027 38.8125Z" fill="#EFB086"/>
<path d="M273.173 41.4643C278.639 36.0804 283.865 30.375 289.573 25.3125C290.778 24.2679 289.01 22.5 287.804 23.625C282.096 28.7679 276.871 34.3929 271.404 39.8572C270.278 40.8214 272.047 42.5893 273.173 41.4643Z" fill="#EFB086"/>
<path d="M89.4765 291.295C85.7785 294.83 86.6628 302.223 93.0137 300.455C102.339 297.804 95.8275 285.268 89.4765 291.295Z" fill="white"/>
<path d="M116.81 81.8838C114.961 83.6517 115.443 87.3481 118.578 86.4642C123.322 85.1785 120.026 78.9106 116.81 81.8838Z" fill="white"/>
<path d="M274.298 111.616C275.343 107.839 276.71 104.143 278.318 100.527C278.559 99.9642 279.122 99.3214 279.604 99.5625C280.086 99.8035 280.086 100.527 279.925 101.009C279.122 104.384 278.318 107.839 277.514 111.214C280.729 110.893 283.865 111.375 286.839 112.661C287.08 112.741 287.241 113.062 287.08 113.304C287.08 113.384 287 113.464 286.92 113.545C285.151 114.67 283.061 115.232 280.971 115.152C280.247 115.071 279.363 114.991 278.8 115.554C278.478 115.955 278.318 116.357 278.237 116.839C277.514 119.812 276.469 122.625 275.022 125.277C274.861 125.518 274.539 125.679 274.218 125.518C274.057 125.437 273.976 125.277 273.976 125.116C273.414 122.464 274.539 119.491 274.459 116.679C274.459 116.357 274.378 116.036 274.218 115.795C273.976 115.473 273.574 115.312 273.173 115.312C270.198 114.67 267.224 113.786 264.41 112.661C263.606 112.339 262.722 111.536 263.284 110.893C263.445 110.732 263.686 110.652 264.008 110.571C265.776 110.25 267.625 110.25 269.394 110.571L274.298 111.616Z" fill="white"/>
<path d="M300.988 78.0267C298.094 80.7589 298.818 86.5446 303.802 85.1785C311.118 83.0892 305.973 73.366 300.988 78.0267Z" fill="white"/>
<path d="M362.488 358.071C358.79 361.607 359.675 369 366.026 367.232C375.431 364.58 368.839 352.045 362.488 358.071Z" fill="white"/>
<path d="M376.396 324.321C374.547 326.089 375.029 329.786 378.165 328.902C382.908 327.616 379.612 321.348 376.396 324.321Z" fill="white"/>
<path d="M410.643 330.027C408.955 325.205 407.669 320.304 406.704 315.321C406.543 314.518 406.624 313.473 407.427 313.312C408.231 313.152 408.633 313.955 408.875 314.679C410.482 318.857 412.171 323.116 413.778 327.295C416.914 324.643 420.692 322.795 424.712 321.911C425.033 321.83 425.435 322.071 425.435 322.393C425.435 322.554 425.435 322.634 425.355 322.795C424.31 325.286 422.541 327.375 420.21 328.821C419.406 329.304 418.441 329.866 418.2 330.83C418.12 331.473 418.28 332.116 418.522 332.679C419.969 336.295 420.853 340.152 421.335 344.009C421.335 344.411 421.094 344.813 420.692 344.813C420.451 344.813 420.29 344.732 420.129 344.652C417.557 342.321 416.592 338.223 414.502 335.33C414.261 335.009 413.939 334.688 413.618 334.527C413.135 334.446 412.573 334.527 412.171 334.768C408.553 336.214 404.775 337.5 400.916 338.384C399.871 338.625 398.263 338.384 398.424 337.339C398.504 337.018 398.665 336.777 398.906 336.536C400.514 334.848 402.443 333.563 404.614 332.598L410.643 330.027Z" fill="white"/>
<path d="M429.776 295.312C427.927 297.08 428.41 300.777 431.545 299.893C436.288 298.527 432.992 292.339 429.776 295.312Z" fill="white"/>
<path d="M79.8294 335.25C80.151 331.634 80.7941 328.098 81.598 324.643C81.7588 324.08 82.0804 323.437 82.6431 323.598C83.2059 323.759 83.2059 324.402 83.2059 324.884C83.0451 328.098 82.8843 331.312 82.6431 334.446C85.4568 333.643 88.4313 333.562 91.3255 334.205C91.5666 334.286 91.7274 334.446 91.7274 334.687C91.7274 334.768 91.647 334.929 91.5666 335.009C90.2 336.295 88.3509 337.179 86.5019 337.42C85.7784 337.42 85.1353 337.661 84.6529 338.143C84.4117 338.545 84.3313 338.946 84.3313 339.429C84.1706 342.161 83.6882 344.893 82.8039 347.464C82.7235 347.705 82.4019 347.866 82.1608 347.786C82 347.705 81.9196 347.625 81.8392 347.464C80.8745 345.214 81.4372 342.321 80.9549 339.83C80.9549 339.509 80.7941 339.268 80.6333 339.027C80.3117 338.786 79.9902 338.705 79.5882 338.705C76.7745 338.625 74.0411 338.304 71.2274 337.821C70.5039 337.661 69.5392 337.018 69.9411 336.455C70.1019 336.295 70.2627 336.134 70.5039 336.054C72.0313 335.491 73.7196 335.17 75.3274 335.25H79.8294Z" fill="white"/>
</svg>
