<svg width="82" height="75" viewBox="0 0 82 75" fill="none" xmlns="http://www.w3.org/2000/svg">
<path d="M26.24 3.0462C20.418 5.59834 15.252 9.71469 12.136 14.7366C4.34598 27.3327 4.42798 46.4326 17.63 55.4062C33.62 66.2734 61.91 60.7575 63.796 38.5292C65.682 16.1362 50.266 -7.32702 26.24 3.0462Z" fill="#F7BC28"/>
<path d="M28.946 9.55002C24.6 11.4435 20.828 14.4896 18.532 18.1944C12.71 27.5797 12.792 41.7399 22.632 48.4084C34.522 56.4765 55.514 52.3601 56.908 35.8947C58.22 19.3469 46.822 1.8936 28.946 9.55002Z" fill="#FBFAF7"/>
<path d="M48.708 52.6893C52.726 57.7936 55.186 60.2634 58.958 63.3918C61.664 65.6146 64.37 67.8375 66.994 70.0603C69.208 71.8715 71.832 73.8474 74.62 73.3534C77.572 72.8594 79.622 69.4017 78.638 66.5202C78.31 65.5323 77.654 64.6267 76.916 63.8034C71.832 57.2996 65.928 51.4544 59.368 46.3501L48.708 52.6893Z" fill="#F7BC28"/>
<path d="M63.14 66.7672L72.57 58.4521L74.374 60.5103L65.19 68.4137L63.14 66.7672Z" fill="#E48929"/>
<path d="M66.4199 69.5664L75.3579 61.8276L76.9159 63.8035L68.3059 71.1306L66.4199 69.5664Z" fill="#E48929"/>
</svg>
