<svg width="62" height="75" viewBox="0 0 62 75" fill="none" xmlns="http://www.w3.org/2000/svg">
<g clip-path="url(#clip0_1_1227)">
<path d="M4.60606 13.9125C1.95347 15.4449 0.263427 18.2487 0.140311 21.342C-0.279402 31.8026 -0.67673 53.9098 13.7782 65.1308L26.1681 73.4913C28.9942 75.3983 32.6485 75.4949 35.5809 73.7524C39.4142 71.4764 44.546 68.0482 47.5119 64.4895C47.6463 64.3249 47.7861 64.1716 47.9316 64.0184C49.8119 62.0829 63.9702 46.5994 61.771 21.0696C61.5191 18.1466 59.8795 15.5243 57.3723 14.0543L35.4354 1.21C32.7044 -0.390574 29.3411 -0.401925 26.6046 1.1873L4.60606 13.9125Z" fill="#F7BC28"/>
<path d="M11.4217 19.7631C9.45751 20.8982 8.20393 22.9812 8.10881 25.2742C7.79541 33.0331 7.50441 49.4248 18.2211 57.7512L27.41 63.9548C29.5085 65.3681 32.2171 65.4418 34.3884 64.1478C37.2313 62.4621 41.0367 59.9193 43.236 57.28C43.3367 57.1609 43.4374 57.0417 43.5493 56.9338C44.9428 55.4979 55.4021 43.9022 53.8128 25.0813C53.712 23.861 50.7237 20.2114 49.7052 19.3828L34.2877 10.3412C32.2619 9.15498 29.7716 9.1493 27.7402 10.3242L11.4217 19.7631Z" fill="#E48929"/>
<path d="M30.9973 9.44433V37.4998H53.1637C53.1637 37.4998 54.7419 29.6729 53.8185 25.0811C53.8185 25.0811 53.5611 21.9254 49.7109 19.3826L34.2879 10.3411C34.2879 10.3411 32.7209 9.38757 30.9973 9.44433Z" fill="#FBFAF7"/>
<path d="M30.9973 37.4999L30.9917 65.0615C30.9917 65.0615 29.2121 65.1637 26.9792 63.654L19.5922 58.6706C19.5922 58.6706 13.3302 54.8849 11.2932 48.6187C11.2932 48.6187 8.7245 42.8578 8.37196 36.9834L30.9973 37.4999Z" fill="#FBFAF7"/>
</g>
<defs>
<clipPath id="clip0_1_1227">
<rect width="62" height="75" fill="white"/>
</clipPath>
</defs>
</svg>
