<svg width="290" height="183" viewBox="0 0 290 183" fill="none" xmlns="http://www.w3.org/2000/svg">
<g clip-path="url(#clip0_1_1281)">
<path d="M87.2078 130.741C87.2078 122.803 77.2047 125.761 77.2047 119.724C77.2047 118.003 78.1387 116.856 79.6151 116.856C82.4171 116.856 81.7844 121.837 84.6166 121.837C85.9122 121.837 86.6655 120.961 86.6655 119.663C86.6655 117.732 84.3756 115.769 80.4888 115.437V113.656C80.4888 113.294 80.2779 113.053 79.9766 113.053H79.2234C78.9221 113.053 78.7112 113.294 78.7112 113.656V115.437C74.9148 115.709 72.3236 118.154 72.3236 121.444C72.3236 129.021 82.4473 127.119 82.4473 132.281C82.4473 134.213 81.3023 135.39 79.7657 135.39C76.9938 135.39 77.1143 130.289 73.9808 130.289C72.9564 130.289 72.0223 131.013 72.0223 132.492C72.0223 134.303 74.3423 136.628 78.5003 136.96V139.827C78.5003 140.22 78.681 140.461 78.9823 140.461H79.7657C80.067 140.461 80.2478 140.22 80.2478 139.827V136.96C84.5262 136.688 87.2078 134.122 87.2078 130.741Z" fill="#163A24"/>
<path d="M96.9211 115.045C92.5221 115.045 89.2681 117.852 89.2681 121.927C89.2681 126.878 92.6426 128.991 96.2282 128.991C98.1565 128.991 99.6328 128.387 100.567 127.3C100.416 131.949 99.3918 135.269 96.9814 135.269C94.1491 135.269 94.9326 130.138 91.799 130.138C90.5938 130.138 89.5995 130.923 89.5995 132.281C89.5995 134.726 92.5824 137.08 96.6801 137.08C102.495 137.08 105.237 132.311 105.237 125.64C105.237 119.301 101.862 115.045 96.9211 115.045ZM97.4936 127.18C95.0531 127.18 93.6369 123.497 93.6369 120.418C93.6369 118.154 94.6915 116.856 96.2884 116.856C98.8495 116.856 100.175 120.207 100.507 123.98C100.446 125.882 99.3617 127.18 97.4936 127.18Z" fill="#163A24"/>
<path d="M116.431 122.833C114.684 122.833 113.117 123.437 112.032 124.523C112.304 119.422 113.84 116.856 115.889 116.856C118.631 116.856 117.787 121.988 121.101 121.988C122.276 121.988 123.271 121.354 123.271 119.844C123.271 117.581 120.77 115.045 116.19 115.045C110.375 115.045 107.392 120.327 107.392 126.485C107.392 132.824 110.978 137.08 115.708 137.08C119.956 137.08 123.391 134.303 123.391 130.168C123.391 125.127 120.017 122.833 116.431 122.833ZM116.251 135.269C113.84 135.269 112.394 132.039 112.062 127.844C112.153 126.093 113.358 124.614 115.166 124.614C117.606 124.614 118.992 128.357 118.992 131.617C118.992 133.911 117.908 135.269 116.251 135.269Z" fill="#163A24"/>
<path d="M133.377 115.045C128.978 115.045 125.724 117.852 125.724 121.927C125.724 126.878 129.099 128.991 132.684 128.991C134.613 128.991 136.089 128.387 137.023 127.3C136.872 131.949 135.848 135.269 133.438 135.269C130.605 135.269 131.389 130.138 128.255 130.138C127.05 130.138 126.056 130.923 126.056 132.281C126.056 134.726 129.039 137.08 133.136 137.08C138.951 137.08 141.693 132.311 141.693 125.64C141.693 119.301 138.319 115.045 133.377 115.045ZM133.95 127.18C131.509 127.18 130.093 123.497 130.093 120.418C130.093 118.154 131.148 116.856 132.745 116.856C135.306 116.856 136.631 120.207 136.963 123.98C136.903 125.882 135.818 127.18 133.95 127.18Z" fill="#163A24"/>
<path d="M160.12 137.08C165.032 137.08 168.406 134.062 168.406 128.659V118.244C168.406 116.977 169.702 116.705 169.702 115.95V115.83C169.702 115.528 169.431 115.347 169.009 115.347H165.574C165.182 115.347 164.881 115.528 164.881 115.83V115.95C164.881 116.705 166.086 116.977 166.086 118.244V128.598C166.086 133.488 163.374 135.118 161.115 135.118C157.77 135.118 155.752 132.854 155.752 128.598V118.244C155.752 116.977 157.047 116.705 157.047 115.95V115.83C157.047 115.528 156.776 115.347 156.354 115.347H150.69C150.268 115.347 149.997 115.528 149.997 115.83V115.95C149.997 116.705 151.172 116.977 151.172 118.244V128.598C151.172 134.062 154.848 137.08 160.12 137.08Z" fill="#163A24"/>
<path d="M180.45 137.08C184.819 137.08 188.585 134.846 188.585 130.922C188.585 122.229 176.412 126.394 176.412 119.904C176.412 118.184 177.527 116.795 179.817 116.795C184.216 116.795 183.101 122.168 186.355 122.168C187.651 122.168 188.283 121.444 188.283 120.297C188.314 117.791 184.969 115.075 179.907 115.075C174.936 115.075 171.923 117.731 171.923 121.353C171.953 130.288 184.126 125.881 184.126 132.311C184.126 134.152 182.74 135.359 180.63 135.359C175.539 135.359 176.352 129.866 173.339 129.805C172.104 129.805 171.531 130.59 171.531 131.647C171.531 134.061 174.725 137.08 180.45 137.08Z" fill="#163A24"/>
<path d="M191.568 136.778H199.854C206.724 136.778 211.454 132.552 211.454 126.093C211.454 119.905 206.422 115.347 198.438 115.347H191.568C191.147 115.347 190.875 115.528 190.875 115.83V115.95C190.875 116.705 192.051 116.977 192.051 118.244V133.881C192.051 135.148 190.875 135.42 190.875 136.175V136.265C190.875 136.597 191.147 136.778 191.568 136.778ZM198.77 134.937C197.384 134.937 196.54 134.001 196.54 132.341V118.456C196.54 117.49 197.082 117.188 197.745 117.188H198.318C203.108 117.188 206.724 122.078 206.724 128.025C206.724 132.462 203.982 134.937 200.306 134.937H198.77Z" fill="#163A24"/>
<path d="M49.2637 51.8814H47.5689V39.9015H43.3696V38.4111H53.4442V39.9015H49.2637V51.8814Z" fill="#163A24"/>
<path d="M65.9319 45.0333C65.9319 45.2345 65.9193 45.4986 65.8942 45.8256C65.8816 46.1527 65.8691 46.4357 65.8566 46.6746H65.9319C66.0072 46.5739 66.1202 46.4293 66.2709 46.2407C66.4215 46.052 66.5721 45.8634 66.7228 45.6747C66.886 45.4735 67.0241 45.3099 67.1371 45.1842L70.3572 41.7694H72.2968L68.2105 46.0897L72.5793 51.8816H70.5832L67.0806 47.1651L65.9319 48.165V51.8816H64.2936V37.5435H65.9319V45.0333Z" fill="#163A24"/>
<path d="M78.2508 41.5806C79.1171 41.5806 79.8577 41.7692 80.4729 42.1465C81.1005 42.5239 81.5776 43.0584 81.9041 43.7502C82.243 44.4293 82.4125 45.228 82.4125 46.1461V47.146H75.5015C75.5265 48.2905 75.8153 49.1647 76.3677 49.7684C76.9327 50.3596 77.7173 50.6551 78.7216 50.6551C79.3619 50.6551 79.9268 50.5985 80.4164 50.4853C80.9185 50.3596 81.4333 50.1835 81.9606 49.9571V51.4097C81.4458 51.6361 80.9374 51.7996 80.4352 51.9003C79.933 52.0135 79.3367 52.0701 78.6463 52.0701C77.6921 52.0701 76.8447 51.8751 76.1041 51.4852C75.3759 51.0953 74.8047 50.5167 74.3904 49.7495C73.9887 48.9697 73.7878 48.0202 73.7878 46.9008C73.7878 45.794 73.9698 44.8444 74.3339 44.052C74.7106 43.2596 75.2315 42.6496 75.8969 42.222C76.5749 41.7944 77.3595 41.5806 78.2508 41.5806ZM78.232 42.9389C77.4411 42.9389 76.8134 43.1967 76.3489 43.7124C75.8969 44.2155 75.627 44.9198 75.5391 45.8254H80.68C80.6674 44.9701 80.4666 44.2784 80.0775 43.7502C79.6882 43.2094 79.0731 42.9389 78.232 42.9389Z" fill="#163A24"/>
<path d="M93.6965 41.5996C94.9269 41.5996 95.8365 41.8701 96.4269 42.4108C97.0172 42.9516 97.3119 43.8133 97.3119 44.9955V51.8816H96.1067L95.7866 50.4478H95.7113C95.2716 51.0012 94.8074 51.4099 94.3178 51.674C93.8409 51.9382 93.1755 52.0702 92.3218 52.0702C91.4053 52.0702 90.6458 51.8313 90.0432 51.3533C89.4406 50.8628 89.1393 50.1018 89.1393 49.0705C89.1393 48.0643 89.5348 47.2908 90.3257 46.75C91.1166 46.1966 92.3344 45.8947 93.9789 45.8445L95.6924 45.7879V45.1841C95.6924 44.3415 95.5107 43.7567 95.1463 43.4296C94.782 43.1026 94.2679 42.9391 93.6024 42.9391C93.0751 42.9391 92.5729 43.0209 92.0958 43.1844C91.6188 43.3353 91.1731 43.5114 90.7589 43.7126L90.2503 42.4674C90.6897 42.2285 91.2108 42.0272 91.8134 41.8637C92.416 41.6876 93.0436 41.5996 93.6965 41.5996ZM94.1859 46.9953C92.9307 47.0456 92.0582 47.2469 91.5686 47.599C91.0915 47.9511 90.8529 48.448 90.8529 49.0894C90.8529 49.6554 91.0225 50.0704 91.3615 50.3346C91.7129 50.5987 92.1586 50.7307 92.6984 50.7307C93.5521 50.7307 94.2613 50.498 94.8262 50.0327C95.3911 49.5547 95.6736 48.8253 95.6736 47.8443V46.9387L94.1859 46.9953Z" fill="#163A24"/>
<path d="M104.007 52.0703C102.752 52.0703 101.748 51.6363 100.994 50.7685C100.241 49.8881 99.8645 48.5801 99.8645 46.8444C99.8645 45.1087 100.241 43.8006 100.994 42.9203C101.76 42.0272 102.771 41.5808 104.026 41.5808C104.805 41.5808 105.439 41.7254 105.928 42.0147C106.43 42.304 106.839 42.6561 107.152 43.0712H107.265C107.253 42.9077 107.227 42.6687 107.19 42.3543C107.164 42.0272 107.152 41.7694 107.152 41.5808V37.5435H108.809V51.8816H107.472L107.227 50.5233H107.152C106.851 50.9509 106.449 51.3156 105.947 51.6175C105.445 51.9193 104.798 52.0703 104.007 52.0703ZM104.271 50.693C105.338 50.693 106.085 50.4037 106.512 49.8252C106.952 49.234 107.171 48.3473 107.171 47.1651V46.8633C107.171 45.6056 106.964 44.6434 106.55 43.9768C106.135 43.2976 105.37 42.958 104.252 42.958C103.361 42.958 102.689 43.3164 102.237 44.0334C101.798 44.7377 101.578 45.6872 101.578 46.8821C101.578 48.0895 101.798 49.0265 102.237 49.6931C102.689 50.3598 103.367 50.693 104.271 50.693Z" fill="#163A24"/>
<path d="M114.237 51.8812L110.415 41.769H112.185L114.332 47.7307C114.431 48.0074 114.539 48.3155 114.652 48.6551C114.765 48.9947 114.864 49.3218 114.953 49.6362C115.041 49.938 115.104 50.1958 115.141 50.4097H115.217C115.267 50.1958 115.335 49.9317 115.424 49.6173C115.524 49.3029 115.631 48.9758 115.744 48.6363C115.869 48.2967 115.976 47.9948 116.064 47.7307L118.211 41.769H119.981L116.139 51.8812H114.237Z" fill="#163A24"/>
<path d="M125.401 41.5996C126.631 41.5996 127.541 41.8701 128.131 42.4108C128.721 42.9516 129.016 43.8133 129.016 44.9955V51.8816H127.811L127.491 50.4478H127.415C126.976 51.0012 126.512 51.4099 126.022 51.674C125.545 51.9382 124.88 52.0702 124.026 52.0702C123.11 52.0702 122.35 51.8313 121.747 51.3533C121.145 50.8628 120.843 50.1018 120.843 49.0705C120.843 48.0643 121.239 47.2908 122.03 46.75C122.821 46.1966 124.038 45.8947 125.683 45.8445L127.397 45.7879V45.1841C127.397 44.3415 127.215 43.7567 126.851 43.4296C126.486 43.1026 125.972 42.9391 125.306 42.9391C124.779 42.9391 124.277 43.0209 123.8 43.1844C123.323 43.3353 122.877 43.5114 122.463 43.7126L121.954 42.4674C122.394 42.2285 122.915 42.0272 123.517 41.8637C124.12 41.6876 124.748 41.5996 125.401 41.5996ZM125.89 46.9953C124.635 47.0456 123.762 47.2469 123.273 47.599C122.795 47.9511 122.557 48.448 122.557 49.0894C122.557 49.6554 122.727 50.0704 123.065 50.3346C123.417 50.5987 123.863 50.7307 124.402 50.7307C125.256 50.7307 125.965 50.498 126.53 50.0327C127.095 49.5547 127.378 48.8253 127.378 47.8443V46.9387L125.89 46.9953Z" fill="#163A24"/>
<path d="M136.992 41.5806C138.197 41.5806 139.108 41.8761 139.723 42.4673C140.337 43.0458 140.645 43.9891 140.645 45.2972V51.8814H139.007V45.4104C139.007 43.7879 138.254 42.9766 136.747 42.9766C135.63 42.9766 134.857 43.2911 134.431 43.9199C134.004 44.5488 133.791 45.4544 133.791 46.6366V51.8814H132.134V41.7692H133.471L133.715 43.1464H133.81C134.136 42.6182 134.588 42.2283 135.165 41.9768C135.743 41.7126 136.352 41.5806 136.992 41.5806Z" fill="#163A24"/>
<path d="M147.145 50.7117C147.396 50.7117 147.653 50.6929 147.917 50.6551C148.181 50.6048 148.394 50.5545 148.557 50.5042V51.7682C148.382 51.8562 148.131 51.9255 147.804 51.9757C147.478 52.0387 147.164 52.0701 146.862 52.0701C146.335 52.0701 145.846 51.9821 145.394 51.806C144.955 51.6173 144.597 51.2966 144.32 50.8438C144.044 50.391 143.906 49.7559 143.906 48.9383V43.0521H142.475V42.2598L143.925 41.5995L144.584 39.4487H145.563V41.7692H148.482V43.0521H145.563V48.9006C145.563 49.5168 145.708 49.976 145.996 50.2778C146.297 50.5671 146.681 50.7117 147.145 50.7117Z" fill="#163A24"/>
<path d="M154.401 41.5996C155.631 41.5996 156.542 41.8701 157.132 42.4108C157.721 42.9516 158.017 43.8133 158.017 44.9955V51.8816H156.812L156.492 50.4478H156.416C155.977 51.0012 155.513 51.4099 155.023 51.674C154.546 51.9382 153.88 52.0702 153.027 52.0702C152.11 52.0702 151.351 51.8313 150.748 51.3533C150.146 50.8628 149.844 50.1018 149.844 49.0705C149.844 48.0643 150.24 47.2908 151.031 46.75C151.822 46.1966 153.039 45.8947 154.684 45.8445L156.398 45.7879V45.1841C156.398 44.3415 156.215 43.7567 155.851 43.4296C155.487 43.1026 154.972 42.9391 154.307 42.9391C153.78 42.9391 153.277 43.0209 152.801 43.1844C152.323 43.3353 151.878 43.5114 151.464 43.7126L150.955 42.4674C151.394 42.2285 151.916 42.0272 152.518 41.8637C153.121 41.6876 153.748 41.5996 154.401 41.5996ZM154.891 46.9953C153.635 47.0456 152.763 47.2469 152.274 47.599C151.796 47.9511 151.558 48.448 151.558 49.0894C151.558 49.6554 151.727 50.0704 152.066 50.3346C152.418 50.5987 152.863 50.7307 153.403 50.7307C154.256 50.7307 154.966 50.498 155.531 50.0327C156.096 49.5547 156.379 48.8253 156.379 47.8443V46.9387L154.891 46.9953Z" fill="#163A24"/>
<path d="M164.712 41.5806C165.377 41.5806 165.974 41.7063 166.501 41.9579C167.041 42.2095 167.499 42.593 167.876 43.1087H167.97L168.196 41.7692H169.514V52.0512C169.514 53.4975 169.143 54.5855 168.403 55.315C167.675 56.0445 166.539 56.4092 164.995 56.4092C163.513 56.4092 162.302 56.1954 161.36 55.7678V54.2396C162.352 54.7679 163.595 55.032 165.089 55.032C165.955 55.032 166.633 54.7742 167.123 54.2585C167.625 53.7554 167.876 53.0636 167.876 52.1832V51.7871C167.876 51.6361 167.882 51.4223 167.895 51.1456C167.907 50.8563 167.919 50.6551 167.933 50.5419H167.857C167.179 51.5607 166.137 52.0701 164.731 52.0701C163.425 52.0701 162.402 51.6109 161.662 50.6928C160.933 49.7747 160.57 48.4918 160.57 46.8442C160.57 45.2342 160.933 43.9577 161.662 43.0144C162.402 42.0585 163.419 41.5806 164.712 41.5806ZM164.938 42.9766C164.097 42.9766 163.444 43.3162 162.98 43.9954C162.515 44.662 162.283 45.6179 162.283 46.863C162.283 48.1082 162.509 49.064 162.961 49.7307C163.425 50.3847 164.097 50.7117 164.976 50.7117C165.993 50.7117 166.733 50.4413 167.198 49.9005C167.662 49.347 167.895 48.4603 167.895 47.2404V46.8442C167.895 45.4606 167.656 44.4734 167.179 43.8822C166.702 43.2785 165.955 42.9766 164.938 42.9766Z" fill="#163A24"/>
<path d="M176.618 41.5806C177.484 41.5806 178.225 41.7692 178.84 42.1465C179.468 42.5239 179.945 43.0584 180.271 43.7502C180.61 44.4293 180.779 45.228 180.779 46.1461V47.146H173.868C173.894 48.2905 174.183 49.1647 174.734 49.7684C175.299 50.3596 176.085 50.6551 177.088 50.6551C177.729 50.6551 178.294 50.5985 178.783 50.4853C179.286 50.3596 179.8 50.1835 180.327 49.9571V51.4097C179.813 51.6361 179.305 51.7996 178.802 51.9003C178.3 52.0135 177.704 52.0701 177.013 52.0701C176.059 52.0701 175.212 51.8751 174.471 51.4852C173.743 51.0953 173.171 50.5167 172.757 49.7495C172.356 48.9697 172.155 48.0202 172.155 46.9008C172.155 45.794 172.337 44.8444 172.701 44.052C173.077 43.2596 173.599 42.6496 174.264 42.222C174.942 41.7944 175.727 41.5806 176.618 41.5806ZM176.599 42.9389C175.808 42.9389 175.181 43.1967 174.716 43.7124C174.264 44.2155 173.994 44.9198 173.906 45.8254H179.047C179.035 44.9701 178.834 44.2784 178.444 43.7502C178.055 43.2094 177.44 42.9389 176.599 42.9389Z" fill="#163A24"/>
<path d="M197.016 46.8064C197.016 48.4792 196.589 49.7747 195.736 50.6928C194.894 51.6109 193.752 52.0701 192.309 52.0701C191.417 52.0701 190.619 51.8688 189.917 51.4663C189.226 51.0513 188.68 50.4539 188.279 49.6741C187.877 48.8817 187.676 47.9259 187.676 46.8064C187.676 45.1337 188.096 43.8445 188.938 42.9389C189.779 42.0333 190.921 41.5806 192.365 41.5806C193.281 41.5806 194.084 41.7881 194.776 42.2031C195.478 42.6056 196.024 43.1967 196.414 43.9765C196.815 44.7437 197.016 45.687 197.016 46.8064ZM189.39 46.8064C189.39 48.0013 189.621 48.9508 190.087 49.6552C190.563 50.3469 191.316 50.6928 192.346 50.6928C193.363 50.6928 194.11 50.3469 194.587 49.6552C195.064 48.9508 195.303 48.0013 195.303 46.8064C195.303 45.6116 195.064 44.6746 194.587 43.9954C194.11 43.3162 193.357 42.9766 192.327 42.9766C191.297 42.9766 190.551 43.3162 190.087 43.9954C189.621 44.6746 189.39 45.6116 189.39 46.8064Z" fill="#163A24"/>
<path d="M204.294 43.0519H201.751V51.8812H200.094V43.0519H198.324V42.2784L200.094 41.7124V41.1276C200.094 39.8195 200.383 38.8825 200.961 38.3166C201.539 37.738 202.342 37.4487 203.371 37.4487C203.773 37.4487 204.137 37.4865 204.463 37.5619C204.802 37.6248 205.091 37.7003 205.329 37.7883L204.896 39.0901C204.696 39.0272 204.463 38.9643 204.2 38.9014C203.936 38.8385 203.667 38.8071 203.39 38.8071C202.838 38.8071 202.424 38.9957 202.147 39.3731C201.883 39.7378 201.751 40.3164 201.751 41.1087V41.769H204.294V43.0519Z" fill="#163A24"/>
<path d="M219.782 46.8064C219.782 48.4792 219.356 49.7747 218.502 50.6928C217.661 51.6109 216.519 52.0701 215.075 52.0701C214.184 52.0701 213.386 51.8688 212.683 51.4663C211.993 51.0513 211.447 50.4539 211.046 49.6741C210.644 48.8817 210.443 47.9259 210.443 46.8064C210.443 45.1337 210.863 43.8445 211.704 42.9389C212.545 42.0333 213.688 41.5806 215.131 41.5806C216.048 41.5806 216.851 41.7881 217.541 42.2031C218.245 42.6056 218.791 43.1967 219.181 43.9765C219.582 44.7437 219.782 45.687 219.782 46.8064ZM212.156 46.8064C212.156 48.0013 212.388 48.9508 212.852 49.6552C213.33 50.3469 214.083 50.6928 215.112 50.6928C216.129 50.6928 216.877 50.3469 217.353 49.6552C217.83 48.9508 218.069 48.0013 218.069 46.8064C218.069 45.6116 217.83 44.6746 217.353 43.9954C216.877 43.3162 216.123 42.9766 215.093 42.9766C214.064 42.9766 213.318 43.3162 212.852 43.9954C212.388 44.6746 212.156 45.6116 212.156 46.8064Z" fill="#163A24"/>
<path d="M230.846 41.769V51.8812H229.49L229.245 50.5417H229.17C228.843 51.07 228.391 51.4598 227.814 51.7114C227.237 51.9504 226.621 52.0699 225.968 52.0699C224.751 52.0699 223.834 51.7806 223.219 51.202C222.604 50.6109 222.296 49.6739 222.296 48.391V41.769H223.972V48.2778C223.972 49.8877 224.719 50.6927 226.213 50.6927C227.331 50.6927 228.103 50.3783 228.529 49.7494C228.969 49.1205 229.188 48.2149 229.188 47.0327V41.769H230.846Z" fill="#163A24"/>
<path d="M238.758 41.5806C238.946 41.5806 239.146 41.5931 239.36 41.6183C239.586 41.6308 239.781 41.656 239.944 41.6938L239.737 43.2219C239.574 43.1842 239.391 43.1528 239.191 43.1276C239.002 43.1024 238.821 43.0898 238.645 43.0898C238.13 43.0898 237.647 43.2345 237.195 43.5238C236.743 43.8004 236.378 44.1966 236.102 44.7123C235.839 45.2154 235.707 45.8065 235.707 46.4857V51.8814H234.05V41.7692H235.406L235.594 43.6181H235.669C235.996 43.0647 236.416 42.5868 236.931 42.1843C237.446 41.7818 238.054 41.5806 238.758 41.5806Z" fill="#163A24"/>
<path d="M40.7291 69.8794C41.8715 69.8794 42.7252 70.1749 43.2901 70.7661C43.8551 71.3446 44.1375 72.2879 44.1375 73.596V80.1802H42.4992V73.6715C42.4992 72.0742 41.815 71.2755 40.4466 71.2755C39.4674 71.2755 38.7643 71.5585 38.3375 72.1244C37.9233 72.6904 37.7161 73.5143 37.7161 74.5959V80.1802H36.0778V73.6715C36.0778 72.0742 35.3873 71.2755 34.0064 71.2755C32.9895 71.2755 32.2864 71.5899 31.8973 72.2188C31.508 72.8477 31.3135 73.7532 31.3135 74.9355V80.1802H29.6564V70.0681H30.9934L31.2382 71.4453H31.3323C31.6462 70.917 32.0668 70.5272 32.594 70.2756C33.1338 70.0115 33.7051 69.8794 34.3077 69.8794C35.8895 69.8794 36.9189 70.4454 37.396 71.5773H37.4901C37.8291 70.9988 38.2873 70.5711 38.8648 70.2944C39.4548 70.0178 40.0762 69.8794 40.7291 69.8794Z" fill="#163A24"/>
<path d="M56.0307 75.1053C56.0307 76.778 55.6038 78.0736 54.7502 78.9917C53.909 79.9098 52.7666 80.3689 51.323 80.3689C50.4316 80.3689 49.6344 80.1677 48.9314 79.7652C48.2409 79.3501 47.6948 78.7527 47.2931 77.9729C46.8913 77.1805 46.6905 76.2247 46.6905 75.1053C46.6905 73.4325 47.111 72.1433 47.9522 71.2377C48.7933 70.3322 49.9357 69.8794 51.3794 69.8794C52.2959 69.8794 53.0993 70.0869 53.7898 70.502C54.4928 70.9045 55.0389 71.4956 55.4281 72.2754C55.8298 73.0426 56.0307 73.9859 56.0307 75.1053ZM48.4041 75.1053C48.4041 76.3002 48.6363 77.2497 49.1009 77.954C49.5779 78.6458 50.3311 78.9917 51.3606 78.9917C52.3775 78.9917 53.1244 78.6458 53.6015 77.954C54.0785 77.2497 54.3171 76.3002 54.3171 75.1053C54.3171 73.9104 54.0785 72.9734 53.6015 72.2942C53.1244 71.6151 52.3712 71.2755 51.3418 71.2755C50.3123 71.2755 49.5653 71.6151 49.1009 72.2942C48.6363 72.9734 48.4041 73.9104 48.4041 75.1053Z" fill="#163A24"/>
<path d="M63.5155 69.8794C64.7207 69.8794 65.6309 70.1749 66.2461 70.7661C66.8612 71.3446 67.1688 72.2879 67.1688 73.596V80.1802H65.5305V73.7092C65.5305 72.0867 64.7771 71.2755 63.2706 71.2755C62.1534 71.2755 61.3813 71.5899 60.9545 72.2188C60.5276 72.8477 60.3142 73.7532 60.3142 74.9355V80.1802H58.6571V70.0681H59.994L60.2389 71.4453H60.3331C60.6594 70.917 61.1114 70.5272 61.6889 70.2756C62.2664 70.0115 62.8753 69.8794 63.5155 69.8794Z" fill="#163A24"/>
<path d="M73.6685 79.0106C73.9197 79.0106 74.177 78.9917 74.4406 78.9539C74.7043 78.9037 74.9177 78.8533 75.0809 78.803V80.067C74.9052 80.1551 74.6541 80.2243 74.3276 80.2746C74.0013 80.3375 73.6874 80.3689 73.3861 80.3689C72.8588 80.3689 72.3692 80.2809 71.9172 80.1048C71.4779 79.9161 71.1201 79.5954 70.8439 79.1426C70.5677 78.6898 70.4296 78.0547 70.4296 77.2371V71.351H68.9984V70.5586L70.4484 69.8983L71.1075 67.7476H72.0867V70.0681H75.0056V71.351H72.0867V77.1994C72.0867 77.8157 72.2312 78.2748 72.5198 78.5766C72.8211 78.8659 73.2041 79.0106 73.6685 79.0106Z" fill="#163A24"/>
<path d="M78.7592 70.0494C78.7592 70.5525 78.7278 71.0241 78.665 71.4643H78.778C79.1045 70.9486 79.5438 70.5588 80.0962 70.2947C80.6611 70.0305 81.27 69.8985 81.9228 69.8985C83.1532 69.8985 84.0759 70.194 84.691 70.7852C85.3061 71.3637 85.6137 72.3008 85.6137 73.5962V80.1804H83.9754V73.7094C83.9754 72.0869 83.2222 71.2757 81.7157 71.2757C80.5858 71.2757 79.8074 71.5964 79.3806 72.2379C78.9663 72.8667 78.7592 73.7723 78.7592 74.9546V80.1804H77.1021V65.8423H78.7592V70.0494Z" fill="#163A24"/>
<path d="M90.3999 80.1804H88.7428V65.8423H90.3999V80.1804Z" fill="#163A24"/>
<path d="M92.0159 70.0684H93.786L95.9702 75.8225C96.1585 76.3255 96.328 76.8098 96.4787 77.2752C96.6293 77.7279 96.7423 78.1619 96.8176 78.5769H96.8929C96.9683 78.2625 97.0879 77.8537 97.2507 77.3506C97.4146 76.8349 97.5841 76.3193 97.7592 75.8036L99.8118 70.0684H101.601L97.2507 81.5766C96.8995 82.5325 96.441 83.2934 95.8761 83.8594C95.3243 84.4254 94.5579 84.7084 93.5789 84.7084C93.2776 84.7084 93.0139 84.6895 92.7879 84.6518C92.562 84.6266 92.3674 84.5952 92.2042 84.5574V83.2368C92.3423 83.262 92.5055 83.2871 92.6938 83.3123C92.8947 83.3375 93.1019 83.35 93.3152 83.35C93.8928 83.35 94.3573 83.1865 94.7085 82.8595C95.0729 82.5324 95.3554 82.0985 95.5559 81.5577L96.0832 80.2183L92.0159 70.0684Z" fill="#163A24"/>
<path d="M112.891 69.8794C114.134 69.8794 115.132 70.3133 115.885 71.1811C116.651 72.049 117.034 73.3571 117.034 75.1053C117.034 76.8284 116.651 78.1364 115.885 79.0294C115.132 79.9224 114.127 80.3689 112.872 80.3689C112.093 80.3689 111.448 80.2243 110.933 79.935C110.431 79.6331 110.035 79.2872 109.746 78.8973H109.633C109.659 79.1112 109.683 79.3815 109.708 79.7086C109.734 80.0356 109.746 80.3186 109.746 80.5575V84.7081H108.089V70.0681H109.445L109.671 71.4453H109.746C110.047 71.005 110.443 70.634 110.933 70.3322C111.422 70.0303 112.075 69.8794 112.891 69.8794ZM112.59 71.2755C111.561 71.2755 110.832 71.5648 110.405 72.1433C109.991 72.7218 109.772 73.6023 109.746 74.7845V75.1053C109.746 76.3504 109.947 77.3126 110.349 77.9918C110.763 78.6584 111.523 78.9917 112.627 78.9917C113.242 78.9917 113.745 78.8219 114.134 78.4823C114.536 78.1427 114.831 77.6836 115.019 77.1051C115.219 76.5139 115.32 75.841 115.32 75.0864C115.32 73.9293 115.094 73.0048 114.642 72.3131C114.203 71.6214 113.519 71.2755 112.59 71.2755Z" fill="#163A24"/>
<path d="M121.332 80.1804H119.675V65.8423H121.332V80.1804Z" fill="#163A24"/>
<path d="M128.352 69.8984C129.582 69.8984 130.492 70.1689 131.083 70.7097C131.672 71.2505 131.968 72.1121 131.968 73.2943V80.1804H130.763L130.443 78.7466H130.367C129.928 79.3 129.463 79.7087 128.974 79.9729C128.496 80.237 127.831 80.3691 126.978 80.3691C126.061 80.3691 125.302 80.1301 124.699 79.6522C124.096 79.1616 123.795 78.4007 123.795 77.3694C123.795 76.3631 124.191 75.5896 124.982 75.0489C125.772 74.4954 126.99 74.1936 128.635 74.1433L130.348 74.0867V73.483C130.348 72.6403 130.166 72.0555 129.802 71.7284C129.438 71.4014 128.923 71.2379 128.258 71.2379C127.731 71.2379 127.228 71.3197 126.752 71.4832C126.274 71.6341 125.829 71.8102 125.415 72.0114L124.906 70.7663C125.345 70.5273 125.867 70.326 126.469 70.1626C127.072 69.9864 127.699 69.8984 128.352 69.8984ZM128.842 75.2941C127.586 75.3444 126.714 75.5457 126.224 75.8978C125.747 76.25 125.509 76.7468 125.509 77.3882C125.509 77.9542 125.678 78.3693 126.017 78.6334C126.368 78.8975 126.814 79.0296 127.354 79.0296C128.207 79.0296 128.917 78.7969 129.482 78.3315C130.047 77.8536 130.33 77.1241 130.33 76.1431V75.2375L128.842 75.2941Z" fill="#163A24"/>
<path d="M139.944 69.8794C141.149 69.8794 142.059 70.1749 142.674 70.7661C143.289 71.3446 143.597 72.2879 143.597 73.596V80.1802H141.959V73.7092C141.959 72.0867 141.206 71.2755 139.699 71.2755C138.581 71.2755 137.809 71.5899 137.383 72.2188C136.955 72.8477 136.743 73.7532 136.743 74.9355V80.1802H135.085V70.0681H136.422L136.667 71.4453H136.761C137.087 70.917 137.539 70.5272 138.117 70.2756C138.694 70.0115 139.304 69.8794 139.944 69.8794Z" fill="#163A24"/>
<path d="M153.298 77.3881C153.298 78.3691 152.934 79.1112 152.206 79.6142C151.478 80.1174 150.499 80.3689 149.268 80.3689C148.565 80.3689 147.956 80.3123 147.441 80.1991C146.94 80.0859 146.493 79.9286 146.104 79.7274V78.2182C146.506 78.4194 146.989 78.608 147.554 78.7841C148.132 78.9476 148.715 79.0294 149.306 79.0294C150.147 79.0294 150.756 78.8973 151.132 78.6332C151.509 78.3565 151.697 77.9918 151.697 77.539C151.697 77.2874 151.629 77.061 151.49 76.8598C151.352 76.6586 151.101 76.4573 150.737 76.2561C150.386 76.0549 149.877 75.8285 149.212 75.5769C148.559 75.3253 148 75.0739 147.536 74.8223C147.071 74.5707 146.714 74.2688 146.462 73.9167C146.211 73.5646 146.086 73.1118 146.086 72.5584C146.086 71.7031 146.431 71.0428 147.121 70.5774C147.825 70.1121 148.741 69.8794 149.871 69.8794C150.485 69.8794 151.057 69.9423 151.584 70.0681C152.124 70.1812 152.627 70.3447 153.091 70.5586L152.526 71.8792C152.099 71.7031 151.653 71.5521 151.189 71.4264C150.725 71.3007 150.247 71.2377 149.758 71.2377C149.08 71.2377 148.559 71.3509 148.195 71.5773C147.843 71.7912 147.667 72.0867 147.667 72.464C147.667 72.7407 147.749 72.9797 147.912 73.1809C148.075 73.3696 148.345 73.5583 148.722 73.7469C149.111 73.923 149.626 74.1368 150.266 74.3884C150.906 74.6273 151.452 74.8726 151.904 75.1241C152.356 75.3757 152.702 75.6838 152.94 76.0486C153.178 76.4007 153.298 76.8473 153.298 77.3881Z" fill="#163A24"/>
<path d="M167.201 77.3881C167.201 78.3691 166.837 79.1112 166.109 79.6142C165.38 80.1174 164.401 80.3689 163.171 80.3689C162.468 80.3689 161.859 80.3123 161.344 80.1991C160.842 80.0859 160.396 79.9286 160.007 79.7274V78.2182C160.409 78.4194 160.893 78.608 161.457 78.7841C162.035 78.9476 162.618 79.0294 163.209 79.0294C164.05 79.0294 164.659 78.8973 165.035 78.6332C165.412 78.3565 165.6 77.9918 165.6 77.539C165.6 77.2874 165.531 77.061 165.393 76.8598C165.255 76.6586 165.003 76.4573 164.64 76.2561C164.288 76.0549 163.779 75.8285 163.115 75.5769C162.461 75.3253 161.903 75.0739 161.439 74.8223C160.974 74.5707 160.616 74.2688 160.365 73.9167C160.114 73.5646 159.989 73.1118 159.989 72.5584C159.989 71.7031 160.333 71.0428 161.024 70.5774C161.727 70.1121 162.644 69.8794 163.774 69.8794C164.389 69.8794 164.96 69.9423 165.487 70.0681C166.027 70.1812 166.529 70.3447 166.994 70.5586L166.429 71.8792C166.001 71.7031 165.556 71.5521 165.092 71.4264C164.627 71.3007 164.15 71.2377 163.661 71.2377C162.983 71.2377 162.461 71.3509 162.098 71.5773C161.746 71.7912 161.57 72.0867 161.57 72.464C161.57 72.7407 161.651 72.9797 161.815 73.1809C161.978 73.3696 162.248 73.5583 162.625 73.7469C163.014 73.923 163.529 74.1368 164.169 74.3884C164.809 74.6273 165.356 74.8726 165.807 75.1241C166.259 75.3757 166.604 75.6838 166.843 76.0486C167.081 76.4007 167.201 76.8473 167.201 77.3881Z" fill="#163A24"/>
<path d="M173.01 79.0106C173.262 79.0106 173.519 78.9917 173.783 78.9539C174.046 78.9037 174.26 78.8533 174.423 78.803V80.067C174.247 80.1551 173.996 80.2243 173.67 80.2746C173.343 80.3375 173.029 80.3689 172.728 80.3689C172.201 80.3689 171.711 80.2809 171.259 80.1048C170.819 79.9161 170.462 79.5954 170.186 79.1426C169.91 78.6898 169.772 78.0547 169.772 77.2371V71.351H168.34V70.5586L169.79 69.8983L170.449 67.7476H171.429V70.0681H174.347V71.351H171.429V77.1994C171.429 77.8157 171.573 78.2748 171.862 78.5766C172.163 78.8659 172.546 79.0106 173.01 79.0106Z" fill="#163A24"/>
<path d="M180.267 69.8984C181.497 69.8984 182.407 70.1689 182.998 70.7097C183.587 71.2505 183.883 72.1121 183.883 73.2943V80.1804H182.677L182.357 78.7466H182.282C181.842 79.3 181.378 79.7087 180.888 79.9729C180.411 80.237 179.745 80.3691 178.892 80.3691C177.975 80.3691 177.216 80.1301 176.614 79.6522C176.011 79.1616 175.71 78.4007 175.71 77.3694C175.71 76.3631 176.105 75.5896 176.896 75.0489C177.687 74.4954 178.905 74.1936 180.549 74.1433L182.263 74.0867V73.483C182.263 72.6403 182.08 72.0555 181.717 71.7284C181.353 71.4014 180.838 71.2379 180.173 71.2379C179.646 71.2379 179.143 71.3197 178.666 71.4832C178.189 71.6341 177.744 71.8102 177.329 72.0114L176.821 70.7663C177.26 70.5273 177.781 70.326 178.384 70.1626C178.986 69.9864 179.614 69.8984 180.267 69.8984ZM180.757 75.2941C179.501 75.3444 178.629 75.5457 178.139 75.8978C177.662 76.25 177.423 76.7468 177.423 77.3882C177.423 77.9542 177.593 78.3693 177.932 78.6334C178.283 78.8975 178.728 79.0296 179.269 79.0296C180.122 79.0296 180.832 78.7969 181.397 78.3315C181.962 77.8536 182.244 77.1241 182.244 76.1431V75.2375L180.757 75.2941Z" fill="#163A24"/>
<path d="M191.707 69.8794C191.895 69.8794 192.097 69.8919 192.31 69.9171C192.536 69.9297 192.73 69.9549 192.893 69.9926L192.686 71.5207C192.523 71.483 192.342 71.4516 192.14 71.4264C191.952 71.4012 191.77 71.3887 191.594 71.3887C191.08 71.3887 190.596 71.5333 190.144 71.8226C189.692 72.0993 189.329 72.4954 189.052 73.0111C188.788 73.5142 188.656 74.1054 188.656 74.7845V80.1802H186.999V70.0681H188.355L188.543 71.9169H188.619C188.945 71.3635 189.366 70.8856 189.88 70.4831C190.395 70.0806 191.005 69.8794 191.707 69.8794Z" fill="#163A24"/>
<path d="M198.149 79.0106C198.401 79.0106 198.658 78.9917 198.921 78.9539C199.185 78.9037 199.399 78.8533 199.561 78.803V80.067C199.385 80.1551 199.135 80.2243 198.808 80.2746C198.481 80.3375 198.168 80.3689 197.867 80.3689C197.339 80.3689 196.85 80.2809 196.398 80.1048C195.958 79.9161 195.6 79.5954 195.324 79.1426C195.049 78.6898 194.91 78.0547 194.91 77.2371V71.351H193.479V70.5586L194.929 69.8983L195.588 67.7476H196.567V70.0681H199.486V71.351H196.567V77.1994C196.567 77.8157 196.711 78.2748 197 78.5766C197.302 78.8659 197.685 79.0106 198.149 79.0106Z" fill="#163A24"/>
<path d="M202.43 66.2764C202.681 66.2764 202.901 66.3644 203.089 66.5405C203.29 66.704 203.391 66.9681 203.391 67.3329C203.391 67.685 203.29 67.9491 203.089 68.1252C202.901 68.3013 202.681 68.3894 202.43 68.3894C202.154 68.3894 201.922 68.3013 201.734 68.1252C201.545 67.9491 201.451 67.685 201.451 67.3329C201.451 66.9681 201.545 66.704 201.734 66.5405C201.922 66.3644 202.154 66.2764 202.43 66.2764ZM203.24 70.0684V80.1806H201.583V70.0684H203.24Z" fill="#163A24"/>
<path d="M211.296 69.8794C212.501 69.8794 213.412 70.1749 214.027 70.7661C214.641 71.3446 214.949 72.2879 214.949 73.596V80.1802H213.311V73.7092C213.311 72.0867 212.558 71.2755 211.051 71.2755C209.934 71.2755 209.162 71.5899 208.735 72.2188C208.308 72.8477 208.095 73.7532 208.095 74.9355V80.1802H206.438V70.0681H207.775L208.019 71.4453H208.114C208.44 70.917 208.892 70.5272 209.469 70.2756C210.047 70.0115 210.656 69.8794 211.296 69.8794Z" fill="#163A24"/>
<path d="M221.656 69.8794C222.322 69.8794 222.918 70.0051 223.445 70.2567C223.985 70.5083 224.443 70.8918 224.82 71.4075H224.914L225.14 70.0681H226.458V80.35C226.458 81.7964 226.088 82.8844 225.347 83.6138C224.619 84.3433 223.483 84.7081 221.938 84.7081C220.457 84.7081 219.246 84.4942 218.304 84.0666V82.5385C219.296 83.0667 220.539 83.3308 222.033 83.3308C222.899 83.3308 223.577 83.073 224.066 82.5573C224.569 82.0543 224.82 81.3625 224.82 80.4821V80.0859C224.82 79.935 224.826 79.7211 224.838 79.4444C224.852 79.1551 224.864 78.9539 224.876 78.8407H224.801C224.123 79.8595 223.082 80.3689 221.675 80.3689C220.37 80.3689 219.346 79.9098 218.605 78.9917C217.878 78.0735 217.513 76.7907 217.513 75.143C217.513 73.5331 217.878 72.2565 218.605 71.3132C219.346 70.3574 220.363 69.8794 221.656 69.8794ZM221.882 71.2755C221.041 71.2755 220.389 71.6151 219.924 72.2942C219.459 72.9609 219.227 73.9167 219.227 75.1619C219.227 76.407 219.453 77.3629 219.905 78.0295C220.37 78.6835 221.041 79.0105 221.92 79.0105C222.937 79.0105 223.678 78.7402 224.142 78.1993C224.607 77.646 224.838 76.7592 224.838 75.5392V75.143C224.838 73.7595 224.6 72.7722 224.123 72.181C223.646 71.5773 222.899 71.2755 221.882 71.2755Z" fill="#163A24"/>
<path d="M238.378 69.8984C239.609 69.8984 240.519 70.1689 241.109 70.7097C241.699 71.2505 241.994 72.1121 241.994 73.2943V80.1804H240.789L240.468 78.7466H240.393C239.954 79.3 239.489 79.7087 239 79.9729C238.523 80.237 237.858 80.3691 237.004 80.3691C236.087 80.3691 235.328 80.1301 234.725 79.6522C234.122 79.1616 233.821 78.4007 233.821 77.3694C233.821 76.3631 234.216 75.5896 235.007 75.0489C235.798 74.4954 237.017 74.1936 238.661 74.1433L240.374 74.0867V73.483C240.374 72.6403 240.193 72.0555 239.828 71.7284C239.465 71.4014 238.95 71.2379 238.284 71.2379C237.757 71.2379 237.255 71.3197 236.778 71.4832C236.301 71.6341 235.855 71.8102 235.441 72.0114L234.932 70.7663C235.372 70.5273 235.892 70.326 236.495 70.1626C237.098 69.9864 237.726 69.8984 238.378 69.8984ZM238.868 75.2941C237.613 75.3444 236.74 75.5457 236.25 75.8978C235.774 76.25 235.535 76.7468 235.535 77.3882C235.535 77.9542 235.704 78.3693 236.043 78.6334C236.395 78.8975 236.841 79.0296 237.38 79.0296C238.234 79.0296 238.943 78.7969 239.508 78.3315C240.073 77.8536 240.355 77.1241 240.355 76.1431V75.2375L238.868 75.2941Z" fill="#163A24"/>
<path d="M248.482 79.0106C248.733 79.0106 248.99 78.9917 249.254 78.9539C249.518 78.9037 249.731 78.8533 249.894 78.803V80.067C249.719 80.1551 249.468 80.2243 249.141 80.2746C248.815 80.3375 248.501 80.3689 248.2 80.3689C247.672 80.3689 247.183 80.2809 246.731 80.1048C246.292 79.9161 245.934 79.5954 245.657 79.1426C245.381 78.6898 245.243 78.0547 245.243 77.2371V71.351H243.812V70.5586L245.262 69.8983L245.921 67.7476H246.9V70.0681H249.819V71.351H246.9V77.1994C246.9 77.8157 247.045 78.2748 247.333 78.5766C247.635 78.8659 248.018 79.0106 248.482 79.0106Z" fill="#163A24"/>
<path d="M251.671 71.0871C251.671 70.6091 251.784 70.2759 252.01 70.0872C252.236 69.8985 252.505 69.8042 252.82 69.8042C253.145 69.8042 253.422 69.8985 253.648 70.0872C253.887 70.2759 254.006 70.6091 254.006 71.0871C254.006 71.5399 253.887 71.8669 253.648 72.0681C253.422 72.2693 253.145 72.37 252.82 72.37C252.505 72.37 252.236 72.2693 252.01 72.0681C251.784 71.8669 251.671 71.5399 251.671 71.0871ZM251.671 79.1617C251.671 78.6964 251.784 78.3694 252.01 78.1807C252.236 77.992 252.505 77.8977 252.82 77.8977C253.145 77.8977 253.422 77.992 253.648 78.1807C253.887 78.3694 254.006 78.6964 254.006 79.1617C254.006 79.6145 253.887 79.9415 253.648 80.1428C253.422 80.344 253.145 80.4446 252.82 80.4446C252.505 80.4446 252.236 80.344 252.01 80.1428C251.784 79.9415 251.671 79.6145 251.671 79.1617Z" fill="#163A24"/>
<path d="M165.714 7.95376C82.8571 7.18884 -2.91876 23.3955 2.35397 107.538C5.33565 132.849 39.9224 183.002 154.416 181.115C210.438 181.115 286.045 146.779 283.409 79.2389C280.428 51.8832 287.834 -4.14564 130.406 1.88853C124.756 2.10509 80.0324 5.66147 65.9091 11.3214C30.1298 21.2261 -25.8929 63.6745 22.1269 121.687C36.1815 138.667 69.1107 170.645 174.188 166.494C214.519 164.922 339.903 109.896 263.636 38.677C235.86 12.7392 165.714 -9.43301 34.3669 26.5345" stroke="#FBC8B8" stroke-width="3"/>
</g>
<defs>
<clipPath id="clip0_1_1281">
<rect width="290" height="183" fill="white"/>
</clipPath>
</defs>
</svg>
