<svg width="117" height="145" viewBox="0 0 117 145" fill="none" xmlns="http://www.w3.org/2000/svg">
<g clip-path="url(#clip0_1_499)">
<path d="M109.938 3.58035C117.85 8.2926 116.366 21.6923 116.769 38.9879C117 48.6494 117.043 52.8615 116.957 61.7331C116.884 68.4724 117.49 80.3187 115.443 85.9788C113.353 91.744 107.675 93.1392 104.086 94.4817C99.5608 96.1666 94.9776 97.3248 90.3656 97.7725C87.6417 98.0357 84.9178 98.2989 82.2082 98.7201C80.6084 98.9835 77.9854 98.6938 76.5585 100.326C74.8291 102.327 73.6328 111.462 71.6151 116.49C69.8135 120.965 67.4643 125.177 64.726 127.652C63.9621 128.336 63.1262 128.915 62.2758 128.678C59.6095 127.994 59.8113 119.728 59.7969 116.147C59.7825 113.147 59.869 109.961 60.2005 106.934C60.5319 103.906 59.1628 101.168 57.4765 101.432L50.9765 102.458C38.5098 102.827 35.5985 101.985 24.3712 97.8778C19.8025 96.2192 17.1794 90.1381 16.9344 81.398C16.6173 69.9729 16.8911 58.3898 16.8623 46.9645C16.8479 37.6191 16.0408 27.0625 18.7936 18.6384C21.6905 9.76681 27.9311 7.08163 33.5231 5.55476C47.5896 1.84289 61.757 0.184383 75.9821 0.000105834C75.9821 0.000105834 103.25 -0.394774 109.938 3.58035Z" fill="#F7BC28"/>
<path d="M39.0286 44.095C58.125 44.9902 77.308 44.253 96.3612 41.7522C99.114 41.3835 99.1428 33.4859 96.3612 33.8546C77.308 36.3554 58.125 37.0926 39.0286 36.1976C36.247 36.0658 36.247 43.9634 39.0286 44.095Z" fill="white"/>
<path d="M35.7571 66.3138C48.1086 66.3138 60.46 65.2607 72.8115 64.9975C82.3669 64.8132 91.8791 65.6557 101.406 64.1551C104.158 63.7339 104.187 55.8362 101.406 56.2575C91.8791 57.7318 82.3669 56.8893 72.8115 57.0999C60.46 57.3631 48.1086 58.4162 35.7571 58.4162C32.9755 58.4162 32.9611 66.3138 35.7571 66.3138Z" fill="white"/>
<path d="M16.214 136.839C16.3581 135.26 15.796 133.707 14.9313 133.391C9.62748 131.469 4.66961 126.888 1.55653 118.385C-3.77607 103.801 5.77937 88.9008 12.582 84.0044C19.5721 78.9761 27.9024 79.5554 34.3736 86.5843C34.7916 87.0318 35.1807 87.5056 35.5698 88.0321C40.225 94.2185 44.1164 106.407 42.8769 116.595C42.4157 120.36 41.2772 123.835 39.2018 126.651C35.3392 131.916 30.0931 133.864 25.092 134.365C24.1264 134.47 23.2184 135.207 22.5842 136.523C21.5321 138.682 19.7738 142.078 18.1596 144.421C17.0931 145.974 15.5366 144.237 15.7672 141.789L16.214 136.839Z" fill="#39B55D"/>
<path d="M12.7691 104.617C19.0673 104.617 25.3656 104.617 31.6638 104.617C33.9842 104.617 33.9842 98.0356 31.6638 98.0356C25.3656 98.0356 19.0673 98.0356 12.7691 98.0356C10.4487 98.0356 10.4487 104.617 12.7691 104.617Z" fill="white"/>
<path d="M11.8467 118.622C18.3756 118.622 24.9044 118.622 31.4332 118.622C33.7536 118.622 33.7536 112.041 31.4332 112.041C24.9044 112.041 18.3756 112.041 11.8467 112.041C9.52636 112.041 9.52636 118.622 11.8467 118.622Z" fill="white"/>
</g>
<defs>
<clipPath id="clip0_1_499">
<rect width="117" height="145" fill="white"/>
</clipPath>
</defs>
</svg>
