<svg width="79" height="160" viewBox="0 0 79 160" fill="none" xmlns="http://www.w3.org/2000/svg">
<g clip-path="url(#clip0_1_526)">
<path d="M5.86874 30.9088C2.48883 34.1349 0.335389 40.0377 0.178515 46.5497C-0.35628 68.5716 -0.862553 115.112 17.5558 138.735L33.343 156.336C36.9439 160.351 41.6002 160.554 45.3367 156.886C50.2211 152.094 56.7599 144.877 60.5391 137.385C60.7103 137.038 60.8885 136.716 61.0739 136.393C63.4698 132.319 81.5102 99.7223 78.7079 45.9763C78.387 39.8227 76.2978 34.3021 73.1032 31.2074L45.1513 4.16719C41.6715 0.797615 37.386 0.773715 33.8992 4.11939L5.86874 30.9088Z" fill="#F7BC28"/>
<path d="M14.5535 43.2267C12.0507 45.6164 10.4534 50.0016 10.3322 54.829C9.93286 71.163 9.56207 105.671 23.2172 123.2L34.9257 136.26C37.5996 139.236 41.0508 139.391 43.8175 136.667C47.4399 133.118 52.2887 127.765 55.091 122.209C55.2194 121.958 55.3477 121.707 55.4903 121.48C57.2658 118.457 70.593 94.0452 68.5679 54.4228C68.4395 51.8537 64.6318 44.1707 63.334 42.426L43.6892 23.3915C41.1079 20.8942 37.9348 20.8822 35.3464 23.3557L14.5535 43.2267Z" fill="#E48929"/>
<path d="M39.4966 21.5037V80.5669H67.7409C67.7409 80.5669 69.7518 64.0894 68.5752 54.4227C68.5752 54.4227 68.2472 47.7792 63.3413 42.4261L43.6894 23.3917C43.6894 23.3917 41.6928 21.3842 39.4966 21.5037Z" fill="#FBFAF7"/>
<path d="M39.4965 80.5668L39.4894 138.591C39.4894 138.591 37.2219 138.806 34.3767 135.627L24.9643 125.136C24.9643 125.136 16.9852 117.166 14.3897 103.975C14.3897 103.975 11.1167 91.8467 10.6675 79.4795L39.4965 80.5668Z" fill="#FBFAF7"/>
</g>
<defs>
<clipPath id="clip0_1_526">
<rect width="79" height="160" fill="white"/>
</clipPath>
</defs>
</svg>
