<svg width="95" height="150" viewBox="0 0 95 150" fill="none" xmlns="http://www.w3.org/2000/svg">
<g clip-path="url(#clip0_1_535)">
<path d="M25.92 21.4942C16.73 48.1236 8.93998 76.2707 2.69998 105.459C1.25998 112.182 -0.120022 119.171 0.00997831 126.353C0.139978 133.535 2.08998 141.071 5.75998 144.177C7.83998 145.941 10.22 146.135 12.52 146.241C33.91 147.159 55.37 142.341 75.94 131.982C84.25 127.8 93.9 119.453 94.34 104.224C94.64 93.7589 90.28 84.9883 87.59 75.6354C83.21 60.406 83.03 41.7707 77.37 27.9177C72.25 15.3707 65.61 2.27662 56.89 0.935452C51.74 0.141335 46.1 -0.91749 40.41 1.42957C34.16 3.98839 28.91 11.4707 25.92 21.4942Z" fill="#F7BC28"/>
<path d="M32.5002 24.3707C28.7302 43.5002 27.1802 64.2884 28.0002 84.7237C28.4002 94.5707 29.4102 104.7 32.4002 112.694C36.2302 122.947 43.1002 128.259 49.5702 126.847C56.0402 125.435 61.9602 117.724 65.5402 107.118C70.7702 91.6413 71.0002 71.8237 70.3002 53.3296C69.6702 36.8825 67.5902 18.0531 60.0702 10.5002C54.1602 4.5708 47.0202 7.92374 40.6102 11.4002L32.5002 24.3707Z" fill="#FFC9A0"/>
<path d="M23.4102 64.606C32.3102 64.6766 42.4902 57.4943 44.7302 53.7354C51.4802 42.3531 52.1602 18.7942 51.9602 3.14136L30.8102 16.5178L23.5602 40.5531L23.4102 64.606Z" fill="#F7BC28"/>
<path d="M47.1699 3.12378C47.1699 3.12378 56.1799 48.3885 75.1099 54.8826L72.1299 35.4002L64.6299 10.0238L47.1699 3.12378Z" fill="#F7BC28"/>
<path d="M58.1199 52.1118C57.6199 51.9706 57.1299 52.4294 56.9099 53.2412C56.8599 53.4353 56.7999 53.6294 56.7599 53.8412C56.6199 54.5118 56.6299 55.4118 56.9899 55.7471C57.1299 55.8882 57.2999 55.8882 57.4599 55.8882C59.1399 55.9412 60.8099 56.3471 62.4499 57.0353C63.2799 57.3882 64.0999 57.8118 64.9099 58.3235C65.1099 58.4471 65.8599 59.1882 66.0399 59.0647C66.3799 58.8529 66.2099 57.7765 66.0699 57.3882C65.8799 56.8765 65.5699 56.5412 65.2799 56.2235L65.1999 56.1353C63.5499 54.3529 61.7099 53.1353 59.7999 52.6059L58.1199 52.1118Z" fill="#F7BC28"/>
<path d="M42.5602 8.75317C35.9902 8.77082 29.2402 27.3709 26.9202 36.7061C24.3302 47.1356 19.7502 58.3061 16.6002 68.2238C13.5202 77.9297 10.4602 87.7238 8.12018 98.0826C6.96018 103.2 5.99018 108.459 5.31018 113.841C4.70018 118.606 4.82018 119.753 4.46018 124.677C4.05018 130.271 4.18018 136.818 7.36018 137.859C10.4802 138.883 16.2202 138.636 19.3402 139.359C19.9202 139.5 20.1802 137.912 19.5902 137.771C15.0702 136.694 7.59018 140.118 5.80018 129.883C4.98018 125.188 5.52018 120.018 6.09018 115.341C6.70018 110.294 12.8202 91.0591 13.8502 86.2414C18.0802 66.5297 21.2402 63.2826 26.3402 44.2944C29.1902 33.6885 32.2702 21.4944 37.6602 14.1179C38.5002 12.9532 39.4302 11.9826 40.4502 11.4355C41.3202 10.9767 42.6902 10.3767 43.4402 10.0238C44.3902 9.54729 44.1702 8.75317 42.5602 8.75317Z" fill="white"/>
<path d="M33.05 135.547C32.9 135.547 32.76 135.53 32.61 135.512C29.71 135.018 25.08 133.659 22.47 131.771C20.12 130.077 17.54 127.659 16.21 123.689C13.92 116.894 14.3 106.218 17.37 100.324C17.77 99.5474 17.92 97.6592 17.51 98.4356C14.86 103.536 13.45 109.13 13.92 115.836C14.24 120.336 14.13 124.747 15.5 127.059C17.18 129.9 20.61 132.283 22.76 133.747C25.37 135.512 28.87 136.147 31.64 136.589C32.23 136.694 35.06 136.589 34.69 135.565H33.05V135.547Z" fill="white"/>
<path d="M23.2603 88.8709C21.8903 95.4532 20.3503 106.289 21.2203 111.671C21.7303 114.794 25.1003 119.524 27.7903 123.477C28.2503 124.147 29.2503 124.641 28.7903 123.953C26.2303 120.194 23.3903 116.012 22.5003 110.083C21.4903 103.394 22.5703 94.6062 23.8903 88.3062C24.0903 87.3179 23.4703 87.8826 23.2603 88.8709Z" fill="white"/>
<path d="M25.9904 57.7413C29.3204 56.8766 32.4604 54.7413 35.5204 52.3413C38.3504 50.1355 42.8904 46.4119 45.1604 42.6002C47.4104 38.7884 47.9004 32.259 48.9104 27.1237C50.0104 21.5825 49.8304 18.4943 49.8504 12.6354C49.8504 11.5766 49.1904 8.73541 49.1904 9.79423C49.1904 26.2943 47.1704 35.7531 42.5904 43.1472C40.4204 46.6413 37.7004 48.8649 35.0404 50.9296C32.0504 53.259 28.9804 55.3237 25.7304 56.1531C25.1504 56.3119 25.4004 57.9002 25.9904 57.7413Z" fill="white"/>
<path d="M32.2003 39.9883C32.9903 34.8001 36.6403 29.5765 38.7403 25.6236C41.0303 21.3354 41.5303 19.8883 44.3103 16.6766C44.8103 16.0942 45.2903 13.4825 44.7903 14.0648C41.8103 17.506 37.9703 22.6765 35.5803 27.3354C33.4503 31.4824 32.1003 35.8765 31.9103 38.5765C31.8403 39.6177 31.5303 42.3707 31.9003 42.6177L32.2003 39.9883Z" fill="white"/>
<path d="M39.8203 34.9414C42.7403 28.412 46.0503 20.3297 45.5503 15.0002C45.4503 13.9767 44.7403 13.5179 44.6503 14.5591C44.0003 22.765 40.9503 30.9532 38.1303 37.2885C37.7603 38.1003 38.5303 37.8355 38.9003 37.0061L39.8203 34.9414Z" fill="white"/>
<path d="M77.22 55.0945C66.72 50.1533 58.31 34.4121 56.12 15.6356C55.97 15.9885 55.82 16.3238 55.67 16.6767C62.34 15.6003 68.2 23.0298 72.02 32.1003C76.41 42.5298 78.21 55.465 80.6 67.5356C81.84 73.7827 83.37 79.6768 85.04 85.6062C86.68 91.4297 88.37 97.8003 87.93 104.471C87.2 115.624 80.86 121.977 75.45 125.383C67.13 130.624 58.1 132.953 49.29 133.094C48.69 133.112 47.31 135.565 47.9 135.565C56.33 135.424 63.65 133.677 71.69 129.177C77.21 126.089 86.63 118.394 88.81 108.194C90.1 102.177 90.24 96.8827 88.89 91.1121C87.37 84.5827 83.89 78.3886 82.45 71.7886C79.67 59.0121 76.44 40.0239 74.81 35.418C69.92 21.5121 63.23 13.8179 55.68 15.0356C55.37 15.0885 55.17 15.512 55.23 16.0767C58.4 42.9709 66.18 51.6003 76.98 56.665C77.56 56.9474 77.8 55.3768 77.22 55.0945Z" fill="white"/>
<path d="M47.75 127.747C54.31 128.718 64.89 127.641 71.16 123.547C76.24 120.23 77.37 115.324 79.61 106.359C80.86 101.347 81.73 101.824 79.55 90.5471C79.36 89.5413 78.39 89.206 78.7 90.106C81.69 98.9295 77.81 110.912 73.93 116.559C69.56 122.93 63.93 125.753 58.36 126.477C54.83 126.935 51.28 126.635 47.76 126.106C47.15 126.018 47.15 127.659 47.75 127.747Z" fill="white"/>
<path d="M83.2801 109.659C85.9701 103.465 84.9801 99.2474 84.0101 91.8356C82.8701 83.1533 79.9401 75.6004 77.2501 68.2239C76.9301 67.3415 76.1201 68.1533 76.4501 69.0533C79.0101 76.0592 81.7601 83.1356 82.9801 91.2886C84.0701 98.5768 84.3501 104.542 82.0001 112.042C81.7101 112.959 81.5501 114.547 81.9101 113.718L83.2801 109.659Z" fill="white"/>
<path d="M64.5004 114.794C68.6404 112.677 72.3504 103.43 74.0304 96.5473C76.0804 88.0944 73.7004 83.1002 72.5504 74.3297C72.4104 73.3061 71.5204 73.7297 71.6504 74.7708C72.7404 83.0473 73.0504 92.0297 71.2004 100.041C69.6704 106.659 66.3804 111.106 62.6904 114.336C62.3404 114.636 61.6304 115.959 61.6304 115.959L64.5004 114.794Z" fill="white"/>
<path d="M62.7401 29.3649C64.3801 30.6532 66.2401 33.0355 67.6501 35.612C69.1101 38.2943 72.4401 45.3355 73.6801 48.3355C76.0801 54.1943 76.0501 56.4179 77.5001 63.1767C77.7101 64.1473 78.6101 63.7238 78.4001 62.7355C76.8501 55.4826 74.7601 48.6355 72.1401 42.4238C70.8701 39.4061 70.9501 38.0826 69.4501 35.4002C68.0101 32.8238 66.1101 30.1061 64.1001 29.0649C63.5201 28.7649 62.1601 29.0649 62.7401 29.3649Z" fill="white"/>
<path d="M29.6502 63.6355C25.6802 64.7826 24.2502 64.6943 20.6102 67.9414C18.0002 70.2708 15.2502 73.659 14.8302 78.7767C14.2902 85.359 18.0202 90.8296 21.7202 92.1002C25.4202 93.3708 29.2402 91.9414 33.0002 92.4708" fill="#FFC9A0"/>
<path d="M69.25 53.1355C72.61 52.5355 76.03 53.3296 79.19 55.4296C82.35 57.5296 85.03 63.1767 84.46 69.0355C83.84 75.3531 80.04 78.8649 76.62 81.0002C73.41 82.9943 70.12 84.6002 66.79 85.8002" fill="#FFC9A0"/>
<path d="M40.8701 124.218L43.6001 149.365H51.9601L54.9801 116.806L40.8701 124.218Z" fill="#FFC9A0"/>
<path d="M32.6899 102.247C32.5699 102.441 32.3899 102.441 32.2699 102.247C31.3199 100.765 30.2099 99.6176 29.2199 98.2059C28.1599 96.6882 27.1999 94.7471 26.9599 92.3823C26.5099 87.9353 29.0899 84.9176 31.1799 87.7765C31.7699 88.5706 32.2299 89.6294 32.6599 90.7059C32.6999 90.8118 32.8099 90.7588 32.7999 90.6176C32.7199 89.3823 32.9799 88.0765 33.4399 87.1235C34.2299 85.4471 35.9099 84.0176 37.1799 84.4412C38.9699 85.0235 38.9299 88.6765 38.4399 91.0765C37.8499 93.9706 36.1599 96.5294 34.9199 98.5588L32.6899 102.247Z" fill="#F1673C"/>
<path d="M65.5398 99.5472C65.4098 99.7237 65.2298 99.6708 65.1298 99.459C64.2798 97.8002 63.2598 96.4414 62.3698 94.8355C61.4098 93.1237 60.5898 90.9884 60.4998 88.5884C60.3398 84.0708 63.0998 81.6178 64.9998 84.8649C65.5298 85.7825 65.9198 86.9119 66.2798 88.0766C66.3198 88.2002 66.4198 88.1472 66.4198 88.0237C66.4198 86.7708 66.7698 85.5355 67.2898 84.6708C68.1898 83.1708 69.9398 82.0943 71.1798 82.7649C72.9198 83.7178 72.6398 87.3178 71.9998 89.6119C71.2198 92.3649 69.3798 94.5531 68.0198 96.3355L65.5398 99.5472Z" fill="#F1673C"/>
<path d="M53.84 108.124C57.03 105.759 59.53 101.206 60.74 95.4886C60.86 94.9062 60.6 94.2357 60.29 94.0768C59.93 93.9004 59.61 94.2886 59.49 94.871C58.46 99.7592 56.23 103.889 53.5 105.9C53.18 106.147 52.94 106.659 53.05 107.312C53.12 107.859 53.51 108.371 53.84 108.124Z" fill="#010101"/>
<path d="M54.3603 66.9886C54.9203 71.1886 57.1803 74.7533 59.7303 73.7298C62.0903 72.7769 63.1203 68.3475 63.8003 64.7122C63.4803 64.9416 63.1603 65.171 62.8503 65.4004C64.3903 66.7945 65.9303 68.171 67.4703 69.5651C68.2103 70.2357 68.8703 68.2592 68.1303 67.5886C66.5903 66.1945 65.0503 64.8181 63.5103 63.4239C63.1203 63.071 62.6903 63.371 62.5603 64.1122C62.0603 66.7769 61.3803 70.3239 59.7203 71.3651C57.7603 72.6004 56.0503 69.5298 55.6303 66.3886C55.4203 64.9416 54.1603 65.5592 54.3603 66.9886Z" fill="#010101"/>
<path d="M61.8901 69.7059C61.9501 69.7765 62.0001 69.8471 62.0501 69.9177C62.1401 70.0412 62.0701 69.953 62.0201 69.8824C62.0601 69.9353 62.0901 69.9883 62.1301 70.0412C62.2601 70.2354 62.4001 70.4118 62.5301 70.6059C62.8401 71.0471 63.1401 71.5059 63.4501 71.9471C64.0301 72.7942 64.6001 73.6589 65.2101 74.4354C65.4901 74.7883 65.9501 74.5412 66.1001 74.0295C66.2801 73.4295 66.1601 72.8295 65.8701 72.4589C65.8101 72.3883 65.7601 72.3177 65.7101 72.2471C65.6201 72.1236 65.6901 72.2118 65.7401 72.2824C65.7001 72.2295 65.6701 72.1765 65.6301 72.1236C65.5001 71.9295 65.3601 71.753 65.2301 71.5589C64.9201 71.1177 64.6201 70.6589 64.3101 70.2177C63.7301 69.3706 63.1601 68.5059 62.5501 67.7295C62.2701 67.3765 61.8101 67.6236 61.6601 68.1354C61.4801 68.7177 61.6001 69.3177 61.8901 69.7059Z" fill="#010101"/>
<path d="M42.97 69.9357C42.55 73.0769 40.84 76.1474 38.88 74.9121C37.22 73.871 36.54 70.3239 36.04 67.6592C35.9 66.9357 35.47 66.618 35.09 66.971C33.55 68.3651 32.01 69.7416 30.47 71.1357C29.72 71.8063 30.38 73.7827 31.13 73.1122C32.67 71.718 34.21 70.3416 35.75 68.9474C35.43 68.718 35.11 68.4886 34.8 68.2592C35.48 71.8945 36.51 76.3063 38.87 77.2769C41.42 78.318 43.68 74.7357 44.24 70.5357C44.42 69.1239 43.16 68.5063 42.97 69.9357Z" fill="#010101"/>
<path d="M36.0301 71.2766C35.4201 72.0531 34.8501 72.9178 34.2701 73.7649C33.9601 74.2061 33.6601 74.6649 33.3501 75.1061C33.2201 75.3002 33.0901 75.4766 32.9501 75.6708C32.9201 75.7237 32.8901 75.759 32.8501 75.8119C32.8101 75.8649 32.9901 75.6355 32.8601 75.7943C32.8101 75.8649 32.7501 75.9355 32.7001 76.0061C32.4301 76.359 32.2601 77.0119 32.4701 77.5766C32.6501 78.0531 33.0701 78.3708 33.3601 77.9825C33.9701 77.2061 34.5401 76.3414 35.1201 75.4943C35.4301 75.0531 35.7301 74.5943 36.0401 74.1531C36.1701 73.959 36.3001 73.7825 36.4401 73.5884C36.4701 73.5355 36.5001 73.5002 36.5401 73.4472C36.5801 73.3943 36.4001 73.6237 36.5301 73.4649C36.5801 73.3943 36.6401 73.3237 36.6901 73.2531C36.9601 72.9002 37.1301 72.2472 36.9201 71.6825C36.7501 71.2061 36.3301 70.9061 36.0301 71.2766Z" fill="#010101"/>
<path d="M73.5802 61.3767C74.7602 61.059 76.0202 61.4473 77.1702 61.959C78.3102 62.4708 79.4802 63.1237 80.1502 64.9767C80.5002 65.9473 80.6302 67.0237 80.4002 68.1355C80.1902 69.159 79.8002 70.1296 79.3802 70.9237C78.6402 72.3002 77.6802 73.2002 76.7102 73.9237C75.5502 74.7885 74.3402 75.4414 73.1902 76.3414C72.6402 76.7649 73.1202 78.1767 73.6602 77.7533C75.9402 75.9708 78.6402 75.1237 80.3102 71.559C81.2402 69.5826 81.8202 67.1649 81.1402 64.6943C80.5102 62.4355 79.2902 61.3237 77.9802 60.6355C76.5002 59.859 74.8902 59.3826 73.3502 59.7885C72.7402 59.9473 72.9902 61.5355 73.5802 61.3767Z" fill="#010101"/>
<path d="M74.4002 70.8C74.7602 70.6765 75.1202 70.3765 75.4402 70.0942C75.8902 69.7236 76.3202 69.2647 76.7102 68.7177C77.0602 68.2236 77.3902 67.553 77.4202 66.7412C77.4502 65.6647 76.8902 65.0295 76.3902 64.6589C75.6802 64.1471 74.8902 64.0589 74.1302 63.9353C73.8902 63.9 73.6602 64.3412 73.6702 64.7471C73.6802 65.2236 73.8702 65.5236 74.1302 65.5589C74.2602 65.5765 74.3902 65.5942 74.5202 65.6118C74.6002 65.6295 74.6702 65.6295 74.7502 65.6471C74.7802 65.6471 74.8102 65.6647 74.8302 65.6647C74.8502 65.6647 74.9902 65.7 74.9402 65.6824C74.8702 65.6648 75.0102 65.7 75.0102 65.7C75.0502 65.7177 75.1002 65.7177 75.1402 65.7353C75.2102 65.753 75.2902 65.7706 75.3602 65.8059C75.5202 65.8589 75.6702 65.9295 75.8302 66C75.9002 66.0353 75.9602 66.0706 76.0302 66.1236C76.0602 66.1412 76.0802 66.1589 76.1102 66.1765C76.0102 66.1059 76.1302 66.1942 76.1502 66.2118C76.2102 66.2647 76.2702 66.3177 76.3202 66.3706C76.3502 66.4059 76.3702 66.4236 76.4002 66.4589C76.5102 66.5824 76.3602 66.3883 76.4102 66.4765C76.4402 66.5295 76.4702 66.5824 76.4902 66.6177C76.5502 66.7059 76.4302 66.4412 76.4702 66.5648C76.4802 66.5824 76.4802 66.6 76.4902 66.6177C76.5502 66.7765 76.4602 66.4236 76.4902 66.6C76.5302 66.8295 76.4802 66.4236 76.4902 66.6C76.4902 66.6177 76.4802 66.6883 76.4902 66.6883C76.4802 66.6706 76.5202 66.4765 76.5002 66.5648C76.4902 66.6177 76.4802 66.6706 76.4702 66.7236C76.4502 66.8648 76.5302 66.5295 76.4902 66.653C76.4802 66.6706 76.4702 66.7059 76.4702 66.7412C76.4502 66.8118 76.4302 66.8647 76.4102 66.9177C76.3602 67.0412 76.4902 66.7589 76.4302 66.8824C76.4202 66.9 76.4002 66.9353 76.3902 66.9706C76.3602 67.0236 76.3302 67.0765 76.3002 67.1295C76.2302 67.253 76.1502 67.3765 76.0702 67.5C76.0502 67.5353 76.0102 67.6059 76.1002 67.4647C76.0802 67.5 76.0502 67.5353 76.0302 67.553C75.9902 67.6059 75.9502 67.6589 75.9102 67.7118C75.8202 67.8177 75.7202 67.9236 75.6302 68.0295C75.4502 68.2236 75.2602 68.4 75.0702 68.5589C74.9702 68.6471 74.8702 68.7353 74.7602 68.8059C74.7502 68.8236 74.7302 68.8412 74.7102 68.8412C74.8502 68.7706 74.7402 68.8236 74.7002 68.8412C74.6602 68.8765 74.6102 68.9118 74.5702 68.9295C74.4402 69.0177 74.3002 69.1059 74.1702 69.1589C73.9302 69.2471 73.7702 69.7765 73.8502 70.1647C73.9102 70.6942 74.1502 70.8883 74.4002 70.8Z" fill="#010101"/>
<path d="M25.8701 86.0474C24.2501 86.4004 22.6201 86.1709 21.0501 85.3239C19.9301 84.7239 17.7501 83.5239 18.0501 80.8062C18.1901 79.5357 18.7101 78.4592 19.2101 77.5768C19.7201 76.6768 20.2701 75.8474 20.8701 75.1415C22.1001 73.6592 23.4701 72.6357 24.9201 72.0709C25.5001 71.8415 25.2601 70.271 24.6701 70.4827C22.1401 71.471 19.5901 73.9239 17.9701 77.5415C17.1901 79.2886 16.6901 81.6886 17.5201 83.6651C18.2801 85.4827 19.7601 86.3651 20.9401 86.9827C22.5301 87.8121 24.2101 88.0415 25.8501 87.6886C26.4601 87.5651 26.4701 85.9239 25.8701 86.0474Z" fill="#010101"/>
<path d="M23.9503 75.5119C23.3203 75.6355 22.7203 75.9355 22.1503 76.4119C21.6303 76.8531 21.0903 77.4707 20.7303 78.2825C20.3203 79.1825 20.2503 80.2943 20.5403 81.3355C20.7903 82.2531 21.2803 82.9237 21.8303 83.2237C22.5503 83.6296 23.3203 83.4178 24.0503 83.2237C24.3003 83.1531 24.4403 82.606 24.3703 82.2178C24.3003 81.7413 24.0503 81.5825 23.8003 81.6531C23.2003 81.8119 22.5403 81.9884 21.9603 81.5825C22.0103 81.6178 21.8603 81.4943 21.8503 81.4766C21.7903 81.4237 21.7403 81.3531 21.6803 81.2825C21.7103 81.3178 21.7003 81.3002 21.6603 81.2472C21.6403 81.2119 21.6103 81.159 21.5903 81.1237C21.5803 81.106 21.4703 80.8943 21.5003 80.9649C21.4603 80.8766 21.4303 80.7708 21.3903 80.6825C21.3703 80.6296 21.3603 80.5766 21.3503 80.5237C21.3603 80.5943 21.3603 80.5766 21.3403 80.4884C21.3203 80.3825 21.3003 80.2766 21.2903 80.1707C21.3003 80.3119 21.2903 80.0119 21.2903 79.9766C21.2903 79.8707 21.2903 79.8707 21.2903 79.9413C21.3003 79.8884 21.3003 79.8355 21.3103 79.7825C21.3203 79.6943 21.3303 79.659 21.3703 79.5531C21.4303 79.359 21.5103 79.2178 21.6103 79.0413C21.8203 78.6884 22.0603 78.406 22.3103 78.159C22.8103 77.6472 23.4003 77.2943 23.9603 77.1884C24.2103 77.1355 24.4203 76.8531 24.4203 76.3766C24.4103 75.9355 24.2003 75.4766 23.9503 75.5119Z" fill="#010101"/>
<path d="M49.5897 78.3003C50.3997 81.9709 51.3197 85.6415 51.9797 89.3121C52.1397 90.2121 51.7497 91.1121 51.2197 91.1297C50.2797 91.1474 49.1697 91.165 48.2497 91.165C47.7797 91.165 47.4097 90.4591 47.4497 89.6121L48.0497 78.6533C48.1297 77.1709 49.2797 76.9062 49.5897 78.3003Z" fill="#E48929"/>
<path d="M54.2499 124.659C54.2499 124.659 47.6999 129.3 40.8599 124.218L41.3799 128.982L53.1399 136.588L54.2499 124.659Z" fill="#EFB086"/>
<path d="M49.8097 12.0706C53.1297 11.9117 56.1197 9.77645 59.4097 10.7647C61.6897 11.4529 64.3697 13.5353 66.2297 15.7941C70.0797 20.4706 72.9997 25.3941 76.0097 31.7647C76.4197 32.647 80.2997 42.9176 77.0597 31.6941C74.8497 24.0706 69.6697 18.5647 65.6797 13.747C63.7797 11.4529 61.9697 9.74116 59.6697 9.05292C56.2897 8.02939 49.1097 7.19998 49.1397 8.32939C49.1897 9.77645 49.1897 11.0823 49.1897 11.0823L49.8097 12.0706Z" fill="white"/>
</g>
<defs>
<clipPath id="clip0_1_535">
<rect width="95" height="150" fill="white"/>
</clipPath>
</defs>
</svg>
