<svg width="75" height="36" viewBox="0 0 75 36" fill="none" xmlns="http://www.w3.org/2000/svg">
<g clip-path="url(#clip0_1_1335)">
<path d="M5.50588 7.73386C11.3554 12.6712 18.434 15.9195 25.9681 17.0901C33.9045 18.3233 42.8975 18.2652 50.0292 16.5227C54.9149 15.3252 55.609 15.1063 56.8337 14.3422C54.7247 11.7239 47.8141 7.2915 48.2076 1.91636C48.2916 0.736768 49.6446 0.124635 50.5775 0.835068C56.4668 5.32553 68.7185 12.6846 73.9004 17.2867C74.4441 17.7693 75.0366 18.359 75.0012 19.0918C74.9702 19.8023 74.3646 20.325 73.8075 20.7584C66.7465 26.214 59.3319 31.205 51.6342 35.6909C50.5775 36.3075 49.1715 35.9768 48.5967 34.8866C48.0926 33.9393 48.6321 33.2067 49.1405 32.5543C51.5458 29.4668 53.951 26.3794 56.3562 23.2874C43.994 28.5643 29.5494 28.3364 17.1871 23.1489C10.25 20.2401 4.48454 14.999 1.10218 8.22981C-0.710591 4.59276 -0.922817 2.30955 5.50588 7.73386Z" fill="#FBC8B8"/>
</g>
<defs>
<clipPath id="clip0_1_1335">
<rect width="75" height="36" fill="white"/>
</clipPath>
</defs>
</svg>
