<svg width="492" height="510" viewBox="0 0 492 510" fill="none" xmlns="http://www.w3.org/2000/svg">
<path d="M316.835 479.806C170.066 518.729 88.9786 486.015 66.7831 464.807C-32.4521 369.961 5.57664 267.736 21.6746 240.215C42.9137 203.887 82.8383 149.315 106.315 111.621C167.641 6.47453 251.7 3.04937 286.091 14.5207C437.344 45.0397 484.152 173.659 488.644 234.15C509.729 396.098 382.858 465.396 316.835 479.806Z" fill="#F7BC28"/>
<path d="M190.596 207.697C167.045 209.261 143.398 208.569 119.979 205.63C108.023 204.126 93.1376 199.087 93.8891 189.273C94.5553 180.62 107.024 176.46 117.408 174.419C198.619 158.753 281.679 155.013 363.968 163.315C377.794 164.707 392.662 166.894 402.253 175.102C406.267 178.519 409.153 183.456 407.377 187.966C405.31 193.253 398.025 195.739 391.518 197.438C348.856 208.477 304.918 213.802 260.855 213.274L190.596 207.697Z" fill="#153A23"/>
<path d="M203.125 153.962C225.209 149.477 247.661 144.993 270.113 146.915C292.565 148.837 315.375 158.198 328.586 176.477C343.156 196.695 343.634 223.866 354.898 246.091C361.799 259.758 373.012 272.57 372.252 287.783C371.15 309.991 346.298 322.179 324.914 328.278C271.868 343.4 216.84 350.415 161.697 349.085C155.77 348.94 149.647 348.65 144.301 346.079C134.847 341.569 129.809 330.559 129.501 320.112C129.194 309.666 132.721 299.442 136.427 289.627C152.516 247.04 172.529 206.04 196.207 167.158" fill="#FAC7B7"/>
<path d="M213.125 171.352C203.377 199.613 199.438 229.552 201.545 259.373C202.561 273.74 205.174 288.517 212.86 300.168C217.616 307.341 224.258 313.063 232.056 316.704C239.853 320.344 248.503 321.763 257.055 320.804C273.708 318.746 288.952 307.488 298.167 292.036C311.634 269.452 312.224 240.548 310.413 213.582C308.791 189.606 303.428 162.136 284.076 151.126C268.857 142.473 250.488 147.359 233.997 152.45L213.125 171.352Z" fill="#B26D55"/>
<path d="M189.734 230.05C212.63 230.144 238.831 219.689 244.595 214.18C261.974 197.584 263.639 171.472 263.119 148.649L208.778 159.907L190.127 194.927C190.127 194.927 189.725 230.05 189.734 230.05Z" fill="#FAC7B7"/>
<path d="M255.347 159.027C255.347 159.027 274.067 206.407 322.813 215.88L315.127 187.453L298.449 159.027H255.347Z" fill="#FAC7B7"/>
<path d="M89.9949 499.46C80.6692 469.427 93.112 425.276 115.162 402.863C137.213 380.45 167.419 367.843 197.838 359.899C235.013 350.179 274.699 346.668 311.737 356.721C327.237 360.924 342.054 367.433 356.145 375.197C378.307 387.42 399.486 403.751 410.212 426.677C422.416 452.788 419.299 467.676 414.892 496.145" fill="#39B55D"/>
<path d="M279.046 211.831C278.419 211.732 277.777 211.838 277.215 212.134C276.654 212.429 276.202 212.898 275.929 213.471C275.792 213.761 275.655 214.043 275.544 214.325C275.177 215.29 275.211 216.614 276.134 217.093C276.518 217.258 276.937 217.331 277.355 217.306C281.674 217.409 285.969 217.982 290.165 219.014C292.306 219.529 294.418 220.156 296.493 220.893C297.014 221.081 298.927 222.158 299.414 221.978C300.268 221.654 299.849 220.082 299.491 219.535C298.941 218.822 298.241 218.239 297.441 217.827L297.227 217.69C292.97 215.088 288.244 213.347 283.316 212.565L279.046 211.831Z" fill="#FAC7B7"/>
<path d="M226.166 160.018C209.291 161.188 204.73 175.726 198.752 189.349C192.074 204.553 180.289 220.842 172.184 235.32C164.25 249.482 156.377 263.755 150.364 278.882C147.352 286.345 144.931 294.034 143.122 301.876C141.56 308.829 141.867 310.503 140.928 317.669C139.869 325.827 140.219 335.376 148.392 336.888C156.564 338.4 171.194 338.007 179.213 339.083C180.716 339.288 181.373 336.982 179.853 336.777C168.23 335.222 148.972 340.194 144.361 325.28C142.243 318.447 143.643 310.896 145.095 304.063C146.649 296.708 162.414 268.658 165.07 261.628C175.95 232.86 184.089 228.128 197.206 200.428C204.039 185.907 206.908 163.767 226.166 162.426C227.686 162.324 227.703 159.932 226.166 160.035V160.018Z" fill="white"/>
<path d="M213.971 333.531C206.549 332.848 194.2 330.849 187.309 328.013C181.271 325.536 174.627 322.034 171.185 316.217C165.309 306.309 166.275 290.729 174.174 282.128C175.207 281 175.575 278.25 174.533 279.386C167.701 286.826 164.088 294.992 165.301 304.763C166.155 311.332 165.848 317.755 169.375 321.129C173.704 325.28 182.518 328.748 188.069 330.875C194.781 333.437 203.791 334.36 210.93 335.026C212.468 335.163 220.324 333.676 218.787 333.531H213.971Z" fill="white"/>
<path d="M189.35 265.438C185.823 275.03 181.869 290.857 184.098 298.69C185.396 303.251 194.072 310.136 201.007 315.91C202.185 316.892 204.756 317.618 203.569 316.61C196.967 311.118 189.674 305.036 187.343 296.392C184.781 286.629 187.539 273.809 190.912 264.626C191.442 263.183 189.845 264.003 189.315 265.438H189.35Z" fill="white"/>
<path d="M196.361 220.048C204.901 218.784 213.006 215.657 220.897 212.181C228.181 208.969 239.873 203.537 245.663 197.968C251.453 192.399 252.785 182.901 255.347 175.401C258.165 167.304 257.704 162.828 257.764 154.261C257.764 152.723 256.056 148.563 256.056 150.11C256.056 174.171 250.855 187.983 239.078 198.754C233.51 203.879 226.507 207.099 219.667 210.114C211.981 213.531 204.064 216.512 195.703 217.742C194.183 217.964 194.849 220.304 196.335 220.048H196.361Z" fill="white"/>
<path d="M212.348 194.141C214.389 186.582 223.766 178.946 229.189 173.197C235.073 166.953 236.363 164.844 243.528 160.154C244.817 159.3 243.622 157.25 242.324 158.096C234.637 163.11 227.225 168.892 221.059 175.691C215.576 181.739 212.092 188.162 211.622 192.091C211.434 193.62 210.64 197.618 211.622 197.968L212.348 194.141Z" fill="white"/>
<path d="M231.956 186.77C239.471 177.238 247.986 165.416 246.696 157.729C246.448 156.234 244.604 155.576 244.39 157.097C242.725 169.055 234.877 181.013 227.609 190.238C226.67 191.434 228.642 191.032 229.59 189.828L231.956 186.77Z" fill="white"/>
<path d="M328.219 216.179C301.19 208.978 279.541 186.018 273.922 158.634L272.769 160.146C289.943 158.566 305.033 169.413 314.863 182.636C326.17 197.84 330.79 216.708 336.947 234.312C340.204 243.326 344.023 252.127 348.382 260.663C352.61 269.145 356.922 278.447 355.812 288.184C353.933 304.456 337.63 313.715 323.702 318.694C302.292 326.382 279.054 329.722 256.38 329.927C254.843 329.927 251.256 333.548 252.819 333.531C274.511 333.335 293.342 330.781 314.043 324.221C328.236 319.711 352.473 308.487 358.109 293.616C361.431 284.844 361.782 277.131 358.331 268.701C354.429 259.168 345.453 250.14 341.747 240.513C334.59 221.876 327.229 193.484 322.105 187.462C310.148 173.437 292.214 155.978 272.794 157.763C272.612 157.768 272.433 157.813 272.271 157.896C272.109 157.98 271.967 158.098 271.857 158.243C271.746 158.388 271.669 158.556 271.632 158.734C271.595 158.913 271.598 159.097 271.641 159.275C279.814 198.515 299.824 211.088 327.613 218.493C327.917 218.571 328.239 218.526 328.51 218.368C328.781 218.211 328.979 217.953 329.062 217.651C329.145 217.348 329.105 217.026 328.953 216.752C328.8 216.478 328.546 216.275 328.245 216.187L328.219 216.179Z" fill="white"/>
<path d="M252.358 322.137C269.25 323.563 296.467 321.974 312.608 316.012C325.674 311.178 328.595 304.003 334.342 290.951C337.571 283.623 339.791 284.323 334.189 267.889C333.693 266.437 331.2 265.933 331.994 267.257C339.68 280.121 329.697 297.614 319.722 305.848C308.475 315.133 293.982 319.25 279.644 320.309C270.548 320.844 261.425 320.661 252.358 319.762C250.829 319.634 250.838 322.026 252.358 322.154V322.137Z" fill="white"/>
<path d="M343.805 295.752C350.731 286.723 348.169 280.573 345.675 269.76C342.754 257.093 335.205 246.083 328.27 235.32C327.416 234.03 325.367 235.226 326.204 236.525C332.78 246.732 339.868 257.024 343.011 268.983C345.82 279.6 346.546 288.304 340.491 299.254C339.748 300.595 339.347 302.91 340.269 301.705L343.805 295.752Z" fill="white"/>
<path d="M295.485 303.226C306.143 300.142 315.699 286.655 320.004 276.602C325.29 264.276 319.15 256.999 316.186 244.195C315.836 242.7 313.539 243.341 313.88 244.836C316.69 256.896 317.476 270.007 312.719 281.701C308.791 291.361 300.302 297.853 290.831 302.559C289.837 303.247 288.919 304.038 288.09 304.917L295.485 303.226Z" fill="white"/>
<path d="M290.933 178.638C296.057 180.167 299.935 183.985 303.564 187.744C307.322 191.647 315.904 201.923 319.073 206.313C325.256 214.855 325.179 218.092 328.894 227.966C329.432 229.392 331.746 228.769 331.2 227.325C327.251 216.747 321.841 206.773 315.127 197.695C311.848 193.287 312.053 191.365 308.21 187.445C304.512 183.686 299.61 179.757 294.452 178.194C292.974 177.75 289.499 178.194 290.968 178.63L290.933 178.638Z" fill="white"/>
<path d="M205.815 228.624C195.567 230.289 191.912 230.17 182.543 234.91C175.822 238.327 168.76 243.255 167.667 250.712C166.266 260.304 175.891 268.299 185.404 270.153C194.918 272.006 204.764 269.914 214.44 270.699" fill="#B26D55"/>
<path d="M307.697 213.317C316.367 212.447 325.12 213.59 333.275 216.657C341.405 219.723 348.305 227.949 346.828 236.516C345.239 245.724 335.461 250.866 326.648 253.958C318.381 256.865 309.927 259.208 301.344 260.971" fill="#B26D55"/>
<path d="M234.655 317.003L241.683 353.672H263.195L270.984 306.19L234.655 317.003Z" fill="#B26D55"/>
<path d="M207.335 368.569C206.566 359.579 207.82 350.531 211.007 342.09C211.276 341.172 211.79 340.346 212.493 339.698C213.517 339.076 214.717 338.806 215.909 338.929C240.052 338.929 262.29 336.931 286.433 336.888C289.576 336.888 294.708 338.801 297.646 339.92C302.77 341.859 306.186 346.924 307.535 352.212C308.885 357.499 308.586 363.068 308.244 368.526" fill="#39B55D"/>
<path d="M213.612 284.955C213.467 285.09 213.276 285.164 213.078 285.164C212.88 285.164 212.69 285.09 212.544 284.955C210.093 282.803 207.25 281.129 204.705 279.079C201.972 276.866 199.495 274.031 198.88 270.537C197.727 264.046 204.363 259.655 209.752 263.823C211.222 265.054 212.505 266.493 213.561 268.094C213.582 268.133 213.616 268.163 213.657 268.179C213.699 268.195 213.744 268.195 213.786 268.181C213.828 268.167 213.863 268.138 213.886 268.101C213.909 268.063 213.918 268.018 213.911 267.975C213.83 267.054 213.934 266.126 214.217 265.246C214.501 264.366 214.957 263.551 215.559 262.85C217.6 260.407 221.913 258.331 225.192 258.938C229.812 259.792 229.701 265.113 228.437 268.615C226.9 272.835 222.562 276.55 219.376 279.523L213.612 284.955Z" fill="#F1673C"/>
<path d="M298.158 281.018C297.998 281.135 297.799 281.188 297.601 281.166C297.404 281.144 297.221 281.048 297.091 280.898C294.913 278.472 292.274 276.491 289.985 274.159C287.526 271.648 285.391 268.538 285.177 265.036C284.776 258.459 291.873 254.855 296.749 259.612C298.068 261.003 299.176 262.58 300.037 264.293C300.058 264.33 300.09 264.359 300.129 264.377C300.168 264.394 300.211 264.398 300.253 264.388C300.294 264.378 300.331 264.356 300.358 264.323C300.386 264.291 300.402 264.25 300.404 264.208C300.433 263.286 300.645 262.38 301.028 261.541C301.411 260.702 301.956 259.948 302.633 259.322C304.939 257.127 309.465 255.564 312.651 256.546C317.143 257.921 316.417 263.191 314.76 266.523C312.753 270.546 308.013 273.74 304.512 276.328L298.158 281.018Z" fill="#F1673C"/>
<path d="M268.029 293.531C272.089 291.834 275.759 289.323 278.811 286.153C281.863 282.983 284.233 279.22 285.775 275.098C285.891 274.871 285.954 274.621 285.961 274.366C285.967 274.111 285.917 273.858 285.812 273.625C285.708 273.393 285.554 273.186 285.359 273.021C285.165 272.856 284.936 272.737 284.69 272.671C284.444 272.606 284.186 272.597 283.935 272.644C283.685 272.692 283.448 272.795 283.243 272.945C283.037 273.096 282.868 273.291 282.748 273.516C282.627 273.741 282.559 273.989 282.547 274.244C281.194 277.82 279.136 281.087 276.495 283.852C273.855 286.616 270.685 288.822 267.175 290.336C266.752 290.462 266.394 290.746 266.176 291.13C265.957 291.514 265.896 291.967 266.005 292.395C266.13 292.818 266.415 293.176 266.799 293.395C267.182 293.613 267.635 293.674 268.063 293.565L268.029 293.531Z" fill="#010101"/>
<path d="M269.37 233.526C270.813 239.668 276.629 244.861 283.179 243.366C289.26 241.983 291.898 235.517 293.649 230.221L291.215 231.22L303.112 237.293C305.024 238.267 306.724 235.38 304.82 234.406L292.923 228.333C292.7 228.21 292.453 228.139 292.199 228.124C291.945 228.108 291.691 228.15 291.455 228.246C291.219 228.342 291.008 228.489 290.837 228.677C290.665 228.865 290.538 229.089 290.464 229.333C289.174 233.227 287.423 238.387 283.162 239.907C278.132 241.701 273.717 237.216 272.641 232.638C272.145 230.545 268.917 231.434 269.413 233.492L269.37 233.526Z" fill="#010101"/>
<path d="M288.764 237.456L289.183 237.772C289.405 237.942 289.234 237.814 289.114 237.712L289.396 237.934L290.421 238.788L292.787 240.744C294.273 241.983 295.75 243.247 297.313 244.383C297.699 244.597 298.153 244.654 298.579 244.541C299.006 244.428 299.372 244.154 299.602 243.776C299.817 243.391 299.874 242.938 299.763 242.512C299.652 242.085 299.38 241.718 299.004 241.487L298.577 241.18C298.355 241.009 298.534 241.137 298.654 241.231L298.363 241.009L297.338 240.155C296.544 239.506 295.759 238.848 294.973 238.19C293.487 236.96 292.018 235.696 290.447 234.56C290.062 234.345 289.609 234.287 289.182 234.399C288.755 234.51 288.388 234.782 288.158 235.158C287.944 235.544 287.887 235.998 288 236.425C288.113 236.851 288.387 237.218 288.764 237.447V237.456Z" fill="#010101"/>
<path d="M240.069 237.831C238.993 242.41 234.578 246.885 229.548 245.092C225.278 243.58 223.57 238.412 222.237 234.517C222.163 234.275 222.036 234.052 221.865 233.865C221.694 233.678 221.484 233.531 221.249 233.436C221.014 233.34 220.761 233.298 220.508 233.312C220.255 233.326 220.009 233.397 219.786 233.518L207.882 239.591C205.96 240.573 207.651 243.46 209.59 242.478L221.486 236.414L219.035 235.406C220.794 240.718 223.424 247.159 229.505 248.56C236.055 250.063 241.871 244.844 243.314 238.72C243.809 236.627 240.581 235.73 240.086 237.866L240.069 237.831Z" fill="#010101"/>
<path d="M222.212 239.77C220.649 240.906 219.18 242.171 217.694 243.409L215.328 245.365L214.304 246.219L214.047 246.416C213.945 246.493 214.398 246.151 214.09 246.416L213.663 246.732C213.287 246.962 213.015 247.329 212.904 247.756C212.793 248.183 212.85 248.636 213.065 249.021C213.296 249.397 213.663 249.669 214.089 249.78C214.516 249.892 214.969 249.834 215.354 249.619C216.917 248.483 218.394 247.219 219.872 245.989L222.246 244.024L223.271 243.17L223.518 242.973L223.937 242.666C224.24 242.404 224.441 242.045 224.506 241.65C224.571 241.255 224.495 240.85 224.292 240.505C224.088 240.16 223.771 239.898 223.393 239.763C223.016 239.629 222.604 239.632 222.229 239.77H222.212Z" fill="#010101"/>
<path d="M318.834 225.344C321.94 225.028 325.078 225.318 328.074 226.198C331.02 226.941 334.052 227.906 335.76 230.588C336.225 231.249 336.527 232.011 336.641 232.811C336.755 233.611 336.679 234.427 336.418 235.192C335.822 236.707 334.927 238.087 333.787 239.249C331.821 241.172 329.477 242.667 326.904 243.64C323.915 244.887 320.806 245.843 317.834 247.159C316.434 247.774 317.647 249.841 319.039 249.217C324.897 246.655 331.849 245.374 336.119 240.189C338.501 237.302 340.004 233.783 338.254 230.187C336.64 226.89 333.488 225.267 330.124 224.276C326.273 223.01 322.196 222.588 318.168 223.037C316.647 223.259 317.314 225.6 318.799 225.344H318.834Z" fill="#010101"/>
<path d="M320.96 239.096C321.893 238.866 322.794 238.522 323.642 238.071C324.803 237.53 325.898 236.856 326.904 236.063C327.392 235.736 327.806 235.31 328.119 234.812C328.432 234.315 328.638 233.758 328.723 233.176C328.8 231.596 327.365 230.674 326.084 230.153C324.21 229.509 322.249 229.154 320.268 229.102C319.953 229.104 319.651 229.231 319.429 229.455C319.206 229.679 319.081 229.982 319.081 230.298C319.092 230.606 319.218 230.898 319.435 231.117C319.652 231.335 319.944 231.464 320.251 231.476L321.268 231.562L321.848 231.622H322.07H322.352H322.523L322.865 231.673L323.428 231.775C323.832 231.851 324.231 231.948 324.624 232.066L325.136 232.237L325.333 232.314C325.085 232.22 325.392 232.314 325.427 232.314C325.461 232.314 325.726 232.467 325.862 232.544L326.067 232.681C326.349 232.843 325.965 232.57 326.067 232.681L326.281 232.886C326.443 233.031 326.135 232.638 326.229 232.818L326.289 232.911C326.443 233.142 326.204 232.638 326.289 232.911C326.375 233.185 326.289 232.647 326.289 232.911C326.285 232.96 326.285 233.008 326.289 233.057C326.289 233.057 326.375 232.741 326.289 232.877C326.255 232.95 326.232 233.028 326.221 233.108C326.178 233.304 326.366 232.843 326.221 233.014C326.221 233.014 326.178 233.091 326.161 233.134C326.144 233.176 326.05 233.304 325.99 233.398C325.93 233.492 326.187 233.168 326.033 233.339L325.93 233.458C325.862 233.544 325.785 233.62 325.717 233.697C325.649 233.774 325.316 234.047 325.119 234.227C325.059 234.27 324.957 234.372 325.187 234.176L325.008 234.304C324.906 234.381 324.803 234.457 324.692 234.526C324.581 234.594 324.214 234.842 323.975 234.987C323.505 235.269 323.027 235.525 322.54 235.764L321.754 236.132L321.626 236.183C321.985 236.072 321.695 236.183 321.626 236.183L321.285 236.311C320.944 236.449 320.593 236.557 320.234 236.636C320.081 236.675 319.938 236.745 319.812 236.84C319.686 236.936 319.58 237.055 319.501 237.192C319.422 237.329 319.37 237.48 319.349 237.636C319.329 237.793 319.339 237.952 319.38 238.105C319.466 238.41 319.668 238.67 319.942 238.829C320.216 238.989 320.541 239.035 320.849 238.959L320.96 239.096Z" fill="#010101"/>
<path d="M196.071 261.321C191.909 261.847 187.683 261.487 183.671 260.262C180.793 259.407 175.182 257.648 175.985 253.676C176.343 251.823 177.693 250.259 178.974 248.953C180.277 247.631 181.707 246.441 183.244 245.399C186.404 243.254 189.947 241.735 193.679 240.924C195.183 240.59 194.533 238.284 193.048 238.617C186.54 240.052 179.981 243.623 175.814 248.918C173.815 251.481 172.526 254.974 174.661 257.853C176.625 260.492 180.434 261.791 183.466 262.679C187.567 263.882 191.871 264.234 196.113 263.712C197.616 263.524 197.634 261.15 196.113 261.321H196.071Z" fill="#010101"/>
<path d="M191.109 245.997C189.497 246.174 187.926 246.622 186.463 247.321C185.058 247.952 183.808 248.882 182.799 250.046C182.293 250.657 181.977 251.404 181.889 252.193C181.801 252.982 181.945 253.779 182.304 254.488C182.642 255.148 183.11 255.733 183.679 256.208C184.249 256.684 184.908 257.04 185.618 257.255C187.471 257.836 189.444 257.545 191.322 257.255C191.63 257.173 191.893 256.972 192.053 256.697C192.213 256.421 192.257 256.094 192.176 255.786C192.088 255.482 191.887 255.223 191.613 255.064C191.34 254.905 191.015 254.858 190.708 254.932C189.162 255.162 187.454 255.427 185.968 254.821C186.104 254.872 185.72 254.692 185.677 254.667C185.53 254.581 185.387 254.487 185.25 254.385C185.327 254.436 185.302 254.385 185.191 254.325L185.003 254.146C185.003 254.146 184.695 253.813 184.772 253.907C184.673 253.77 184.582 253.627 184.499 253.48C184.457 253.408 184.42 253.334 184.388 253.258C184.388 253.351 184.388 253.334 184.388 253.198C184.332 253.045 184.289 252.888 184.26 252.728C184.26 252.941 184.26 252.489 184.26 252.446C184.26 252.403 184.26 252.284 184.26 252.403C184.26 252.318 184.26 252.241 184.311 252.156C184.35 252.035 184.405 251.921 184.473 251.814C184.641 251.538 184.852 251.29 185.097 251.079C185.646 250.58 186.251 250.144 186.899 249.781C188.214 249.03 189.665 248.548 191.169 248.363C191.483 248.355 191.782 248.226 192.005 248.003C192.227 247.781 192.356 247.482 192.364 247.167C192.362 246.851 192.235 246.548 192.012 246.324C191.788 246.1 191.485 245.974 191.169 245.972L191.109 245.997Z" fill="#010101"/>
<path d="M257.098 250.012C259.182 255.367 261.564 260.723 263.255 266.078C263.347 266.384 263.366 266.707 263.311 267.022C263.256 267.337 263.128 267.634 262.939 267.891C262.749 268.148 262.502 268.357 262.218 268.502C261.933 268.647 261.619 268.724 261.299 268.726L253.613 268.786C253.325 268.784 253.04 268.722 252.778 268.603C252.515 268.483 252.281 268.31 252.09 268.094C251.899 267.878 251.755 267.624 251.669 267.349C251.583 267.074 251.556 266.783 251.589 266.497L253.127 250.507C253.178 250.048 253.383 249.619 253.708 249.291C254.033 248.962 254.459 248.752 254.917 248.695C255.376 248.638 255.84 248.737 256.236 248.975C256.631 249.214 256.935 249.579 257.098 250.012Z" fill="#C05929"/>
<path d="M188.402 166.877L316.408 162.264L294.264 105.369H210.965L188.402 166.877Z" fill="#153A23"/>
<path d="M213.783 340.057C241.34 337.176 269.094 336.651 296.741 338.485C298.269 338.588 298.269 336.196 296.741 336.094C269.094 334.259 241.34 334.785 213.783 337.665C212.263 337.819 212.254 340.228 213.783 340.057Z" fill="#153A23"/>
<path d="M93.3084 495.633C87.9624 492.268 85.2381 485.161 87.45 479.182C89.6618 473.203 96.6476 469.385 102.984 470.555V468.257C93.3853 471.46 86.0836 460.203 86.1775 451.832C86.2287 446.92 87.9367 441.727 91.6773 438.379C95.4178 435.031 100.824 433.801 105.427 435.816C106.819 436.44 107.989 434.373 106.631 433.749C104.133 432.672 101.394 432.276 98.6933 432.603C95.9927 432.93 93.4272 433.968 91.2588 435.611C86.4252 439.182 84.0339 445.187 83.7863 451.063C83.3507 461.142 92.147 474.356 103.591 470.529C104.615 470.188 104.837 468.454 103.591 468.232C96.1693 466.856 88.2186 470.794 85.3576 477.909C82.4967 485.024 85.6138 493.677 92.0787 497.709C93.3853 498.563 94.5894 496.462 93.2828 495.65L93.3084 495.633Z" fill="#153A23"/>
<path d="M145.377 396.764C143.141 396.423 141.05 395.448 139.351 393.956C137.651 392.463 136.414 390.516 135.787 388.342C134.343 383.585 136.333 378.733 140.227 375.795C148.895 369.269 160.296 375.701 161.825 385.754L162.679 384.285C159.212 384.917 156.308 381.492 156.129 378.246C155.95 375.001 158.631 372.566 161.518 371.669C168.913 369.397 174.481 376.119 176.113 382.611C176.488 384.097 178.794 383.465 178.418 381.97C177.24 377.29 174.575 372.746 170.237 370.362C168.376 369.34 166.279 368.823 164.156 368.864C162.032 368.904 159.957 369.5 158.136 370.593C154.72 372.737 152.867 376.726 154.199 380.672C155.531 384.618 159.161 387.352 163.311 386.591C163.617 386.507 163.879 386.306 164.038 386.031C164.198 385.757 164.244 385.43 164.165 385.122C163.719 382.264 162.567 379.563 160.813 377.263C159.059 374.963 156.76 373.137 154.122 371.951C151.542 370.833 148.703 370.45 145.92 370.845C143.136 371.24 140.516 372.397 138.349 374.189C136.169 375.841 134.528 378.102 133.634 380.687C132.74 383.272 132.633 386.064 133.327 388.71C134.787 393.971 139.22 398.336 144.711 399.079C146.214 399.276 146.863 396.978 145.343 396.773L145.377 396.764Z" fill="#153A23"/>
<path d="M327.083 368.774C338.237 364.435 351.713 374.36 350.816 386.318L352.012 385.122C348.852 384.823 346.632 382.107 345.957 379.143C345.214 375.855 346.64 372.694 349.014 370.439C354.949 364.802 363.788 365.87 371.218 366.895C372.721 367.1 373.37 364.802 371.85 364.588C362.823 363.341 351.474 362.359 345.504 370.901C341.234 376.948 344.035 386.771 352.037 387.522C352.353 387.518 352.655 387.391 352.878 387.167C353.101 386.944 353.229 386.642 353.233 386.327C354.232 372.916 339.014 361.599 326.469 366.476C325.051 367.031 325.666 369.337 327.109 368.782L327.083 368.774Z" fill="#153A23"/>
<path d="M376.009 391.887C379.203 390.136 382.986 392.468 384.549 395.364C386.744 399.37 385.48 404.469 384.455 408.629C384.402 408.832 384.403 409.045 384.459 409.248C384.514 409.451 384.621 409.635 384.769 409.784C384.918 409.932 385.102 410.04 385.305 410.095C385.508 410.15 385.721 410.151 385.924 410.098C394.336 407.535 403.295 416.931 400.442 425.182C399.938 426.643 402.244 427.275 402.74 425.823C406.156 415.821 395.344 404.725 385.267 407.792L386.736 409.261C388.017 404.059 389.298 397.695 385.882 393.032C383.32 389.615 378.734 387.685 374.779 389.846C373.43 390.58 374.634 392.647 375.984 391.904L376.009 391.887Z" fill="#153A23"/>
<path d="M420.426 440.096C424.781 439.6 428.172 443.512 428.377 447.638C428.59 451.977 426.105 456.051 423.381 459.212C418.335 465.018 411.557 469.049 404.046 470.709C402.748 470.999 403.013 473.143 404.362 473.049C409.802 472.69 414.559 477.166 413.611 482.735C413.424 483.869 413.021 484.957 412.424 485.938C411.877 486.793 410.716 487.484 410.28 488.356C409.845 489.227 410.349 490.764 410.468 491.67L411.049 496.18C411.245 497.683 413.611 497.7 413.44 496.18L413.03 493.019C412.919 492.165 412.424 490.688 412.62 489.859C412.868 488.851 413.901 488.082 414.482 487.143C415.873 484.856 416.405 482.15 415.985 479.507C415.046 474.057 409.802 470.299 404.362 470.64L404.687 472.981C414.038 470.871 423.031 465.14 428.052 456.829C430.392 452.959 431.759 448.074 429.888 443.743C428.283 440.01 424.593 437.2 420.426 437.678C418.914 437.858 418.897 440.241 420.426 440.07V440.096Z" fill="#153A23"/>
<path d="M401.928 427.591C406.028 426.036 411.553 425.028 415.285 428.069C417.847 430.145 419.435 434.595 416.993 437.38C415.985 438.533 417.668 440.232 418.701 439.088C421.152 436.269 421.007 432.255 419.213 429.128C417.095 425.413 412.971 423.747 408.82 423.781C406.238 423.839 403.688 424.356 401.288 425.31C399.862 425.857 400.476 428.163 401.92 427.617L401.928 427.591Z" fill="#153A23"/>
<path d="M210.666 365.109C208.792 356.853 210.071 348.195 214.252 340.834C214.397 340.562 214.431 340.245 214.347 339.949C214.263 339.652 214.069 339.4 213.803 339.243C213.538 339.087 213.223 339.039 212.923 339.109C212.623 339.18 212.362 339.363 212.194 339.621C207.705 347.546 206.343 356.863 208.377 365.741C208.727 367.245 211.033 366.596 210.683 365.109H210.666Z" fill="#153A23"/>
<path d="M222.741 361.624C221.954 359.113 221.782 356.449 222.242 353.858C222.701 351.266 223.778 348.824 225.38 346.736C225.536 346.46 225.578 346.134 225.497 345.828C225.415 345.521 225.217 345.258 224.945 345.096C224.668 344.947 224.346 344.909 224.042 344.99C223.739 345.071 223.478 345.265 223.313 345.532C221.544 347.893 220.36 350.64 219.86 353.547C219.359 356.455 219.557 359.44 220.435 362.256C220.905 363.717 223.211 363.111 222.741 361.624Z" fill="#153A23"/>
<path d="M238.412 365.477C239.13 361.206 238.318 356.593 237.729 352.374C237.14 348.154 236.602 343.491 234.953 339.493C234.373 338.084 232.058 338.699 232.648 340.125C234.219 343.935 234.749 348.325 235.329 352.374C235.688 354.808 235.97 357.251 236.123 359.711C236.319 361.414 236.319 363.133 236.123 364.836C235.876 366.339 238.173 366.988 238.429 365.468L238.412 365.477Z" fill="#153A23"/>
<path d="M246.713 344.704C247.174 350.102 246.953 355.538 246.056 360.881C245.799 362.385 248.105 363.034 248.361 361.513C249.313 355.963 249.562 350.316 249.104 344.704C248.976 343.183 246.585 343.175 246.713 344.704Z" fill="#153A23"/>
<path d="M261.12 361.377C262.401 357.361 262.865 353.13 262.487 348.932C262.351 344.742 261.321 340.629 259.463 336.871C258.737 335.513 256.671 336.717 257.405 338.075C259.224 341.492 259.899 345.472 260.121 349.282C260.442 353.152 259.998 357.047 258.814 360.745C258.302 362.197 260.608 362.82 261.12 361.377Z" fill="#153A23"/>
<path d="M267.816 342.765C271.187 348.46 272.351 355.196 271.086 361.693C270.787 363.196 273.093 363.837 273.392 362.325C274.801 355.205 273.546 347.815 269.865 341.56C269.705 341.286 269.443 341.087 269.137 341.006C268.83 340.925 268.504 340.969 268.23 341.129C267.956 341.289 267.756 341.551 267.675 341.857C267.594 342.164 267.639 342.49 267.798 342.765H267.816Z" fill="#153A23"/>
<path d="M296.963 341.569C300.636 347.403 302.223 354.311 301.463 361.163C301.301 362.692 303.692 362.684 303.854 361.163C304.633 353.887 302.939 346.56 299.046 340.364C298.192 339.066 296.16 340.262 296.98 341.569H296.963Z" fill="#153A23"/>
<path d="M288.363 361.368C287.088 358.682 286.456 355.736 286.517 352.764C286.577 349.791 287.329 346.874 288.713 344.242C289.439 342.884 287.381 341.68 286.655 343.038C285.07 346.039 284.212 349.37 284.152 352.763C284.091 356.157 284.828 359.517 286.305 362.573C286.971 363.956 289.029 362.743 288.363 361.368Z" fill="#153A23"/>
<path d="M225.807 371.14C241.099 370.183 256.383 369.147 271.659 368.031C279.225 367.461 286.786 366.892 294.341 366.322C298.116 366.032 301.893 365.747 305.674 365.468C308.577 365.229 311.421 364.956 313.932 363.367C315.221 362.513 314.026 360.471 312.719 361.3C309.696 363.222 305.827 363.068 302.369 363.341L291.975 364.195C284.574 364.765 277.173 365.32 269.771 365.861C255.128 366.92 240.473 367.911 225.807 368.833C224.287 368.927 224.27 371.319 225.807 371.217V371.14Z" fill="#153A23"/>
<path d="M107.92 433.732C104.607 431.904 101.37 428.607 101.532 424.533C101.669 421.039 105.521 417.367 109.082 418.99C110.047 419.425 111.49 418.434 110.722 417.35C109.543 415.71 108.365 413.378 109.355 411.37C110.132 409.807 112.378 409.039 113.625 410.516C114.436 411.456 115.897 410.448 115.624 409.355C114.872 406.399 113.813 400.574 118.391 400.258C122.797 399.959 125 404.597 126.572 407.945C127.101 409.073 128.775 408.441 128.801 407.339L129.031 398.797C129.031 397.747 128.673 395.381 129.945 394.902C131.388 394.398 132.772 396.337 133.515 397.251C134.488 398.447 136.171 396.747 135.223 395.543C133.472 393.399 129.766 390.725 127.434 393.835C126.367 395.244 126.7 397.542 126.649 399.182L126.427 407.364L128.656 406.767C126.546 402.291 122.977 396.576 117.092 398.08C111.678 399.455 112.267 405.836 113.335 410.038L115.333 408.876C113.437 406.681 110.013 407.117 108.1 409.09C105.538 411.78 106.75 415.974 108.663 418.639L110.295 417.008C105.794 414.958 100.687 418.084 99.4231 422.688C97.9115 428.206 102.199 433.382 106.725 435.876C108.074 436.619 109.287 434.561 107.929 433.818L107.92 433.732Z" fill="#153A23"/>
<path d="M178.547 371.105C179.408 368.558 181.012 366.327 183.151 364.698C185.29 363.069 187.867 362.117 190.551 361.964C193.235 361.81 195.903 362.463 198.214 363.838C200.525 365.212 202.371 367.247 203.518 369.679C204.209 371.054 206.267 369.85 205.584 368.475C204.199 365.637 201.999 363.278 199.266 361.697C196.532 360.116 193.39 359.387 190.24 359.601C187.09 359.816 184.076 360.965 181.582 362.901C179.089 364.838 177.229 367.474 176.241 370.473C175.728 371.925 178.043 372.549 178.547 371.105Z" fill="#153A23"/>
<path d="M226.089 476.039C224.381 473.476 222.852 470.111 224.424 467.104C226.08 463.935 229.394 464.499 231.853 466.318C235.637 469.128 241.914 475.953 238.685 480.924L240.564 480.685C238.728 479.122 238.856 476.414 240.146 474.535C241.615 472.357 244.373 471.495 246.824 471.025C250.872 470.239 257.243 469.513 259.72 473.698C259.879 473.972 260.141 474.172 260.448 474.253C260.755 474.334 261.081 474.289 261.355 474.13C261.629 473.97 261.828 473.708 261.909 473.401C261.99 473.094 261.946 472.768 261.786 472.494C258.439 466.831 249.899 467.574 244.467 469.12C241.435 469.974 238.566 471.682 237.37 474.749C236.328 477.363 236.653 480.489 238.873 482.376C239.005 482.502 239.162 482.596 239.335 482.652C239.507 482.709 239.69 482.726 239.87 482.704C240.05 482.681 240.222 482.618 240.375 482.52C240.527 482.422 240.656 482.291 240.752 482.137C242.913 478.721 241.803 474.894 239.813 471.708C237.729 468.36 234.629 464.687 230.965 463.047C229.437 462.303 227.679 462.185 226.065 462.717C224.45 463.25 223.108 464.392 222.323 465.9C220.299 469.684 221.819 473.903 223.988 477.243C224.842 478.533 226.892 477.337 226.055 476.039H226.089Z" fill="#153A23"/>
<path d="M283.128 405.511C284.162 405.044 285.281 404.796 286.415 404.784C287.549 404.772 288.674 404.995 289.717 405.44C290.761 405.885 291.7 406.541 292.477 407.368C293.254 408.195 293.851 409.174 294.23 410.243C294.597 411.289 294.743 412.4 294.657 413.506C294.597 414.309 294.247 416.154 293.231 416.299C291.933 416.478 292.428 414.727 292.966 414.215C293.841 413.528 294.92 413.152 296.032 413.147C300.302 412.848 304.179 415.872 306.083 419.476C308.492 424.012 308.261 429.513 307.535 434.441C307.313 435.945 309.61 436.594 309.833 435.082C310.687 429.479 310.891 423.423 308.125 418.263C305.921 414.112 301.472 410.755 296.647 410.73C294.495 410.73 291.856 411.362 290.609 413.292C289.567 414.881 289.755 417.35 291.548 418.357C293.581 419.528 295.639 417.871 296.459 416.043C297.318 413.756 297.248 411.223 296.262 408.987C295.739 407.704 294.967 406.537 293.992 405.553C293.016 404.569 291.857 403.787 290.579 403.251C289.301 402.716 287.93 402.437 286.545 402.432C285.159 402.427 283.786 402.696 282.504 403.222C281.095 403.803 281.71 406.117 283.136 405.528L283.128 405.511Z" fill="#153A23"/>
<path d="M193.406 404.981C199.273 406.331 205.567 401.334 205.422 395.27C205.422 393.732 202.997 393.724 203.031 395.27C203.142 399.745 198.376 403.675 194.047 402.675C192.544 402.325 191.912 404.631 193.406 404.981Z" fill="#153A23"/>
<path d="M125.658 449.577C122.908 447.424 118.211 448.8 117.537 452.421C116.802 456.359 121.473 459.348 124.864 457.546L123.105 456.837C123.489 457.888 122.011 458.913 121.397 459.622C120.88 460.137 120.478 460.756 120.216 461.437C119.954 462.119 119.838 462.848 119.876 463.577C120.175 466.686 123.181 468.975 125.684 470.41C125.955 470.542 126.266 470.567 126.554 470.48C126.843 470.393 127.088 470.2 127.241 469.939C127.393 469.679 127.441 469.371 127.376 469.076C127.31 468.782 127.136 468.523 126.888 468.351C125.129 467.343 121.491 465.003 122.353 462.475C122.737 461.339 123.882 460.527 124.608 459.613C125.032 459.166 125.329 458.614 125.47 458.013C125.611 457.413 125.591 456.786 125.41 456.197C125.357 456.023 125.265 455.863 125.142 455.73C125.019 455.596 124.868 455.491 124.7 455.423C124.531 455.355 124.349 455.326 124.168 455.337C123.987 455.348 123.81 455.4 123.651 455.488C122.02 456.342 119.501 454.719 119.876 452.823C120.201 451.225 122.652 450.2 123.967 451.234C125.282 452.268 126.871 450.491 125.675 449.526L125.658 449.577Z" fill="#153A23"/>
<path d="M337.972 448.432C337.485 452.951 337.323 457.828 339.005 462.159C340.688 466.489 343.916 468.3 348.322 469.359C349.646 469.684 352.046 470.376 352.131 472.135C352.217 473.895 349.928 474.049 348.869 474.698C348.058 475.211 347.365 475.889 346.834 476.688C346.302 477.487 345.946 478.389 345.786 479.336C344.608 484.956 349.441 490.875 346.888 496.154C346.222 497.529 348.288 498.717 348.954 497.358C351.687 491.695 347.46 486.579 347.972 480.848C347.985 480.098 348.155 479.36 348.473 478.681C348.791 478.003 349.249 477.399 349.817 476.91C350.671 476.261 351.858 476.124 352.78 475.543C353.553 475.066 354.124 474.321 354.386 473.451C354.647 472.58 354.58 471.644 354.198 470.82C353.344 468.719 351.397 467.719 349.322 467.173C346.452 466.412 343.933 465.926 342.208 463.278C339.466 459.067 339.842 453.224 340.363 448.458C340.525 446.938 338.134 446.946 337.972 448.458V448.432Z" fill="#153A23"/>
<path d="M173.457 446.826C175.017 449.507 175.684 452.614 175.362 455.699C175.04 458.784 173.744 461.687 171.663 463.987C171.537 464.116 171.441 464.273 171.384 464.445C171.326 464.617 171.308 464.8 171.331 464.98C171.354 465.159 171.418 465.332 171.517 465.484C171.615 465.636 171.747 465.763 171.902 465.857C177.547 468.249 178.299 475.253 177.932 480.625C177.505 486.895 176.283 493.532 179.921 499.126C180.775 500.416 182.825 499.22 181.988 497.922C177.846 491.542 180.767 483.863 180.357 476.842C180.058 471.657 178.265 465.977 173.107 463.799L173.354 465.669C175.797 462.989 177.325 459.601 177.715 455.996C178.104 452.39 177.337 448.754 175.523 445.614C175.363 445.339 175.099 445.141 174.792 445.06C174.484 444.98 174.158 445.026 173.884 445.187C173.61 445.347 173.411 445.611 173.331 445.918C173.25 446.226 173.296 446.552 173.457 446.826Z" fill="#153A23"/>
<path d="M76.6383 351.059C77.8358 346.764 79.337 342.559 81.1303 338.477C81.4292 337.853 81.9843 337.127 82.6334 337.401C83.2824 337.674 83.1629 338.468 83.0177 339.109C82.1067 342.953 81.1901 346.793 80.2678 350.631C83.859 350.297 87.4776 350.848 90.8062 352.237C90.897 352.28 90.9748 352.346 91.0315 352.429C91.0882 352.512 91.1217 352.608 91.1287 352.708C91.1357 352.808 91.1158 352.909 91.0711 352.998C91.0264 353.088 90.9585 353.165 90.8745 353.22C88.8752 354.501 86.5252 355.125 84.1535 355.005C83.2995 355.005 82.3345 354.86 81.7196 355.44C81.357 355.864 81.123 356.383 81.0449 356.935C80.2571 360.246 79.0398 363.439 77.424 366.433C77.3583 366.547 77.2599 366.637 77.1417 366.694C77.0235 366.75 76.8911 366.769 76.7618 366.749C76.6325 366.728 76.5124 366.67 76.4172 366.58C76.322 366.49 76.2562 366.373 76.2284 366.245C75.5537 363.264 76.8945 359.908 76.8176 356.722C76.8408 356.364 76.7512 356.009 76.5614 355.705C76.2495 355.38 75.8314 355.177 75.3829 355.133C72.0089 354.381 68.6971 353.373 65.4764 352.118C64.6224 351.785 63.5806 350.819 64.2211 350.136C64.4361 349.947 64.7049 349.831 64.9897 349.803C66.9876 349.397 69.0466 349.397 71.0446 349.803L76.6383 351.059Z" fill="white"/>
<path d="M48.7209 380.621C45.4757 383.696 46.2699 390.204 51.838 388.641C60.0706 386.335 54.289 375.351 48.7209 380.621Z" fill="white"/>
<path d="M57.4744 243.153C53.0165 247.364 54.1182 256.29 61.7445 254.146C73.0173 250.985 65.1007 235.935 57.4744 243.153Z" fill="white"/>
<path d="M167.222 89.9512C166.99 85.5062 167.079 81.0502 167.487 76.6178C167.564 75.9431 167.88 75.0633 168.563 75.1231C169.246 75.1829 169.417 75.9772 169.468 76.5922C169.839 80.5213 170.197 84.4562 170.545 88.3967C173.841 86.9253 177.448 86.2887 181.049 86.5432C181.149 86.5528 181.245 86.5895 181.326 86.6493C181.407 86.7092 181.47 86.7899 181.509 86.883C181.547 86.976 181.56 87.0778 181.545 87.1774C181.53 87.277 181.489 87.3708 181.425 87.4486C179.94 89.3 177.917 90.6434 175.634 91.2923C174.78 91.5229 173.858 91.7279 173.457 92.4881C173.251 93.0061 173.198 93.5722 173.303 94.1195C173.621 97.5389 173.486 100.985 172.902 104.369C172.876 104.499 172.812 104.617 172.718 104.709C172.624 104.801 172.504 104.862 172.374 104.884C172.245 104.906 172.111 104.888 171.992 104.833C171.873 104.778 171.773 104.688 171.706 104.574C170.118 101.961 170.314 98.3561 169.229 95.3666C169.123 95.0334 168.925 94.7372 168.657 94.5124C168.252 94.3123 167.792 94.2551 167.351 94.3501C163.913 94.7159 160.453 94.8215 157 94.6662C156.069 94.6662 154.797 94.0341 155.181 93.197C155.325 92.9465 155.543 92.7467 155.804 92.6248C157.575 91.615 159.529 90.9675 161.552 90.72L167.222 89.9512Z" fill="white"/>
<path d="M153.089 116.797C150.621 119.129 151.227 124.075 155.463 122.888C161.714 121.137 157.325 112.791 153.089 116.797Z" fill="white"/>
<path d="M343.147 76.2506C338.501 80.6495 339.646 89.9171 347.605 87.7305C359.373 84.4249 351.115 68.717 343.147 76.2506Z" fill="white"/>
<path d="M363.609 96.2891C361.141 98.6209 361.756 103.566 365.983 102.379C372.235 100.628 367.845 92.2489 363.609 96.2891Z" fill="white"/>
<path d="M102.19 259.476C99.722 261.808 100.328 266.753 104.556 265.566C110.807 263.815 106.417 255.47 102.19 259.476Z" fill="white"/>
<path d="M430.529 261.919C430.533 258.489 430.781 255.063 431.272 251.669C431.357 251.148 431.639 250.481 432.126 250.558C432.613 250.635 432.741 251.242 432.766 251.72C432.886 254.769 433.005 257.81 433.116 260.859C435.714 259.857 438.518 259.514 441.281 259.86C441.357 259.871 441.43 259.903 441.49 259.952C441.55 260.001 441.595 260.065 441.622 260.138C441.648 260.211 441.654 260.289 441.639 260.365C441.624 260.441 441.589 260.512 441.537 260.569C440.321 261.936 438.709 262.889 436.925 263.294C436.285 263.439 435.542 263.567 435.217 264.148C435.037 264.537 434.975 264.971 435.038 265.395C435.139 268.035 434.895 270.677 434.312 273.253C434.288 273.352 434.235 273.441 434.16 273.508C434.084 273.575 433.99 273.618 433.89 273.63C433.789 273.642 433.687 273.623 433.598 273.576C433.509 273.528 433.436 273.454 433.39 273.364C432.262 271.289 432.536 268.513 431.844 266.164C431.78 265.897 431.64 265.654 431.443 265.463C431.14 265.292 430.787 265.228 430.443 265.284C427.778 265.428 425.106 265.371 422.45 265.113C421.741 265.045 420.742 264.541 421.109 263.9C421.234 263.718 421.409 263.575 421.613 263.49C423.024 262.766 424.566 262.336 426.148 262.226L430.529 261.919Z" fill="white"/>
<path d="M455.415 234.492C452.169 237.567 452.964 244.075 458.532 242.512C466.756 240.206 460.983 229.23 455.415 234.492Z" fill="white"/>
<path d="M236.328 30.9632C233.083 34.0382 233.877 40.5468 239.446 38.9837C247.661 36.6775 241.896 25.7016 236.328 30.9632Z" fill="white"/>
<path d="M427.258 375.052C422.023 380.006 423.313 390.486 432.28 387.975C445.534 384.251 436.225 366.57 427.258 375.052Z" fill="white"/>
</svg>
