<svg width="492" height="423" viewBox="0 0 492 423" fill="none" xmlns="http://www.w3.org/2000/svg">
<g clip-path="url(#clip0_1_1118)">
<path d="M370.527 63.6429C477.288 158.545 493.769 239.143 488.704 267.589C465.873 394.714 365.865 417.938 335.878 419.625C296.325 421.795 232.816 418.902 191.012 420.027C76.6137 426.536 30.2275 362.33 21.3843 329.464C-33.2823 194.946 43.3314 91.3661 88.5118 56.4108C204.598 -44.2767 324.945 19.2858 370.527 63.6429Z" fill="#F7BC28"/>
<path d="M189.645 157.902C185.786 173.491 179.194 189.402 165.929 198.482C153.629 206.92 136.908 207.884 123.161 202.018C109.414 196.152 98.8019 184.098 93.4157 170.196C89.396 159.75 88.5921 146.732 96.2294 138.455C100.249 134.116 105.876 131.786 111.424 129.616L147.439 115.232C148.24 114.74 149.196 114.566 150.119 114.744C151.042 114.923 151.864 115.441 152.424 116.196L189.967 151.714" fill="#32142A"/>
<path d="M150.655 122.464C146.625 126.465 141.768 129.537 136.425 131.464C131.071 133.316 125.509 134.504 119.865 135C117.614 135.241 115.363 135.482 113.433 136.527C111.793 137.537 110.438 138.947 109.494 140.625C107.657 143.889 106.689 147.568 106.68 151.313C106.283 160.064 109.083 168.661 114.559 175.5C121.553 184.259 132.084 190.527 143.339 191.491C154.835 192.455 167.055 186.75 172.361 176.304C173.406 174.214 174.049 167.223 170.753 174.938C167.055 183.536 155.8 187.795 146.555 187.955C136.024 188.116 125.894 182.652 118.98 175.018C115.524 171.241 110.78 166.741 109.494 161.839C108.931 159.358 108.608 156.829 108.529 154.286C108.313 151.979 108.422 149.652 108.851 147.375C109.655 144 113.916 140.143 117.051 139.098C119.061 138.455 121.231 138.536 123.322 138.455C130.557 138.134 137.471 135.08 143.339 130.902C144.786 129.857 146.233 128.732 147.68 127.607C148.321 127.128 148.889 126.56 149.369 125.92C149.591 125.577 149.722 125.183 149.75 124.775C149.778 124.368 149.702 123.96 149.529 123.589C149.333 123.275 149.022 123.048 148.662 122.958C148.302 122.869 147.921 122.922 147.6 123.107C147.52 123.107 147.52 123.188 147.439 123.188L150.655 122.464Z" fill="#7F4341"/>
<path d="M122.598 157.58C122.196 154.366 121.553 150.268 123.884 147.616C126.216 144.964 130.316 144.804 133.612 144.884C137.712 145.045 144.625 143.277 148.565 141.268C151.941 139.58 152.584 141.429 155.398 139.098C157.167 137.571 154.594 135.08 152.825 136.527C149.851 139.098 146.314 141.509 142.375 142.071C138.114 142.714 133.612 140.866 129.351 141.348C125.814 141.75 122.276 143.196 120.267 146.33C118.096 149.625 121.231 155.089 121.714 158.786C121.718 159.253 121.906 159.701 122.236 160.031C122.567 160.362 123.015 160.549 123.482 160.554C124.447 160.634 122.759 158.545 122.598 157.58Z" fill="#7F4341"/>
<path d="M166.331 166.58C170.11 162.964 170.833 162.321 173.245 157.661C173.467 157.24 173.524 156.752 173.405 156.291C173.286 155.83 173 155.431 172.602 155.17C171.798 154.688 171.878 154.286 171.396 155.17C169.175 159.655 166.243 163.753 162.714 167.304C161.99 167.946 157.729 170.036 158.453 170.679C159.176 171.321 163.357 169.152 164.08 168.509L166.331 166.58Z" fill="#7F4341"/>
<path d="M169.306 313.393C176.461 316.929 184.661 318.134 192.539 317.571C198.649 317.17 208.296 316.446 211.029 309.857C216.818 295.795 222.606 280.366 228.474 265.982C230.323 261.482 225.42 258.67 221.963 257.223C215.823 254.86 209.219 253.952 202.669 254.571C197.523 254.973 188.278 256.661 185.304 261.562L183.776 264.616L169.306 313.393Z" fill="#E48929"/>
<path d="M174.773 315.643L175.657 315.723C180.32 316.045 203.151 317.25 211.431 308.893L212.476 306.241L174.773 315.643Z" fill="#C05929"/>
<path d="M223.731 275.625C225.098 276.027 226.384 276.429 227.671 276.911L228.153 277.071C228.41 277.174 228.653 277.309 228.876 277.473C229.118 277.634 229.359 277.714 229.6 277.875L229.922 278.116C230.324 278.357 229.68 277.955 230.002 278.196C230.832 278.845 231.482 279.695 231.89 280.665C232.298 281.636 232.451 282.695 232.333 283.741C231.931 288.562 227.51 291.616 223.008 292.339C222.525 292.42 223.329 292.339 222.847 292.339L222.284 292.42H220.194C220.033 292.42 219.31 292.339 219.551 292.339C218.2 292.183 216.891 291.775 215.692 291.134C215.1 290.807 214.406 290.717 213.75 290.881C213.094 291.045 212.524 291.451 212.155 292.018C211.981 292.312 211.868 292.638 211.823 292.977C211.777 293.315 211.8 293.66 211.89 293.989C211.98 294.319 212.135 294.627 212.346 294.896C212.557 295.165 212.82 295.388 213.12 295.553C216.047 297.049 219.332 297.705 222.609 297.45C225.887 297.194 229.03 296.037 231.69 294.107C234.584 291.937 236.835 288.884 237.318 285.268C237.638 283.539 237.566 281.761 237.107 280.064C236.647 278.368 235.813 276.796 234.665 275.464C232.253 272.652 228.475 271.527 225.018 270.482C221.882 269.679 220.516 274.661 223.731 275.625Z" fill="#E48929"/>
<path d="M179.676 282.134C179.991 284.312 180.745 286.404 181.892 288.282C183.039 290.161 184.555 291.787 186.349 293.062C189.886 295.714 195.996 297.321 200.337 297.723C198.89 299.812 194.71 300.696 192.218 301.339C189.716 302.036 187.067 302.008 184.58 301.259C180.882 300.054 178.149 296.839 176.782 293.223C175.553 289.549 175.276 285.623 175.978 281.812" fill="#C05929"/>
<path d="M146.716 120.375C141.249 93.3749 166.492 67.3392 191.253 61.0713C240.855 48.616 247.045 122.464 204.437 148.982C195.433 154.527 182.731 143.598 172.522 140.786C162.312 137.973 153.227 130.821 148.886 121.178" fill="#32142A"/>
<path d="M183.937 69.1875C168.1 71.4375 168.582 42.0268 183.696 39.0536C189.725 37.8482 196.8 39.9375 200.82 44.5982C203.312 47.4911 207.974 65.9732 201.463 66.7768C195.594 67.5 189.725 68.3036 183.937 69.1875Z" fill="#32142A"/>
<path d="M143.42 145.527C143.018 146.25 150.575 142.553 150.816 143.277C152.665 148.178 156.765 151.473 161.267 154.045C166.171 156.857 174.933 164.491 180.561 164.491C193.022 164.33 205.241 149.464 213.12 139.821C221.48 129.616 224.053 117.562 226.304 104.625C226.786 101.812 226.867 98.6785 225.178 96.4285C224.187 95.21 222.92 94.2458 221.48 93.616C207.974 86.7856 191.092 90.7231 178.712 99.4017C167.618 107.277 159.498 118.366 151.861 129.616C149.61 132.991 148.082 137.491 143.42 145.527Z" fill="#FFC9A0"/>
<path d="M154.594 129.777C147.761 129.134 143.018 120.938 145.269 114.509C147.52 108.08 155.72 104.625 162.151 106.955C168.582 109.286 172.602 116.679 171.637 123.509" fill="#FFC9A0"/>
<path d="M132.888 159.75L149.931 136.607C150.261 136.019 150.81 135.586 151.459 135.402C151.786 135.423 152.106 135.513 152.397 135.665C152.687 135.817 152.943 136.029 153.147 136.286C157.167 139.982 161.508 144.402 161.106 149.866C160.945 152.518 159.578 154.929 158.292 157.259L148.404 174.938L132.888 159.75Z" fill="#FFC9A0"/>
<path d="M128.145 151.714C77.1764 174.455 49.6823 227.813 36.6588 279.482C31.6745 299.089 29.3431 318.616 27.7353 338.705C27.4941 341.679 25.7254 387.804 24.198 387.804C66.8862 387.884 90.2804 381.938 132.888 382.018C123.723 303.509 137.069 239.625 153.629 175.018L128.145 151.714Z" fill="#FAC7B7"/>
<path d="M228.716 95.2231C228.423 94.3578 228.046 93.5234 227.59 92.7321C222.767 83.7321 211.19 81.1606 201.784 82.9285C190.127 85.1785 179.918 92.7321 170.914 101.089C167.376 104.384 161.025 109.607 160.222 112.178C159.418 114.75 176.863 121.5 180.561 121.982C190.288 123.348 200.418 122.062 209.824 119.25C214.647 117.803 221.882 116.518 225.982 113.464C226.947 112.661 231.047 101.732 228.716 95.2231Z" fill="#32142A"/>
<path d="M152.343 331.795C155.88 323.277 164.884 318.134 173.888 315.884C182.892 313.634 192.298 313.473 201.302 311.223C210.306 308.973 219.39 303.991 223.008 295.554C224.455 292.179 223.892 286.795 220.194 286.554C218.798 286.603 217.451 287.08 216.335 287.92C211.753 290.732 207.573 294.188 202.829 296.679C198.086 299.17 192.539 300.777 187.314 299.491C182.088 298.205 177.506 293.545 177.667 288.161C177.92 285.848 178.378 283.563 179.033 281.33C179.435 279.884 174.049 282.857 172.602 284.464C171.155 286.072 169.627 287.679 168.984 289.768C165.045 302.464 152.504 310.098 140.927 316.607" fill="#FFC9A0"/>
<path d="M153.227 124.312C150.816 122.143 148.243 118.205 150.092 114.911C150.98 113.47 152.288 112.336 153.841 111.661C155.393 110.986 157.115 110.802 158.774 111.134C159.9 111.375 160.382 109.607 159.257 109.366C155.237 108.643 150.574 110.25 148.565 114.027C146.314 118.045 148.886 122.866 152.022 125.598C152.825 126.402 154.112 125.116 153.227 124.312Z" fill="#32142A"/>
<path d="M156.041 120.696C155.8 120.375 155.559 119.973 155.318 119.652C155.194 119.446 155.087 119.231 154.996 119.009C154.916 118.848 154.835 118.768 154.835 118.607C154.744 118.404 154.69 118.186 154.674 117.964C154.755 118.125 154.674 117.884 154.674 117.884V117.241C154.669 117.197 154.674 117.153 154.688 117.112C154.702 117.07 154.724 117.032 154.755 117C154.755 116.92 154.755 116.92 154.835 116.839C154.916 116.759 154.916 116.679 154.996 116.598C155.076 116.518 155.157 116.357 155.076 116.518L155.237 116.357L155.318 116.277C155.398 116.196 155.478 116.196 155.559 116.116C155.398 116.196 155.559 116.116 155.639 116.116C155.72 116.116 155.8 116.036 155.88 116.036H157.327L157.569 116.116L158.131 116.277C158.366 116.362 158.625 116.351 158.851 116.245C159.077 116.14 159.252 115.949 159.337 115.714C159.422 115.48 159.411 115.221 159.306 114.995C159.2 114.769 159.009 114.594 158.774 114.509C158.694 114.509 158.694 114.509 158.614 114.429C157.656 114.11 156.636 114.027 155.639 114.188C155.154 114.26 154.691 114.442 154.287 114.721C153.883 114.999 153.548 115.367 153.308 115.795C153.069 116.248 152.924 116.746 152.883 117.257C152.841 117.768 152.904 118.282 153.067 118.768C153.364 119.806 153.885 120.766 154.594 121.58C154.744 121.768 154.957 121.895 155.193 121.939C155.429 121.983 155.672 121.941 155.88 121.821C156.002 121.664 156.08 121.477 156.108 121.28C156.137 121.083 156.113 120.882 156.041 120.696Z" fill="#32142A"/>
<path d="M206.286 301.5C208.778 299.973 211.11 298.366 213.522 296.679C217.059 294.188 220.837 291.857 223.169 288.08C224.053 286.634 221.802 285.348 220.918 286.795C218.747 290.25 215.049 292.42 211.833 294.67C209.582 296.277 207.251 297.804 204.92 299.25C203.553 300.134 204.839 302.384 206.286 301.5Z" fill="#EFB086"/>
<path d="M211.833 304.152C214.447 302.54 216.921 300.712 219.229 298.687C221.4 296.679 223.41 294.348 225.42 292.098C226.545 290.893 224.696 289.045 223.571 290.25C221.561 292.42 219.631 294.67 217.461 296.679C215.32 298.602 213.005 300.324 210.547 301.821C209.18 302.786 210.467 305.036 211.833 304.152Z" fill="#EFB086"/>
<path d="M219.792 266.545C218.586 266.625 217.461 266.545 216.255 266.545C213.682 266.545 211.11 266.464 208.537 266.223C203.241 265.839 198.007 264.842 192.941 263.25C191.494 262.768 189.725 261.723 190.208 260.357C190.529 259.554 191.494 259.152 192.378 258.83C201.865 255.777 207.251 255.696 220.757 259.795C222.767 260.438 227.59 262.768 225.5 264.777C225.016 265.22 224.439 265.549 223.812 265.741C222.518 266.201 221.164 266.471 219.792 266.545Z" fill="#32142A"/>
<path d="M196.237 126C200.659 124.232 206.045 124.393 210.708 125.197C210.987 125.292 211.283 125.331 211.578 125.309C211.873 125.288 212.16 125.207 212.423 125.072C212.685 124.937 212.918 124.75 213.107 124.523C213.296 124.296 213.437 124.033 213.522 123.75C214.084 122.143 212.396 121.098 211.029 120.616C207.01 119.25 202.588 119.652 198.569 120.857C196.531 121.514 194.564 122.376 192.7 123.429C191.494 124.152 188.359 125.598 188.6 127.366C188.922 129.777 194.629 126.643 195.674 126.161L196.237 126Z" fill="#32142A"/>
<path d="M179.516 113.304C188.359 113.786 193.424 114.027 201.945 111.295C208.354 109.331 214.199 105.858 218.988 101.17C221.561 98.5179 222.365 92.4108 223.169 88.7144C223.651 86.4644 221.4 90.3215 220.274 92.9733C217.943 98.5983 214.647 100.848 209.663 103.822C203.887 107.367 197.363 109.513 190.61 110.089C185.465 110.411 181.043 110.973 171.637 110.893C169.306 110.893 173.004 112.902 175.335 113.063L179.516 113.304Z" fill="#7F4341"/>
<path d="M164 93.6161C165.769 89.6786 168.743 86.625 172.12 83.9732C177.425 79.7038 183.296 76.1884 189.565 73.5268C192.62 72.2411 195.996 70.7143 199.292 70.1518C202.427 69.5893 205.884 71.5179 208.618 72.8036C210.036 73.3381 211.385 74.0395 212.637 74.8929C213.29 75.388 213.792 76.0561 214.084 76.8214C214.406 78.3482 212.959 78.4286 211.753 78.5089C205.804 78.75 199.533 78.9107 193.665 80.3571C187.796 81.8036 182.973 85.1786 178.229 88.9554C177.425 89.5982 175.094 92.4107 175.737 93.0536C176.38 93.6964 181.284 88.7946 182.088 88.1518C185.187 85.5281 188.802 83.5843 192.7 82.4464C198.006 80.6786 204.598 82.4464 210.145 82.2054C213.039 82.0446 220.435 82.8482 219.631 81.2411C218.827 79.6339 215.773 72.4018 212.798 70.875C209.78 69.261 206.6 67.9682 203.312 67.0179C201.932 66.6028 200.484 66.4662 199.051 66.6161C197.798 66.8521 196.562 67.1742 195.353 67.5804C188.466 69.6792 182.088 73.1813 176.622 77.8661C170.351 83.3304 164.161 88.875 160.784 96.5893C159.739 98.6786 163.035 95.7857 164 93.6161Z" fill="#7F4341"/>
<path d="M186.349 101.33C195.112 103.741 203.794 101.25 209.341 93.8572C209.904 93.0536 212.074 88.7947 211.673 88.7947C211.271 88.7947 210.065 90.9643 209.502 91.7679C204.92 97.875 193.745 100.929 186.51 100.125C180.078 99.4822 184.018 100.768 186.349 101.33Z" fill="#7F4341"/>
<path d="M161.427 301.821L163.437 299.571L171.637 316.527L168.02 317.812L161.427 301.821Z" fill="#EFB086"/>
<path d="M160.222 153.563L150.816 143.357L156.202 161.116L160.222 153.563Z" fill="#EFB086"/>
<path d="M202.267 130.179C200.096 130.339 197.363 132.027 197.363 134.036C197.363 136.688 200.9 135.563 202.106 134.679C202.99 134.036 204.598 133.072 204.678 131.866C204.759 130.661 203.633 130.098 202.267 130.179Z" fill="#32142A"/>
<path d="M212.718 136.929C210.788 137.893 208.859 140.464 209.663 142.393C210.708 144.884 213.522 142.473 214.325 141.107C214.888 140.223 216.014 138.696 215.612 137.491C215.21 136.286 213.923 136.286 212.718 136.929Z" fill="#32142A"/>
<path d="M24.198 360.964C25.0823 351.241 23.0725 339.348 22.9921 329.625C22.9117 321.75 22.4294 315.804 24.9215 308.411C25.1169 307.877 25.5087 307.439 26.0168 307.185C26.5249 306.931 27.1109 306.881 27.6549 307.045C27.9682 307.159 28.2528 307.341 28.4888 307.577C28.7248 307.813 28.9066 308.097 29.0215 308.411C31.3529 315.241 35.2921 322.232 36.8196 329.384C36.8357 329.513 36.8784 329.637 36.9449 329.748C37.0115 329.86 37.1004 329.957 37.2062 330.032C37.3119 330.108 37.4322 330.16 37.5594 330.187C37.6865 330.214 37.8179 330.214 37.9451 330.187C38.111 330.152 38.2649 330.074 38.3917 329.961C38.5185 329.849 38.6139 329.705 38.6686 329.545C39.9549 325.125 40.1157 320.384 40.6784 315.804C41.0024 312.496 41.8716 309.265 43.251 306.241C43.7118 305.359 44.4975 304.689 45.4423 304.375C46.3871 304.06 47.4172 304.124 48.3157 304.554C48.7536 304.752 49.1447 305.041 49.4633 305.401C49.7819 305.761 50.0209 306.184 50.1647 306.643L53.7823 316.446C54.4424 318.289 55.2212 320.088 56.1137 321.83C57.7079 324.373 59.7508 326.606 62.1431 328.42C73.3176 337.661 88.0294 341.839 102.5 342.482C116.971 343.125 131.441 340.312 145.429 336.696L132.808 361.446L133.853 424.366H24.0372L24.198 360.964Z" fill="#E48929"/>
<path d="M60.8568 360.804C56.6764 351.482 51.2902 335.089 48.9588 326.411C43.8941 307.687 39.8745 288.482 41.3215 269.116L45.1 262.125C59.0882 293.062 74.6039 325.768 103.304 343.929C104.671 344.812 106.118 345.696 106.922 347.062C107.645 348.268 130.476 346.259 130.557 347.705C130.959 352.205 132.004 356.304 132.969 361.366L60.8568 360.804Z" fill="#E48929"/>
<path d="M91.1647 240.991C93.898 219.536 105.555 198.804 106.359 177.188C106.439 174.616 106.359 171.964 104.831 169.875C100.892 164.33 92.1294 167.947 86.9843 172.286C58.7667 195.83 40.598 231.83 41.1608 268.554C41.3216 278.759 42.849 288.884 44.8588 298.929C48.1549 315.563 53.0588 332.759 65.1176 344.732C80.2314 359.679 103.867 363.054 124.608 358.714C145.349 354.375 164.08 343.286 182.329 332.438C173.647 310.982 164.965 289.58 156.282 268.232C145.671 274.741 134.576 281.491 122.196 282.697C107.002 284.143 94.3 274.982 91.4863 259.875C90.3751 253.638 90.2665 247.263 91.1647 240.991Z" fill="#FAC7B7"/>
<path d="M94.3 170.518C97.4353 169.393 100.892 169.152 103.706 171.161C106.198 172.848 107.404 175.982 107.645 178.875C107.794 180.933 107.577 183.001 107.002 184.982C106.906 185.313 106.945 185.667 107.111 185.969C107.277 186.27 107.556 186.493 107.886 186.589C108.217 186.685 108.572 186.646 108.873 186.48C109.175 186.314 109.398 186.036 109.494 185.705C110.692 181.735 110.464 177.472 108.851 173.652C108.147 171.993 107.032 170.539 105.612 169.429C104.192 168.318 102.512 167.587 100.731 167.304C98.2903 166.968 95.8038 167.244 93.4961 168.107C92.049 168.589 92.6922 171.08 94.3 170.518Z" fill="#F9A793"/>
<path d="M47.6725 311.545C46.7882 308.009 78.9451 314.116 81.598 314.759C87.2254 316.045 88.7529 319.902 90.3607 325.045C93.898 336.696 97.596 348.348 100.571 360.161C100.651 360.08 60.2137 361.527 47.6725 311.545Z" fill="#F9B7A5"/>
<path d="M155.8 267.027C150.916 269.943 145.808 272.469 140.525 274.58C135.672 276.653 130.674 278.372 125.573 279.723C120.735 281.103 115.603 281.075 110.78 279.643C105.314 278.036 100.088 274.821 97.1137 269.92C93.9589 264.478 92.321 258.29 92.3706 252C92.3706 251.659 92.2351 251.332 91.9938 251.091C91.7526 250.85 91.4254 250.714 91.0843 250.714C90.7432 250.714 90.416 250.85 90.1748 251.091C89.9335 251.332 89.798 251.659 89.798 252C89.784 257.871 91.1034 263.668 93.6568 268.955C96.3902 274.58 100.973 278.438 106.68 280.929C112.025 283.315 117.97 284.015 123.724 282.938C128.832 281.744 133.833 280.131 138.676 278.116C144.958 275.781 151.013 272.876 156.765 269.438L155.8 267.027Z" fill="#F9A793"/>
<path d="M207.09 135.321C206.769 135.562 206.447 135.804 206.206 135.964C202.91 138.777 200.096 142.393 197.122 145.607C196.607 146.035 196.264 146.634 196.157 147.295C196.157 148.098 196.88 148.741 197.604 149.223C200.176 151.071 203.151 153 206.608 150.509C207.955 149.474 208.941 148.04 209.422 146.411C210.529 142.953 211.125 139.353 211.19 135.723C211.271 132.911 208.778 134.196 207.09 135.321Z" fill="#E48929"/>
<path d="M202.347 395.839C202.347 395.839 221.561 244.286 362.89 232.634L370.929 220.018L418.361 216L424.471 232.634C424.471 232.634 486.051 268.473 478.012 340.071L410.322 368.036V398.652L202.347 395.839Z" fill="#39B55D"/>
<path d="M418.441 216C418.441 216 413.859 175.339 413.216 171.563C411.849 164.25 410.643 151.313 407.588 144.563C402.926 134.277 390.224 129.054 379.29 131.866C366.829 135 358.147 147.696 353.324 158.866C348.822 169.232 338.773 200.571 348.822 210.134C356.298 217.286 371.492 212.866 379.29 208.446L377.441 219.616L418.441 216Z" fill="#B26D55"/>
<path d="M408.875 172.527C409.116 169.393 412.09 167.304 414.984 166.098C417.044 165.144 419.312 164.73 421.576 164.893C422.7 164.984 423.787 165.337 424.75 165.923C425.713 166.509 426.526 167.312 427.123 168.268C427.749 169.452 428.027 170.789 427.927 172.125C427.767 176.143 425.275 179.679 422.782 182.893C419.245 187.634 415.386 192.616 409.839 194.705" fill="#B26D55"/>
<path d="M410.322 368.036C409.116 347.223 407.91 326.33 410.08 305.518C412.251 284.705 413.135 250.071 424.471 232.634C439.825 241.955 461.773 265.661 468.606 282.294C475.278 298.446 480.665 309.857 478.012 340.071L410.322 368.036Z" fill="#39B55D"/>
<path d="M362.89 232.634L355.253 244.446L351.073 233.92C350.992 234 359.273 232.634 362.89 232.634Z" fill="#194429"/>
<path d="M349.867 180.804C348.586 184.794 347.776 188.92 347.455 193.098C347.36 194.148 347.554 195.204 348.018 196.152C348.106 196.346 348.245 196.512 348.42 196.634C348.627 196.7 348.845 196.727 349.063 196.714C352.037 196.554 355.092 196.393 357.825 195.187C358.305 195.016 358.723 194.709 359.031 194.304C359.187 194.04 359.289 193.747 359.33 193.444C359.371 193.14 359.352 192.832 359.273 192.536C358.469 187.473 354.851 184.018 352.359 179.116C352.208 178.884 351.978 178.715 351.711 178.641C351.445 178.567 351.16 178.593 350.912 178.714C350.816 178.764 350.731 178.832 350.662 178.914C350.593 178.997 350.541 179.093 350.51 179.196C350.269 179.679 350.108 180.241 349.867 180.804Z" fill="#C05929"/>
<path d="M478.012 340.072C477.5 360.87 474.256 381.511 468.365 401.464C464.747 414 461.129 437.304 450.437 445.982C440.388 454.018 424.551 447.67 414.18 443.571C400.514 438.188 386.686 434.17 373.02 429.107C355.253 422.518 328.482 418.661 308.867 420.348C299.3 421.232 295.361 414.241 285.875 415.205C284.186 415.366 282.257 415.527 280.89 414.563C279.849 413.742 279.045 412.661 278.559 411.429L273.896 402.188C273.098 400.911 272.68 399.434 272.69 397.929C272.851 395.598 274.861 393.83 276.871 392.545C287.161 385.634 299.461 382.42 311.761 380.732C346.329 375.991 380.737 383.786 411.126 400.902C411.447 389.813 411.769 382.982 412.412 367.152L478.012 340.072Z" fill="#B26D55"/>
<path d="M336.843 411.75C341.667 413.437 354.369 413.116 357.665 416.25C361.122 419.464 331.618 420.67 328 421.071C299.541 423.723 271.082 425.411 242.543 426.536C215.371 427.58 186.188 430.955 159.257 426.857C148.243 425.17 144.465 420.428 143.902 409.42C142.616 382.5 141.41 355.5 140.123 328.58C140.012 325.964 140.856 323.397 142.497 321.357C144.139 319.317 146.467 317.943 149.047 317.491C196.162 309.703 243.938 306.634 291.663 308.33C293.398 308.385 295.055 309.067 296.326 310.249C297.597 311.43 298.396 313.033 298.576 314.759C299.863 328.259 304.686 359.598 305.651 363.214C308.384 373.42 311.278 383.946 316.745 393.027C321.569 401.223 324.865 407.652 336.843 411.75Z" fill="#194429"/>
<path d="M411.608 172.848C413.221 172.358 414.783 171.712 416.271 170.92C417.637 170.357 419.647 169.473 421.094 170.357C421.978 170.839 421.898 171.884 421.818 172.768C421.689 173.775 421.474 174.77 421.175 175.741C420.599 177.682 419.731 179.525 418.602 181.205C417.238 183.137 415.377 184.664 413.216 185.625C412.171 186.107 413.055 187.634 414.1 187.152C418.522 185.143 421.416 180.964 422.782 176.384C423.1 175.249 423.342 174.095 423.506 172.928C423.728 171.798 423.528 170.626 422.943 169.634C421.657 167.866 419.245 167.946 417.396 168.509C415.226 169.152 413.216 170.437 411.045 171C410.933 171.034 410.828 171.091 410.738 171.167C410.648 171.243 410.575 171.336 410.522 171.442C410.47 171.547 410.439 171.662 410.432 171.779C410.425 171.897 410.442 172.014 410.482 172.125C410.556 172.358 410.709 172.558 410.914 172.69C411.12 172.822 411.365 172.878 411.608 172.848Z" fill="#32142A"/>
<path d="M410.643 177.348C411.219 177.169 411.783 176.955 412.331 176.705C412.634 176.621 412.93 176.514 413.216 176.384C413.376 176.304 413.537 176.304 413.698 176.223L413.859 176.143C413.859 176.143 414.1 176.063 413.939 176.143H414.502C414.582 176.143 414.743 176.223 414.582 176.143C414.422 176.063 414.663 176.223 414.663 176.223L414.823 176.384L414.904 176.545C414.904 176.625 414.984 176.705 414.984 176.786C414.823 176.545 414.984 176.866 414.984 176.866V176.946C414.904 176.786 414.984 176.786 414.984 176.946V177.268C414.984 177.348 414.904 177.429 414.984 177.188V177.268C414.988 177.38 414.96 177.492 414.904 177.589L414.823 177.75C414.73 177.945 414.622 178.133 414.502 178.313L414.341 178.634L414.261 178.714C414.1 178.875 414.422 178.554 414.261 178.795C413.959 179.161 413.637 179.51 413.296 179.839C413.126 180.02 412.937 180.181 412.733 180.321L412.653 180.402L412.573 180.482L412.251 180.723C411.867 180.994 411.464 181.235 411.045 181.446L410.723 181.607C410.643 181.607 410.563 181.688 410.723 181.607L410.563 181.688C410.402 181.768 410.241 181.768 410.08 181.848C409.964 181.88 409.855 181.934 409.76 182.008C409.665 182.081 409.585 182.173 409.526 182.278C409.466 182.382 409.427 182.497 409.412 182.617C409.397 182.736 409.406 182.857 409.437 182.973C409.469 183.089 409.523 183.198 409.597 183.293C409.671 183.388 409.762 183.468 409.867 183.528C409.971 183.587 410.087 183.626 410.206 183.641C410.325 183.656 410.447 183.648 410.563 183.616C411.464 183.38 412.31 182.971 413.055 182.411C414.004 181.772 414.868 181.016 415.627 180.161C416.374 179.34 416.826 178.294 416.914 177.188C416.902 176.554 416.671 175.944 416.261 175.46C415.851 174.977 415.286 174.651 414.663 174.536C413.135 174.375 411.688 175.339 410.241 175.661C410.125 175.692 410.016 175.747 409.921 175.82C409.826 175.894 409.746 175.986 409.686 176.09C409.627 176.195 409.588 176.31 409.573 176.429C409.558 176.548 409.566 176.67 409.598 176.786C409.598 177.268 410.08 177.509 410.643 177.348Z" fill="#32142A"/>
<path d="M361.282 254.411C365.865 245.411 370.608 236.571 375.592 227.732C376.396 226.286 374.145 225 373.341 226.446C368.437 235.205 363.694 244.125 359.031 253.125C358.308 254.652 360.559 255.937 361.282 254.411Z" fill="#194429"/>
<path d="M396.173 256.179L399.308 223.393C399.469 221.705 396.896 221.786 396.735 223.393L393.6 256.259C393.439 257.866 396.012 257.866 396.173 256.179Z" fill="#194429"/>
<path d="M408.071 246.616V225.402C408.071 225.061 407.935 224.734 407.694 224.493C407.453 224.251 407.125 224.116 406.784 224.116C406.443 224.116 406.116 224.251 405.875 224.493C405.634 224.734 405.498 225.061 405.498 225.402V246.616C405.496 246.785 405.528 246.954 405.592 247.111C405.655 247.268 405.75 247.41 405.87 247.53C405.99 247.65 406.132 247.744 406.29 247.808C406.447 247.872 406.615 247.904 406.784 247.902C407.123 247.894 407.445 247.755 407.685 247.516C407.924 247.277 408.062 246.954 408.071 246.616Z" fill="#194429"/>
<path d="M385.882 250.473C386.541 244.418 387.562 238.407 388.937 232.473C389.339 230.866 386.847 230.143 386.445 231.75C385.004 237.891 383.956 244.118 383.31 250.393C383.308 250.562 383.339 250.73 383.403 250.887C383.467 251.044 383.562 251.187 383.682 251.307C383.802 251.427 383.944 251.521 384.101 251.585C384.258 251.649 384.427 251.681 384.596 251.679C384.926 251.687 385.246 251.566 385.487 251.34C385.728 251.114 385.87 250.803 385.882 250.473Z" fill="#194429"/>
<path d="M372.939 255.455L384.114 225.723C384.676 224.196 382.184 223.473 381.622 225L370.447 254.732C369.884 256.259 372.376 256.982 372.939 255.455Z" fill="#194429"/>
<path d="M412.09 221.866C414.261 228.295 416.753 234.643 418.763 241.152C418.859 241.482 419.082 241.761 419.384 241.927C419.685 242.092 420.04 242.132 420.371 242.036C420.701 241.94 420.98 241.717 421.146 241.415C421.312 241.114 421.351 240.759 421.255 240.429C419.326 233.92 416.833 227.571 414.582 221.143C414.02 219.616 411.527 220.339 412.09 221.866Z" fill="#194429"/>
<path d="M412.412 367.152C412.251 348.348 412.653 329.464 413.618 310.741C413.859 305.437 414.18 300.134 414.582 294.83C414.663 293.143 412.09 293.143 412.01 294.83C410.723 313.58 410 332.384 409.839 351.241C409.759 356.545 409.759 362.973 409.759 368.277L412.412 367.152Z" fill="#194429"/>
<path d="M397.057 393.75L412.573 330.75L412.653 401.705L397.057 393.75Z" fill="#194429"/>
<path d="M412.573 400.741C414.975 402.015 417.193 403.61 419.165 405.482L412.653 389.652L412.573 400.741Z" fill="#A05744"/>
<path d="M370.045 172.045C369.241 173.813 369.402 176.143 369.643 178.071C370.125 181.366 372.939 180.402 373.824 177.83C374.547 175.741 374.869 172.929 373.582 171.08C372.296 169.232 370.769 170.357 370.045 172.045Z" fill="#32142A"/>
<path d="M342.551 175.661C341.896 177.601 341.758 179.678 342.149 181.688C342.631 184.982 345.445 184.018 346.329 181.447C347.053 179.357 347.374 176.545 346.088 174.696C344.802 172.848 343.274 174.054 342.551 175.661Z" fill="#32142A"/>
<path d="M353.082 176.384C353.645 175.982 354.208 175.661 354.69 175.259C355.222 174.879 355.823 174.606 356.459 174.455C358.227 174.134 360.157 173.893 361.684 175.018C361.886 175.118 362.117 175.137 362.332 175.072C362.548 175.008 362.73 174.863 362.842 174.669C362.955 174.475 362.989 174.245 362.939 174.026C362.888 173.807 362.755 173.616 362.569 173.491C360.72 172.125 358.388 172.366 356.298 172.688C354.758 173.083 353.328 173.825 352.118 174.857C351.92 174.979 351.777 175.172 351.717 175.396C351.657 175.62 351.685 175.859 351.796 176.063C351.938 176.259 352.145 176.399 352.38 176.458C352.616 176.517 352.864 176.491 353.082 176.384Z" fill="#32142A"/>
<path d="M353.243 158.705C352.841 159.911 381.863 148.179 395.047 145.607L400.112 181.688C403.241 176.513 407.302 171.963 412.09 168.268C412.09 168.268 414.984 130.018 388.535 130.259C388.535 130.259 363.373 129.295 353.243 158.705Z" fill="#FAC7B7"/>
<path d="M368.92 164.411C369.482 164.411 370.126 164.33 370.688 164.33C373.796 164.058 376.918 164.671 379.692 166.098C382.024 167.223 384.194 168.67 386.526 169.795C387.329 170.197 388.294 170.518 388.857 169.634C389.024 169.252 389.103 168.837 389.089 168.42C389.075 168.003 388.968 167.594 388.777 167.223C387.098 163.627 384.454 160.567 381.139 158.384C378.797 157.109 376.17 156.445 373.502 156.455C371.251 156.455 366.186 156.938 364.257 158.304C361.845 159.991 365.061 163.447 367.714 164.25C368.109 164.348 368.513 164.402 368.92 164.411Z" fill="#FAC7B7"/>
<path d="M350.992 162.321C348.58 161.518 340.702 162.08 338.531 163.768C336.522 165.214 337.888 165.616 339.898 167.062C340.702 167.625 344.159 168.027 345.124 168.107C353.726 169.232 354.851 168.911 355.575 167.062C355.621 166.931 355.638 166.791 355.624 166.652C355.61 166.513 355.566 166.379 355.494 166.259C354.931 164.571 353.404 163.446 351.877 162.643C351.475 162.482 351.233 162.402 350.992 162.321Z" fill="#FAC7B7"/>
<path d="M340.863 165.054C334.753 165.295 330.09 170.679 329.286 176.545C328.884 179.759 329.206 183.214 331.135 185.946C332.768 188.349 335.229 190.066 338.049 190.768C344.078 192.295 350.349 188.679 352.6 182.973C353.279 181.203 353.587 179.313 353.504 177.419C353.421 175.525 352.949 173.668 352.118 171.964C351.117 169.843 349.52 168.059 347.521 166.832C345.522 165.604 343.208 164.986 340.863 165.054C340.745 165.059 340.629 165.089 340.524 165.142C340.418 165.194 340.324 165.268 340.249 165.359C340.173 165.45 340.117 165.555 340.084 165.669C340.052 165.782 340.043 165.901 340.059 166.018C340.087 166.221 340.18 166.41 340.326 166.555C340.471 166.7 340.659 166.794 340.863 166.821C342.642 166.777 344.401 167.199 345.966 168.045C347.532 168.891 348.849 170.131 349.786 171.643C351.05 173.549 351.721 175.785 351.716 178.071C351.721 180.812 350.716 183.459 348.891 185.505C347.067 187.55 344.552 188.852 341.827 189.161C340.518 189.278 339.199 189.136 337.944 188.742C336.69 188.349 335.526 187.713 334.518 186.869C333.51 186.026 332.678 184.992 332.07 183.827C331.462 182.663 331.09 181.389 330.974 180.08V179.839C330.687 176.599 331.603 173.367 333.547 170.759C334.415 169.613 335.515 168.662 336.776 167.97C338.037 167.278 339.429 166.859 340.863 166.741C340.974 166.741 341.083 166.719 341.186 166.677C341.288 166.634 341.381 166.572 341.46 166.494C341.538 166.416 341.6 166.323 341.643 166.22C341.685 166.118 341.707 166.008 341.707 165.897C341.707 165.787 341.685 165.677 341.643 165.574C341.6 165.472 341.538 165.379 341.46 165.301C341.381 165.222 341.288 165.16 341.186 165.118C341.083 165.075 340.974 165.054 340.863 165.054Z" fill="#32142A"/>
<path d="M373.1 159.589C366.99 159.83 362.327 165.214 361.524 171.08C361.122 174.295 361.443 177.75 363.373 180.482C365.005 182.885 367.467 184.601 370.286 185.304C376.316 186.83 382.586 183.214 384.837 177.509C385.514 175.752 385.821 173.875 385.738 171.994C385.655 170.114 385.184 168.27 384.355 166.58C383.349 164.458 381.752 162.67 379.756 161.43C377.76 160.19 375.45 159.551 373.1 159.589C372.845 159.614 372.61 159.737 372.445 159.932C372.28 160.127 372.198 160.379 372.216 160.634C372.244 160.837 372.337 161.026 372.482 161.171C372.628 161.316 372.816 161.41 373.02 161.437C374.798 161.393 376.558 161.815 378.123 162.661C379.689 163.507 381.006 164.747 381.943 166.259C383.171 168.181 383.839 170.407 383.872 172.687C383.878 175.428 382.872 178.075 381.048 180.121C379.224 182.167 376.709 183.468 373.984 183.777C372.675 183.894 371.355 183.752 370.101 183.358C368.847 182.965 367.683 182.329 366.675 181.486C365.667 180.642 364.835 179.608 364.227 178.444C363.619 177.279 363.247 176.005 363.131 174.696V174.455C362.844 171.215 363.76 167.983 365.704 165.375C366.572 164.229 367.672 163.278 368.933 162.586C370.194 161.894 371.586 161.475 373.02 161.357C373.136 161.362 373.252 161.345 373.361 161.305C373.47 161.266 373.571 161.205 373.657 161.127C373.742 161.048 373.812 160.954 373.861 160.849C373.911 160.743 373.939 160.629 373.944 160.513C373.949 160.397 373.932 160.281 373.892 160.172C373.853 160.063 373.792 159.962 373.713 159.877C373.635 159.791 373.541 159.721 373.435 159.672C373.33 159.623 373.216 159.595 373.1 159.589Z" fill="#32142A"/>
<path d="M386.204 175.098C395.69 172.607 405.016 169.875 414.341 166.821C414.576 166.757 414.775 166.603 414.896 166.392C415.016 166.181 415.048 165.931 414.984 165.696C414.92 165.462 414.766 165.263 414.555 165.142C414.344 165.021 414.093 164.99 413.859 165.054C404.614 168.107 395.208 170.839 385.722 173.33C385.49 173.419 385.301 173.594 385.196 173.819C385.091 174.044 385.078 174.301 385.159 174.536C385.247 174.732 385.397 174.893 385.586 174.995C385.775 175.096 385.992 175.133 386.204 175.098Z" fill="#32142A"/>
<path d="M356.057 155.571C354.931 150.991 365.141 148.661 365.463 152.598C365.543 153.804 364.418 154.366 363.533 153.402C362.569 152.277 363.292 150.509 363.855 149.384C364.851 147.636 366.33 146.213 368.116 145.286C369.939 144.32 372.039 144.008 374.065 144.402C374.646 144.516 375.177 144.81 375.581 145.243C375.985 145.676 376.242 146.225 376.316 146.813C376.476 147.295 377.039 150.107 375.914 148.982C375.271 148.339 375.592 146.893 375.833 146.17C376.343 144.796 377.33 143.651 378.614 142.943C379.897 142.235 381.393 142.011 382.827 142.313V140.625C381.692 140.824 380.525 140.752 379.422 140.417C378.319 140.082 377.31 139.493 376.476 138.696C374.708 136.768 375.592 134.598 377.682 133.554C378.587 133.098 379.586 132.863 380.599 132.867C381.612 132.871 382.609 133.114 383.51 133.576C384.411 134.038 385.19 134.706 385.784 135.526C386.378 136.346 386.77 137.295 386.927 138.295C387.169 139.42 388.937 138.938 388.696 137.813C387.571 131.946 380.335 128.893 375.512 132.83C375.019 133.193 374.603 133.65 374.288 134.174C373.972 134.698 373.764 135.279 373.674 135.884C373.584 136.489 373.615 137.106 373.765 137.699C373.915 138.292 374.181 138.849 374.547 139.339C374.627 139.5 374.788 139.58 374.869 139.741C376.878 142.152 380.175 142.875 383.229 142.473C384.114 142.313 384.033 140.946 383.229 140.705C378.567 139.5 372.537 143.839 373.824 148.982C373.937 149.502 374.193 149.979 374.562 150.362C374.931 150.745 375.399 151.019 375.914 151.152C376.178 151.216 376.452 151.228 376.72 151.186C376.989 151.144 377.246 151.049 377.478 150.907C377.71 150.766 377.911 150.579 378.07 150.359C378.23 150.139 378.344 149.889 378.406 149.625C378.542 148.313 378.348 146.987 377.843 145.768C377.634 145.156 377.296 144.595 376.852 144.124C376.409 143.653 375.869 143.282 375.271 143.036C370.045 141.027 363.694 144.884 361.684 149.705C360.72 152.036 361.122 155.732 364.337 155.893C366.749 155.973 367.633 153.321 366.829 151.393C365.543 148.42 361.604 148.741 359.031 149.545C356.137 150.429 353.404 152.839 354.208 156.214C354.304 156.444 354.485 156.629 354.713 156.73C354.941 156.832 355.199 156.842 355.434 156.761C355.67 156.679 355.865 156.51 355.981 156.289C356.097 156.068 356.124 155.812 356.057 155.571Z" fill="white"/>
<path d="M392.073 144.321C391.831 142.071 391.349 138.857 393.68 137.411C394.187 137.149 394.763 137.055 395.327 137.141C395.89 137.228 396.411 137.491 396.816 137.893C397.708 138.779 398.274 139.94 398.423 141.187C398.504 141.75 398.584 142.393 398.665 143.036C398.665 143.518 398.906 144.321 398.504 144.723C398.102 145.125 398.424 144.241 398.504 144.08C398.768 143.588 399.156 143.172 399.629 142.875C401.478 141.589 404.373 141.027 405.659 143.357C406.159 144.418 406.459 145.562 406.543 146.732C406.624 147.696 407.025 150.187 405.578 150.348C404.453 150.429 404.373 152.277 405.578 152.116C407.508 151.875 408.473 150.187 408.553 148.42C408.62 146.61 408.319 144.806 407.669 143.116C407.377 142.318 406.882 141.61 406.234 141.06C405.586 140.511 404.806 140.139 403.971 139.982C402.081 139.76 400.179 140.278 398.665 141.429C397.459 142.313 395.931 144.241 396.896 145.848C397.861 147.455 400.031 146.411 400.433 144.964C400.66 144.043 400.687 143.084 400.514 142.152C400.462 141.158 400.245 140.181 399.871 139.259C399.599 138.381 399.122 137.58 398.479 136.923C397.836 136.266 397.045 135.772 396.173 135.482C395.227 135.233 394.227 135.303 393.325 135.681C392.424 136.059 391.673 136.723 391.188 137.571C389.902 139.58 390.063 142.071 390.384 144.321C390.384 145.446 392.233 145.446 392.073 144.321Z" fill="white"/>
<path d="M398.584 156.697C398.504 156.295 399.067 155.973 399.388 155.973C399.625 155.948 399.865 155.979 400.088 156.063C400.312 156.146 400.512 156.281 400.674 156.455C401.229 157.083 401.64 157.823 401.88 158.625C402.202 159.509 402.523 160.795 401.961 161.598C401.801 161.843 401.562 162.025 401.283 162.113C401.005 162.201 400.704 162.189 400.433 162.08C399.388 161.357 401.398 160.393 401.961 160.313C402.925 160.152 403.971 159.911 404.533 160.875C405.417 162.681 405.91 164.652 405.98 166.661C406.117 168.581 405.926 170.51 405.418 172.366C405.181 173.305 404.858 174.219 404.453 175.098C404.212 175.661 403.569 177.268 403.086 176.143C402.609 175.201 402.441 174.133 402.604 173.089C402.936 172.211 403.561 171.473 404.372 171C406.061 169.795 407.99 168.83 409.759 167.705C410.723 167.063 409.839 165.536 408.874 166.179L404.855 168.589C403.752 169.145 402.747 169.878 401.88 170.759C400.272 172.607 400.433 175.42 401.72 177.509C401.925 177.921 402.285 178.237 402.721 178.387C403.157 178.537 403.634 178.511 404.051 178.313C405.096 177.83 405.659 176.705 406.141 175.741C407.196 173.306 407.744 170.681 407.749 168.027C407.81 165.375 407.289 162.741 406.222 160.313C406.032 159.803 405.708 159.354 405.283 159.014C404.858 158.674 404.349 158.457 403.81 158.384C402.567 158.236 401.308 158.46 400.192 159.027C398.504 159.911 397.539 162.563 399.549 163.688C401.237 164.652 403.408 163.447 403.89 161.679C404.533 159.429 403.327 155.893 401.318 154.688C399.308 153.482 396.494 154.768 396.896 157.259C396.896 158.304 398.665 157.822 398.584 156.697Z" fill="white"/>
<path d="M411.447 158.786C411.151 158.403 410.883 158 410.643 157.58C410.413 157.181 410.25 156.747 410.161 156.295C410.029 155.852 409.975 155.39 410 154.928V153.723C410 153.803 410 153.482 410.08 153.482C410.127 153.249 410.087 153.006 409.969 152.799C409.851 152.593 409.662 152.436 409.437 152.357C409.321 152.325 409.2 152.317 409.08 152.332C408.961 152.347 408.846 152.386 408.741 152.445C408.637 152.505 408.545 152.585 408.471 152.68C408.398 152.775 408.343 152.884 408.312 153C408.075 154.236 408.11 155.509 408.416 156.731C408.721 157.952 409.289 159.092 410.08 160.071C410.259 160.226 410.487 160.311 410.724 160.311C410.96 160.311 411.188 160.226 411.367 160.071C411.516 159.894 411.604 159.673 411.618 159.442C411.633 159.21 411.573 158.98 411.447 158.786Z" fill="white"/>
<path d="M233.137 362.893C233.539 374.143 226.304 386.116 209.743 380.732C192.218 375.027 210.869 346.5 226.786 354.134C231.208 356.223 233.057 359.438 233.137 362.893Z" fill="#FAC7B7"/>
<path d="M22.9921 396.321C52.3353 396.482 81.7588 395.759 111.102 394.071C119.302 393.589 127.582 393.107 135.782 392.464C136.465 392.464 137.119 392.193 137.601 391.711C138.084 391.229 138.355 390.575 138.355 389.893C138.355 389.211 138.084 388.557 137.601 388.074C137.119 387.592 136.465 387.321 135.782 387.321C106.439 389.491 77.0961 390.696 47.6725 391.098C39.3921 391.178 31.1921 391.178 22.9117 391.178C19.6157 391.178 19.6157 396.321 22.9921 396.321Z" fill="#FAC7B7"/>
<path d="M20.1784 378.723C50.9686 379.286 81.6784 379.527 112.469 379.607H138.274C141.571 379.607 141.651 374.384 138.274 374.464C107.484 374.545 76.7209 374.384 45.9843 373.982C37.3823 373.902 28.7804 373.741 20.1784 373.58C16.8019 373.5 16.8019 378.643 20.1784 378.723Z" fill="#FAC7B7"/>
<path d="M12.7019 362.973C46.3862 364.018 80.0437 363.857 113.674 362.491C123.08 362.089 132.567 361.607 141.973 361.045C145.269 360.804 145.269 355.661 141.973 355.902C108.369 357.991 74.7111 358.848 41 358.473C31.5137 358.393 22.1078 358.152 12.6215 357.83C9.32545 357.75 9.32545 362.893 12.7019 362.973Z" fill="#FAC7B7"/>
<path d="M9.64704 345.214C30.549 345.75 51.4778 345.589 72.4333 344.732C75.7294 344.571 75.8098 339.428 72.4333 339.589C51.5313 340.393 30.6026 340.553 9.64704 340.071C6.27057 339.991 6.27057 345.134 9.64704 345.214Z" fill="#FAC7B7"/>
<path d="M14.149 326.652H68.7353C72.0314 326.652 72.1117 321.428 68.7353 321.428H14.149C10.8529 321.509 10.8529 326.652 14.149 326.652Z" fill="#FAC7B7"/>
<path d="M20.1784 424.286C50.9686 424.848 81.6784 425.089 112.469 425.17H138.274C141.571 425.17 141.651 419.946 138.274 420.027C107.484 420.107 76.7209 419.946 45.9843 419.545C37.3823 419.464 28.7804 419.303 20.1784 419.143C16.8019 419.062 16.8019 424.205 20.1784 424.286Z" fill="#FAC7B7"/>
<path d="M12.7019 409.58C46.3862 410.625 80.0437 410.464 113.674 409.098C123.08 408.696 132.567 408.214 141.973 407.652C145.269 407.41 145.269 402.268 141.973 402.509C108.369 404.598 74.7111 405.455 41 405.08C31.5137 405 22.1078 404.759 12.6215 404.437C9.32545 404.277 9.32545 409.419 12.7019 409.58Z" fill="#FAC7B7"/>
<path d="M354.449 201.536C350.59 205.473 357.424 211.259 361.363 207.723C366.267 203.464 358.71 197.196 354.449 201.536Z" fill="#32142A"/>
<path d="M185.063 145.527C184.545 147.521 184.644 149.625 185.348 151.562C186.051 153.499 187.325 155.177 189.002 156.375C189.102 156.442 189.216 156.488 189.335 156.51C189.454 156.531 189.576 156.528 189.694 156.501C189.811 156.474 189.922 156.422 190.019 156.35C190.117 156.278 190.198 156.187 190.259 156.083C190.319 155.978 190.358 155.862 190.372 155.742C190.386 155.622 190.375 155.501 190.34 155.385C190.305 155.269 190.247 155.162 190.169 155.069C190.091 154.977 189.995 154.902 189.886 154.848C188.556 153.862 187.548 152.503 186.99 150.944C186.432 149.385 186.349 147.695 186.751 146.089C186.791 145.855 186.738 145.615 186.602 145.419C186.467 145.224 186.261 145.089 186.027 145.045C185.933 145.011 185.832 144.996 185.731 145.003C185.631 145.009 185.532 145.035 185.442 145.08C185.352 145.125 185.272 145.188 185.207 145.265C185.142 145.341 185.093 145.431 185.063 145.527Z" fill="#32142A"/>
<path d="M211.351 228.134C209.904 229.741 209.261 231.911 208.135 233.839C207.01 235.768 206.045 238.42 207.492 240.107C208.778 241.554 211.11 241.312 212.798 242.277C213.714 242.837 214.445 243.653 214.902 244.624C215.36 245.595 215.522 246.679 215.371 247.741C215.054 249.843 214.164 251.817 212.798 253.446C209.904 257.104 205.986 259.818 201.543 261.241L207.492 251.116C207.658 250.917 207.78 250.685 207.849 250.436C207.918 250.187 207.934 249.925 207.894 249.67C207.733 249.027 206.929 248.705 206.286 248.464L199.453 246.455C198.167 246.054 196.639 245.491 196.398 244.125C196.34 243.491 196.451 242.854 196.72 242.277C199.214 236.013 203.782 230.793 209.663 227.491C209.663 227.491 214.567 224.518 211.351 228.134Z" fill="white"/>
<path d="M226.626 221.062C225.011 223.256 223.56 225.566 222.284 227.973C221.4 229.661 219.551 232.473 220.355 234.482C221.48 237.214 225.902 235.768 226.867 238.42C228.314 242.437 225.902 246.214 223.49 249.268C221.824 251.414 220.025 253.454 218.104 255.375C217.172 256.348 216.178 257.261 215.129 258.107C214.808 258.348 212.075 259.795 212.155 259.554C212.477 256.5 216.094 253.527 217.782 251.116C219.471 248.705 221.239 246.375 222.686 243.884C223.973 241.634 220.435 240.429 218.988 239.786C215.933 238.42 213.682 237.696 215.531 233.839C217.175 230.369 219.14 227.06 221.4 223.955C223.329 221.384 226.063 217.045 229.439 216.08C228.939 217.683 228.148 219.181 227.108 220.5L226.626 221.062Z" fill="white"/>
<path d="M39.6334 183.937C36.8196 186.589 37.5432 192.134 42.2863 190.848C49.3608 188.839 44.4569 179.437 39.6334 183.937Z" fill="white"/>
<path d="M99.6863 67.5C97.8373 69.2679 98.3196 72.9643 101.455 72.0804C106.118 70.7947 102.822 64.5268 99.6863 67.5Z" fill="white"/>
<path d="M271.484 111.054C272.548 107.263 273.891 103.556 275.504 99.9644C275.745 99.4019 276.308 98.759 276.79 99.0001C277.273 99.2411 277.273 99.9644 277.112 100.447C276.308 103.822 275.504 107.277 274.7 110.652C277.881 110.323 281.094 110.821 284.025 112.098C284.088 112.119 284.145 112.154 284.192 112.199C284.24 112.245 284.276 112.301 284.299 112.362C284.322 112.424 284.331 112.49 284.326 112.555C284.32 112.621 284.3 112.684 284.267 112.741C284.267 112.822 284.186 112.902 284.106 112.982C282.331 114.108 280.257 114.668 278.157 114.589C277.788 114.492 277.402 114.477 277.026 114.547C276.651 114.616 276.296 114.768 275.986 114.991C275.686 115.361 275.492 115.805 275.423 116.277C274.725 119.218 273.644 122.055 272.208 124.714C272.127 124.847 272.001 124.945 271.852 124.989C271.704 125.034 271.544 125.022 271.404 124.955C271.33 124.918 271.268 124.86 271.226 124.789C271.183 124.718 271.161 124.636 271.163 124.554C270.6 121.902 271.725 118.929 271.645 116.116C271.652 115.804 271.568 115.497 271.404 115.232C271.279 115.077 271.119 114.952 270.938 114.869C270.757 114.785 270.558 114.744 270.359 114.75C267.369 114.111 264.438 113.224 261.596 112.098C260.792 111.777 259.908 110.973 260.471 110.33C260.679 110.161 260.929 110.05 261.194 110.009C262.975 109.688 264.799 109.688 266.58 110.009L271.484 111.054Z" fill="white"/>
<path d="M298.175 77.4642C295.28 80.1964 296.004 85.9821 300.988 84.616C308.304 82.5267 303.159 72.8035 298.175 77.4642Z" fill="white"/>
<path d="M311.841 220.178C310.911 217.505 310.185 214.765 309.671 211.982C309.59 211.5 309.671 210.937 310.073 210.857C310.475 210.777 310.716 211.259 310.876 211.58C311.761 213.911 312.725 216.241 313.61 218.652C315.381 217.19 317.476 216.171 319.72 215.678C319.88 215.678 320.122 215.759 320.122 216V216.241C319.527 217.637 318.517 218.816 317.227 219.616C316.745 219.937 316.182 220.178 316.102 220.741C316.078 221.097 316.132 221.454 316.263 221.786C317.054 223.824 317.568 225.959 317.79 228.134C317.787 228.248 317.746 228.357 317.673 228.445C317.6 228.532 317.5 228.593 317.388 228.616C317.275 228.628 317.161 228.6 317.067 228.536C315.62 227.25 315.137 224.92 313.931 223.312C313.851 223.152 313.61 222.991 313.449 222.83C313.312 222.794 313.168 222.79 313.028 222.818C312.889 222.845 312.758 222.905 312.645 222.991C310.613 223.829 308.515 224.5 306.374 225C305.812 225.161 304.927 225 305.008 224.437C305.086 224.259 305.195 224.096 305.329 223.955C306.226 223.001 307.324 222.26 308.545 221.786L311.841 220.178Z" fill="white"/>
<path d="M464.667 244.527C462.818 246.295 463.3 249.991 466.435 249.107C471.098 247.821 467.882 241.553 464.667 244.527Z" fill="white"/>
<path d="M24.9215 211.42C24.2844 208.88 23.8012 206.303 23.4745 203.705C23.4745 203.303 23.5549 202.741 23.8764 202.741C24.198 202.741 24.4392 203.143 24.6 203.464C25.3235 205.714 25.9666 207.964 26.6098 210.134C28.368 208.93 30.373 208.134 32.4784 207.803C32.5613 207.802 32.6429 207.824 32.714 207.866C32.7851 207.909 32.8427 207.971 32.8804 208.045C32.8856 208.088 32.8811 208.132 32.8672 208.174C32.8533 208.216 32.8304 208.254 32.8 208.286C32.1836 209.545 31.1653 210.562 29.9059 211.178C29.6631 211.255 29.4384 211.381 29.245 211.546C29.0516 211.712 28.8936 211.915 28.7804 212.143C28.7268 212.466 28.7545 212.797 28.8608 213.107C29.4225 215.043 29.7465 217.04 29.8255 219.053C29.829 219.107 29.8211 219.161 29.8021 219.211C29.7832 219.262 29.7537 219.307 29.7156 219.345C29.6776 219.384 29.6318 219.413 29.5814 219.432C29.5311 219.451 29.4772 219.459 29.4235 219.455C29.3431 219.455 29.1823 219.375 29.1823 219.295C27.9764 218.009 27.6549 215.839 26.6902 214.232C26.5807 214.052 26.4453 213.89 26.2882 213.75C26.1566 213.703 26.0162 213.686 25.8773 213.7C25.7383 213.714 25.6041 213.759 25.4843 213.83C23.5437 214.472 21.5542 214.956 19.5353 215.277C18.9725 215.357 18.1686 215.116 18.3294 214.634C18.3896 214.468 18.5026 214.327 18.651 214.232C19.5595 213.428 20.628 212.826 21.7863 212.464L24.9215 211.42Z" fill="white"/>
</g>
<defs>
<clipPath id="clip0_1_1118">
<rect width="492" height="423" fill="white"/>
</clipPath>
</defs>
</svg>
